<svg width="52" height="52" viewBox="0 0 52 52" fill="none" xmlns="http://www.w3.org/2000/svg">
<g clip-path="url(#clip0_4192_17754)">
<path d="M26 52C40.3594 52 52 40.3594 52 26C52 11.6406 40.3594 0 26 0C11.6406 0 0 11.6406 0 26C0 40.3594 11.6406 52 26 52Z" fill="#D80027"/>
<path d="M14.2289 15.8232L16.4734 22.7295H23.7352L17.8648 27.0053L20.1094 33.9115L14.2289 29.6459L8.34844 33.9115L10.6031 27.0053L4.72266 22.7295H11.9844L14.2289 15.8232Z" fill="#FFDA44"/>
<path d="M30.8242 40.2694L29.1078 38.1569L26.5687 39.1421L28.0414 36.8569L26.325 34.7343L28.9555 35.4351L30.4383 33.1499L30.5805 35.8718L33.2211 36.5726L30.6719 37.5476L30.8242 40.2694Z" fill="#FFDA44"/>
<path d="M34.2367 34.0741L35.0492 31.4741L32.825 29.8999L35.5469 29.8593L36.3492 27.2593L37.2328 29.839L39.9547 29.8085L37.7711 31.4335L38.6445 34.0132L36.4203 32.439L34.2367 34.0741Z" fill="#FFDA44"/>
<path d="M38.8375 19.0833L37.6391 21.531L39.5891 23.4302L36.8977 23.0442L35.6992 25.4817L35.232 22.8005L32.5305 22.4146L34.9477 21.145L34.4805 18.4536L36.4305 20.3528L38.8375 19.0833Z" fill="#FFDA44"/>
<path d="M30.8953 11.6694L30.6922 14.3812L33.2211 15.4069L30.5703 16.0569L30.3773 18.7788L28.9453 16.4632L26.2945 17.1132L28.0516 15.0312L26.6094 12.7257L29.1383 13.7515L30.8953 11.6694Z" fill="#FFDA44"/>
</g>
<defs>
<clipPath id="clip0_4192_17754">
<rect width="52" height="52" fill="white"/>
</clipPath>
</defs>
</svg>
