<svg width="52" height="52" viewBox="0 0 52 52" fill="none" xmlns="http://www.w3.org/2000/svg">
<g clip-path="url(#clip0_4192_17691)">
<path d="M26 52C40.3594 52 52 40.3594 52 26C52 11.6406 40.3594 0 26 0C11.6406 0 0 11.6406 0 26C0 40.3594 11.6406 52 26 52Z" fill="#F5F5F5"/>
<path d="M0 26.0001C0 11.6407 11.6407 0 26 0C40.3593 0 52 11.6407 52 26.0001" fill="#D80027"/>
<path d="M15.8261 13.5653C15.8261 9.7772 18.4883 6.61272 22.0434 5.83627C21.497 5.71704 20.9302 5.65234 20.3477 5.65234C15.9774 5.65234 12.4347 9.19505 12.4347 13.5654C12.4347 17.9357 15.9774 21.4784 20.3477 21.4784C20.93 21.4784 21.4969 21.4137 22.0434 21.2944C18.4883 20.5179 15.8261 17.3535 15.8261 13.5653Z" fill="#F0F0F0"/>
<path d="M26 6.21777L26.5612 7.94484H28.3773L26.908 9.01237L27.4692 10.7394L26 9.67212L24.5308 10.7394L25.092 9.01237L23.6228 7.94484H25.4388L26 6.21777Z" fill="#F0F0F0"/>
<path d="M21.5947 9.60889L22.1559 11.3361H23.9719L22.5027 12.4035L23.0639 14.1306L21.5947 13.0632L20.1253 14.1306L20.6867 12.4035L19.2174 11.3361H21.0334L21.5947 9.60889Z" fill="#F0F0F0"/>
<path d="M30.4054 9.60889L30.9667 11.3361H32.7827L31.3134 12.4035L31.8747 14.1306L30.4054 13.0632L28.9362 14.1306L29.4974 12.4035L28.0282 11.3361H29.8442L30.4054 9.60889Z" fill="#F0F0F0"/>
<path d="M28.7098 14.6958L29.271 16.423H31.087L29.6178 17.4904L30.179 19.2175L28.7098 18.1501L27.2406 19.2175L27.8018 17.4904L26.3326 16.423H28.1485L28.7098 14.6958Z" fill="#F0F0F0"/>
<path d="M23.2903 14.6958L23.8514 16.423H25.6676L24.1983 17.4904L24.7596 19.2175L23.2903 18.1501L21.821 19.2175L22.3822 17.4904L20.913 16.423H22.7291L23.2903 14.6958Z" fill="#F0F0F0"/>
</g>
<defs>
<clipPath id="clip0_4192_17691">
<rect width="52" height="52" fill="white"/>
</clipPath>
</defs>
</svg>
