<svg width="52" height="52" viewBox="0 0 52 52" fill="none" xmlns="http://www.w3.org/2000/svg">
<g clip-path="url(#clip0_4192_17731)">
<path d="M26 52C40.3594 52 52 40.3594 52 26C52 11.6406 40.3594 0 26 0C11.6406 0 0 11.6406 0 26C0 40.3594 11.6406 52 26 52Z" fill="#F0F0F0"/>
<path d="M35.0434 26C35.0434 28.2609 30.9945 33.913 26 33.913C21.0055 33.913 16.9566 28.2609 16.9566 26C16.9566 21.0053 21.0055 16.9565 26 16.9565C30.9945 16.9565 35.0434 21.0053 35.0434 26Z" fill="#D80027"/>
<path d="M35.0434 26C35.0434 30.9946 30.9945 35.0434 26 35.0434C21.0055 35.0434 16.9566 30.9946 16.9566 26" fill="#0052B4"/>
<path d="M35.5849 33.9937L37.9826 31.596L39.581 33.1945L37.1834 35.5921L35.5849 33.9937Z" fill="black"/>
<path d="M31.5877 37.9897L33.9853 35.5921L35.5838 37.1906L33.1861 39.5882L31.5877 37.9897Z" fill="black"/>
<path d="M40.3806 38.7891L42.7782 36.3914L44.3767 37.9899L41.979 40.3875L40.3806 38.7891Z" fill="black"/>
<path d="M36.3835 42.7856L38.7811 40.388L40.3795 41.9865L37.9819 44.3841L36.3835 42.7856Z" fill="black"/>
<path d="M37.9826 36.3916L40.3803 33.994L41.9787 35.5924L39.5811 37.99L37.9826 36.3916Z" fill="black"/>
<path d="M33.9865 40.3877L36.3841 37.9901L37.9826 39.5885L35.5849 41.9861L33.9865 40.3877Z" fill="black"/>
<path d="M40.3912 18.0107L33.9975 11.617L35.5959 10.0186L41.9896 16.4123L40.3912 18.0107Z" fill="black"/>
<path d="M33.9962 16.4126L31.5986 14.015L33.197 12.4166L35.5946 14.8142L33.9962 16.4126Z" fill="black"/>
<path d="M37.9923 20.4097L35.5947 18.012L37.1931 16.4137L39.5907 18.8113L37.9923 20.4097Z" fill="black"/>
<path d="M38.791 11.6167L36.3934 9.21907L37.9918 7.62063L40.3895 10.0183L38.791 11.6167Z" fill="black"/>
<path d="M42.7893 15.6143L40.3917 13.2166L41.9901 11.6182L44.3878 14.0158L42.7893 15.6143Z" fill="black"/>
<path d="M9.21725 36.3872L15.611 42.7809L14.0125 44.3794L7.61881 37.9857L9.21725 36.3872Z" fill="black"/>
<path d="M15.6106 37.9844L18.0082 40.382L16.4099 41.9804L14.0122 39.5827L15.6106 37.9844Z" fill="black"/>
<path d="M11.6142 33.9888L14.0118 36.3864L12.4134 37.9848L10.0158 35.5872L11.6142 33.9888Z" fill="black"/>
<path d="M14.0121 31.5903L20.4058 37.984L18.8074 39.5825L12.4137 33.1888L14.0121 31.5903Z" fill="black"/>
<path d="M15.6103 9.21436L9.21657 15.6081L7.61813 14.0096L14.0118 7.61591L15.6103 9.21436Z" fill="black"/>
<path d="M18.0079 11.6113L11.6142 18.005L10.0158 16.4066L16.4095 10.0129L18.0079 11.6113Z" fill="black"/>
<path d="M20.4078 14.0107L14.0141 20.4044L12.4157 18.8061L18.8094 12.4124L20.4078 14.0107Z" fill="black"/>
</g>
<defs>
<clipPath id="clip0_4192_17731">
<rect width="52" height="52" fill="white"/>
</clipPath>
</defs>
</svg>
