<svg width="477" height="240" viewBox="0 0 477 240" fill="none" xmlns="http://www.w3.org/2000/svg">
<rect x="1.63711" y="1.9396" width="473.726" height="236.306" rx="13.3758" fill="white"/>
<rect x="1.63711" y="1.9396" width="473.726" height="236.306" rx="13.3758" stroke="#CBD0DC" stroke-width="2.2293" stroke-dasharray="6.69 6.69"/>
<path d="M233.651 61.054H231.6C228.46 60.8297 227.05 58.4155 227.05 56.2684C227.05 54.1213 228.46 51.6965 231.547 51.4829C231.985 51.4401 232.369 51.782 232.401 52.2306C232.434 52.6686 232.102 53.0531 231.654 53.0852C229.581 53.2347 228.652 54.7943 228.652 56.2791C228.652 57.7639 229.581 59.3235 231.654 59.473H233.651C234.089 59.473 234.452 59.8362 234.452 60.2742C234.452 60.7122 234.089 61.054 233.651 61.054Z" fill="#292D32"/>
<path d="M243.489 61.0539C243.468 61.0539 243.457 61.0539 243.436 61.0539C242.998 61.0539 242.592 60.6907 242.592 60.2527C242.592 59.7934 242.934 59.4516 243.383 59.4516C244.696 59.4516 245.871 58.9923 246.79 58.1697C248.457 56.717 248.563 54.6233 248.115 53.1492C247.666 51.6857 246.416 50.0087 244.237 49.7416C243.885 49.6989 243.607 49.4318 243.543 49.0793C243.115 46.5156 241.738 44.7424 239.644 44.1015C237.486 43.4285 234.965 44.0908 233.395 45.7358C231.867 47.3275 231.515 49.56 232.401 52.0169C232.551 52.4335 232.337 52.8928 231.921 53.0424C231.504 53.1919 231.045 52.9783 230.895 52.5617C229.816 49.5493 230.308 46.6652 232.241 44.6356C234.217 42.5633 237.39 41.7407 240.114 42.5739C242.613 43.343 244.376 45.4047 245.017 48.2675C247.196 48.7588 248.948 50.4146 249.642 52.7005C250.401 55.1895 249.717 57.7532 247.848 59.3768C246.662 60.445 245.113 61.0539 243.489 61.0539Z" fill="#292D32"/>
<path d="M238.502 64.1945C236.354 64.1945 234.346 63.0515 233.246 61.2035C233.129 61.0219 233.011 60.8083 232.915 60.5733C232.552 59.8149 232.359 58.9496 232.359 58.0523C232.359 54.6661 235.115 51.9102 238.502 51.9102C241.888 51.9102 244.644 54.6661 244.644 58.0523C244.644 58.9603 244.451 59.8149 244.067 60.6054C243.981 60.8083 243.864 61.022 243.736 61.2249C242.657 63.0515 240.649 64.1945 238.502 64.1945ZM238.502 53.5125C236.002 53.5125 233.962 55.5527 233.962 58.0523C233.962 58.7146 234.101 59.3342 234.368 59.9003C234.453 60.0819 234.528 60.2315 234.613 60.3703C235.425 61.7483 236.91 62.5922 238.491 62.5922C240.072 62.5922 241.557 61.7483 242.358 60.3917C242.454 60.2315 242.539 60.0819 242.603 59.9324C242.892 59.3449 243.031 58.7253 243.031 58.063C243.041 55.5527 241.001 53.5125 238.502 53.5125Z" fill="#292D32"/>
<path d="M237.892 59.9109C237.689 59.9109 237.486 59.8362 237.326 59.6759L236.268 58.6184C235.959 58.3086 235.959 57.7959 236.268 57.4861C236.578 57.1763 237.091 57.1763 237.401 57.4861L237.914 57.9988L239.623 56.4179C239.954 56.1188 240.456 56.1402 240.755 56.4606C241.054 56.7811 241.033 57.2938 240.712 57.5929L238.437 59.6973C238.277 59.8362 238.084 59.9109 237.892 59.9109Z" fill="#292D32"/>
<path d="M111.117 100.578H109.264C109.193 100.182 109.06 99.8335 108.867 99.5327C108.673 99.2319 108.435 98.9766 108.154 98.7668C107.873 98.557 107.558 98.3987 107.21 98.2918C106.866 98.1849 106.499 98.1315 106.112 98.1315C105.411 98.1315 104.784 98.3076 104.229 98.6599C103.679 99.0122 103.244 99.5288 102.923 100.21C102.607 100.89 102.448 101.722 102.448 102.703C102.448 103.693 102.607 104.528 102.923 105.209C103.244 105.89 103.681 106.404 104.235 106.753C104.79 107.101 105.413 107.275 106.106 107.275C106.49 107.275 106.854 107.224 107.198 107.121C107.546 107.014 107.861 106.858 108.142 106.652C108.423 106.446 108.661 106.194 108.855 105.898C109.053 105.597 109.189 105.252 109.264 104.865L111.117 104.87C111.018 105.468 110.826 106.018 110.541 106.521C110.26 107.02 109.898 107.451 109.454 107.815C109.015 108.176 108.512 108.455 107.946 108.653C107.38 108.85 106.763 108.949 106.094 108.949C105.041 108.949 104.103 108.7 103.279 108.201C102.456 107.699 101.807 106.98 101.332 106.046C100.861 105.112 100.625 103.998 100.625 102.703C100.625 101.405 100.863 100.291 101.338 99.3605C101.813 98.4264 102.462 97.7099 103.285 97.2112C104.109 96.7085 105.045 96.4571 106.094 96.4571C106.739 96.4571 107.341 96.5502 107.899 96.7362C108.461 96.9183 108.965 97.1874 109.413 97.5437C109.86 97.896 110.23 98.3274 110.523 98.838C110.816 99.3447 111.014 99.9246 111.117 100.578ZM114.945 103.368V108.783H113.17V96.6234H114.921V101.148H115.034C115.248 100.657 115.574 100.267 116.014 99.978C116.453 99.6891 117.027 99.5446 117.736 99.5446C118.361 99.5446 118.907 99.6732 119.374 99.9305C119.845 100.188 120.209 100.572 120.467 101.082C120.728 101.589 120.859 102.222 120.859 102.982V108.783H119.083V103.196C119.083 102.527 118.911 102.009 118.567 101.64C118.222 101.268 117.743 101.082 117.13 101.082C116.71 101.082 116.334 101.171 116.002 101.35C115.673 101.528 115.414 101.789 115.224 102.133C115.038 102.474 114.945 102.885 114.945 103.368ZM127.069 108.967C126.214 108.967 125.468 108.771 124.831 108.379C124.193 107.988 123.699 107.439 123.346 106.735C122.994 106.03 122.818 105.207 122.818 104.265C122.818 103.319 122.994 102.492 123.346 101.783C123.699 101.074 124.193 100.524 124.831 100.132C125.468 99.7405 126.214 99.5446 127.069 99.5446C127.924 99.5446 128.67 99.7405 129.308 100.132C129.945 100.524 130.44 101.074 130.792 101.783C131.144 102.492 131.32 103.319 131.32 104.265C131.32 105.207 131.144 106.03 130.792 106.735C130.44 107.439 129.945 107.988 129.308 108.379C128.67 108.771 127.924 108.967 127.069 108.967ZM127.075 107.477C127.629 107.477 128.088 107.331 128.453 107.038C128.817 106.745 129.086 106.355 129.26 105.868C129.438 105.381 129.527 104.845 129.527 104.259C129.527 103.677 129.438 103.143 129.26 102.656C129.086 102.165 128.817 101.771 128.453 101.474C128.088 101.177 127.629 101.029 127.075 101.029C126.517 101.029 126.054 101.177 125.686 101.474C125.322 101.771 125.05 102.165 124.872 102.656C124.698 103.143 124.611 103.677 124.611 104.259C124.611 104.845 124.698 105.381 124.872 105.868C125.05 106.355 125.322 106.745 125.686 107.038C126.054 107.331 126.517 107.477 127.075 107.477ZM137.143 108.967C136.288 108.967 135.542 108.771 134.905 108.379C134.268 107.988 133.773 107.439 133.421 106.735C133.068 106.03 132.892 105.207 132.892 104.265C132.892 103.319 133.068 102.492 133.421 101.783C133.773 101.074 134.268 100.524 134.905 100.132C135.542 99.7405 136.288 99.5446 137.143 99.5446C137.998 99.5446 138.745 99.7405 139.382 100.132C140.019 100.524 140.514 101.074 140.866 101.783C141.218 102.492 141.395 103.319 141.395 104.265C141.395 105.207 141.218 106.03 140.866 106.735C140.514 107.439 140.019 107.988 139.382 108.379C138.745 108.771 137.998 108.967 137.143 108.967ZM137.149 107.477C137.704 107.477 138.163 107.331 138.527 107.038C138.891 106.745 139.16 106.355 139.334 105.868C139.512 105.381 139.602 104.845 139.602 104.259C139.602 103.677 139.512 103.143 139.334 102.656C139.16 102.165 138.891 101.771 138.527 101.474C138.163 101.177 137.704 101.029 137.149 101.029C136.591 101.029 136.128 101.177 135.76 101.474C135.396 101.771 135.125 102.165 134.947 102.656C134.772 103.143 134.685 103.677 134.685 104.259C134.685 104.845 134.772 105.381 134.947 105.868C135.125 106.355 135.396 106.745 135.76 107.038C136.128 107.331 136.591 107.477 137.149 107.477ZM150.21 101.89L148.601 102.175C148.534 101.969 148.427 101.773 148.281 101.587C148.138 101.401 147.944 101.249 147.699 101.13C147.453 101.011 147.147 100.952 146.778 100.952C146.276 100.952 145.856 101.065 145.52 101.29C145.183 101.512 145.015 101.799 145.015 102.151C145.015 102.456 145.128 102.701 145.353 102.887C145.579 103.073 145.943 103.226 146.446 103.345L147.895 103.677C148.734 103.871 149.359 104.17 149.771 104.574C150.183 104.977 150.388 105.502 150.388 106.147C150.388 106.693 150.23 107.18 149.913 107.608C149.601 108.031 149.163 108.364 148.601 108.605C148.043 108.847 147.396 108.967 146.66 108.967C145.638 108.967 144.805 108.75 144.16 108.314C143.515 107.875 143.119 107.251 142.973 106.444L144.688 106.183C144.795 106.63 145.015 106.968 145.347 107.198C145.68 107.424 146.113 107.536 146.648 107.536C147.23 107.536 147.695 107.416 148.043 107.174C148.391 106.929 148.566 106.63 148.566 106.278C148.566 105.993 148.459 105.753 148.245 105.559C148.035 105.365 147.713 105.219 147.277 105.12L145.733 104.781C144.882 104.587 144.253 104.279 143.845 103.855C143.442 103.432 143.24 102.895 143.24 102.246C143.24 101.708 143.39 101.237 143.691 100.833C143.992 100.429 144.407 100.115 144.938 99.889C145.468 99.6594 146.076 99.5446 146.761 99.5446C147.746 99.5446 148.522 99.7583 149.088 100.186C149.654 100.609 150.028 101.177 150.21 101.89ZM156.271 108.967C155.372 108.967 154.598 108.775 153.949 108.391C153.304 108.003 152.805 107.459 152.453 106.759C152.105 106.054 151.931 105.229 151.931 104.283C151.931 103.348 152.105 102.525 152.453 101.813C152.805 101.1 153.296 100.544 153.926 100.144C154.559 99.7445 155.299 99.5446 156.146 99.5446C156.661 99.5446 157.159 99.6297 157.642 99.7999C158.125 99.9701 158.559 100.237 158.943 100.601C159.327 100.966 159.629 101.439 159.851 102.02C160.073 102.598 160.184 103.301 160.184 104.128V104.758H152.934V103.428H158.444C158.444 102.961 158.349 102.547 158.159 102.187C157.969 101.823 157.702 101.536 157.357 101.326C157.017 101.116 156.617 101.011 156.158 101.011C155.659 101.011 155.224 101.134 154.852 101.379C154.484 101.621 154.199 101.937 153.997 102.329C153.799 102.717 153.7 103.139 153.7 103.594V104.633C153.7 105.243 153.807 105.761 154.021 106.189C154.238 106.616 154.541 106.943 154.929 107.168C155.317 107.39 155.77 107.501 156.289 107.501C156.625 107.501 156.932 107.453 157.209 107.358C157.486 107.259 157.725 107.113 157.927 106.919C158.129 106.725 158.284 106.485 158.39 106.2L160.071 106.503C159.936 106.998 159.695 107.431 159.346 107.804C159.002 108.172 158.569 108.459 158.046 108.664C157.528 108.866 156.936 108.967 156.271 108.967ZM169.232 108.985C168.654 108.985 168.132 108.878 167.665 108.664C167.198 108.447 166.828 108.132 166.554 107.72C166.285 107.309 166.151 106.804 166.151 106.206C166.151 105.692 166.25 105.268 166.448 104.936C166.645 104.603 166.913 104.34 167.249 104.146C167.586 103.952 167.962 103.806 168.377 103.707C168.793 103.608 169.216 103.533 169.648 103.481C170.194 103.418 170.637 103.366 170.978 103.327C171.318 103.283 171.566 103.214 171.72 103.119C171.874 103.024 171.952 102.87 171.952 102.656V102.614C171.952 102.096 171.805 101.694 171.512 101.409C171.223 101.124 170.792 100.981 170.218 100.981C169.62 100.981 169.149 101.114 168.805 101.379C168.464 101.64 168.229 101.931 168.098 102.252L166.43 101.872C166.628 101.318 166.917 100.871 167.297 100.53C167.681 100.186 168.122 99.9365 168.621 99.7821C169.119 99.6238 169.644 99.5446 170.194 99.5446C170.558 99.5446 170.944 99.5881 171.352 99.6752C171.764 99.7583 172.147 99.9127 172.504 100.138C172.864 100.364 173.159 100.687 173.388 101.106C173.618 101.522 173.733 102.062 173.733 102.727V108.783H171.999V107.536H171.928C171.813 107.766 171.641 107.992 171.411 108.213C171.182 108.435 170.887 108.619 170.527 108.765C170.166 108.912 169.735 108.985 169.232 108.985ZM169.618 107.56C170.109 107.56 170.529 107.463 170.877 107.269C171.229 107.075 171.496 106.822 171.678 106.509C171.864 106.193 171.957 105.854 171.957 105.494V104.318C171.894 104.382 171.771 104.441 171.589 104.496C171.411 104.548 171.207 104.593 170.978 104.633C170.748 104.669 170.525 104.702 170.307 104.734C170.089 104.762 169.907 104.785 169.761 104.805C169.416 104.849 169.102 104.922 168.817 105.025C168.536 105.128 168.31 105.276 168.14 105.47C167.973 105.66 167.89 105.913 167.89 106.23C167.89 106.669 168.053 107.002 168.377 107.228C168.702 107.449 169.115 107.56 169.618 107.56ZM184.862 99.6633V101.088H179.709V99.6633H184.862ZM181.122 108.783V98.6065C181.122 98.0365 181.247 97.5635 181.496 97.1874C181.745 96.8074 182.076 96.5244 182.487 96.3384C182.899 96.1484 183.346 96.0534 183.829 96.0534C184.186 96.0534 184.49 96.0831 184.744 96.1425C184.997 96.1979 185.185 96.2493 185.308 96.2968L184.892 97.7337C184.809 97.7099 184.702 97.6822 184.571 97.6506C184.441 97.6149 184.283 97.5971 184.096 97.5971C183.665 97.5971 183.356 97.704 183.17 97.9177C182.988 98.1315 182.897 98.4402 182.897 98.844V108.783H181.122ZM186.694 108.783V99.6633H188.469V108.783H186.694ZM187.591 98.2562C187.282 98.2562 187.017 98.1533 186.795 97.9474C186.577 97.7376 186.468 97.4883 186.468 97.1993C186.468 96.9064 186.577 96.657 186.795 96.4512C187.017 96.2414 187.282 96.1365 187.591 96.1365C187.899 96.1365 188.163 96.2414 188.38 96.4512C188.602 96.657 188.713 96.9064 188.713 97.1993C188.713 97.4883 188.602 97.7376 188.38 97.9474C188.163 98.1533 187.899 98.2562 187.591 98.2562ZM192.633 96.6234V108.783H190.858V96.6234H192.633ZM198.952 108.967C198.053 108.967 197.28 108.775 196.63 108.391C195.985 108.003 195.486 107.459 195.134 106.759C194.786 106.054 194.612 105.229 194.612 104.283C194.612 103.348 194.786 102.525 195.134 101.813C195.486 101.1 195.977 100.544 196.607 100.144C197.24 99.7445 197.98 99.5446 198.827 99.5446C199.342 99.5446 199.841 99.6297 200.323 99.7999C200.806 99.9701 201.24 100.237 201.624 100.601C202.008 100.966 202.31 101.439 202.532 102.02C202.754 102.598 202.865 103.301 202.865 104.128V104.758H195.615V103.428H201.125C201.125 102.961 201.03 102.547 200.84 102.187C200.65 101.823 200.383 101.536 200.038 101.326C199.698 101.116 199.298 101.011 198.839 101.011C198.34 101.011 197.905 101.134 197.533 101.379C197.165 101.621 196.88 101.937 196.678 102.329C196.48 102.717 196.381 103.139 196.381 103.594V104.633C196.381 105.243 196.488 105.761 196.702 106.189C196.919 106.616 197.222 106.943 197.61 107.168C197.998 107.39 198.451 107.501 198.97 107.501C199.306 107.501 199.613 107.453 199.89 107.358C200.167 107.259 200.407 107.113 200.608 106.919C200.81 106.725 200.965 106.485 201.072 106.2L202.752 106.503C202.617 106.998 202.376 107.431 202.027 107.804C201.683 108.172 201.25 108.459 200.727 108.664C200.209 108.866 199.617 108.967 198.952 108.967ZM213.101 108.967C212.246 108.967 211.5 108.771 210.862 108.379C210.225 107.988 209.73 107.439 209.378 106.735C209.026 106.03 208.85 105.207 208.85 104.265C208.85 103.319 209.026 102.492 209.378 101.783C209.73 101.074 210.225 100.524 210.862 100.132C211.5 99.7405 212.246 99.5446 213.101 99.5446C213.956 99.5446 214.702 99.7405 215.339 100.132C215.976 100.524 216.471 101.074 216.823 101.783C217.176 102.492 217.352 103.319 217.352 104.265C217.352 105.207 217.176 106.03 216.823 106.735C216.471 107.439 215.976 107.988 215.339 108.379C214.702 108.771 213.956 108.967 213.101 108.967ZM213.107 107.477C213.661 107.477 214.12 107.331 214.484 107.038C214.848 106.745 215.117 106.355 215.292 105.868C215.47 105.381 215.559 104.845 215.559 104.259C215.559 103.677 215.47 103.143 215.292 102.656C215.117 102.165 214.848 101.771 214.484 101.474C214.12 101.177 213.661 101.029 213.107 101.029C212.549 101.029 212.085 101.177 211.717 101.474C211.353 101.771 211.082 102.165 210.904 102.656C210.73 103.143 210.643 103.677 210.643 104.259C210.643 104.845 210.73 105.381 210.904 105.868C211.082 106.355 211.353 106.745 211.717 107.038C212.085 107.331 212.549 107.477 213.107 107.477ZM219.334 108.783V99.6633H221.049V101.112H221.144C221.311 100.621 221.604 100.235 222.023 99.9543C222.447 99.6693 222.926 99.5268 223.46 99.5268C223.571 99.5268 223.701 99.5307 223.852 99.5387C224.006 99.5466 224.127 99.5565 224.214 99.5683V101.266C224.143 101.247 224.016 101.225 223.834 101.201C223.652 101.173 223.47 101.16 223.288 101.16C222.868 101.16 222.494 101.249 222.166 101.427C221.841 101.601 221.584 101.844 221.394 102.157C221.204 102.466 221.109 102.818 221.109 103.214V108.783H219.334ZM233.589 108.961C232.853 108.961 232.196 108.773 231.618 108.397C231.044 108.017 230.593 107.477 230.264 106.776C229.94 106.072 229.777 105.227 229.777 104.241C229.777 103.255 229.942 102.412 230.27 101.712C230.603 101.011 231.058 100.475 231.636 100.103C232.214 99.7306 232.869 99.5446 233.601 99.5446C234.167 99.5446 234.622 99.6396 234.967 99.8296C235.315 100.016 235.584 100.233 235.774 100.483C235.968 100.732 236.119 100.952 236.225 101.142H236.332V96.6234H238.108V108.783H236.374V107.364H236.225C236.119 107.558 235.964 107.78 235.762 108.029C235.564 108.279 235.291 108.496 234.943 108.682C234.595 108.868 234.143 108.961 233.589 108.961ZM233.981 107.447C234.492 107.447 234.923 107.313 235.275 107.044C235.632 106.77 235.901 106.392 236.083 105.909C236.269 105.427 236.362 104.865 236.362 104.223C236.362 103.59 236.271 103.036 236.089 102.561C235.907 102.086 235.64 101.716 235.287 101.451C234.935 101.185 234.5 101.053 233.981 101.053C233.447 101.053 233.001 101.191 232.645 101.468C232.289 101.745 232.02 102.123 231.838 102.602C231.66 103.081 231.571 103.622 231.571 104.223C231.571 104.833 231.662 105.381 231.844 105.868C232.026 106.355 232.295 106.741 232.651 107.026C233.011 107.307 233.455 107.447 233.981 107.447ZM240.641 108.783V99.6633H242.357V101.112H242.452C242.619 100.621 242.911 100.235 243.331 99.9543C243.755 99.6693 244.234 99.5268 244.768 99.5268C244.879 99.5268 245.009 99.5307 245.16 99.5387C245.314 99.5466 245.435 99.5565 245.522 99.5683V101.266C245.451 101.247 245.324 101.225 245.142 101.201C244.96 101.173 244.778 101.16 244.596 101.16C244.176 101.16 243.802 101.249 243.474 101.427C243.149 101.601 242.892 101.844 242.702 102.157C242.512 102.466 242.417 102.818 242.417 103.214V108.783H240.641ZM249.631 108.985C249.053 108.985 248.53 108.878 248.063 108.664C247.596 108.447 247.226 108.132 246.953 107.72C246.684 107.309 246.549 106.804 246.549 106.206C246.549 105.692 246.648 105.268 246.846 104.936C247.044 104.603 247.311 104.34 247.648 104.146C247.984 103.952 248.36 103.806 248.776 103.707C249.191 103.608 249.615 103.533 250.046 103.481C250.593 103.418 251.036 103.366 251.376 103.327C251.717 103.283 251.964 103.214 252.118 103.119C252.273 103.024 252.35 102.87 252.35 102.656V102.614C252.35 102.096 252.204 101.694 251.911 101.409C251.622 101.124 251.19 100.981 250.616 100.981C250.019 100.981 249.548 101.114 249.203 101.379C248.863 101.64 248.627 101.931 248.497 102.252L246.828 101.872C247.026 101.318 247.315 100.871 247.695 100.53C248.079 100.186 248.52 99.9365 249.019 99.7821C249.518 99.6238 250.042 99.5446 250.593 99.5446C250.957 99.5446 251.343 99.5881 251.75 99.6752C252.162 99.7583 252.546 99.9127 252.902 100.138C253.262 100.364 253.557 100.687 253.787 101.106C254.016 101.522 254.131 102.062 254.131 102.727V108.783H252.397V107.536H252.326C252.211 107.766 252.039 107.992 251.81 108.213C251.58 108.435 251.285 108.619 250.925 108.765C250.565 108.912 250.133 108.985 249.631 108.985ZM250.017 107.56C250.507 107.56 250.927 107.463 251.275 107.269C251.628 107.075 251.895 106.822 252.077 106.509C252.263 106.193 252.356 105.854 252.356 105.494V104.318C252.293 104.382 252.17 104.441 251.988 104.496C251.81 104.548 251.606 104.593 251.376 104.633C251.147 104.669 250.923 104.702 250.705 104.734C250.488 104.762 250.306 104.785 250.159 104.805C249.815 104.849 249.5 104.922 249.215 105.025C248.934 105.128 248.708 105.276 248.538 105.47C248.372 105.66 248.289 105.913 248.289 106.23C248.289 106.669 248.451 107.002 248.776 107.228C249.1 107.449 249.514 107.56 250.017 107.56ZM260.319 112.393C259.595 112.393 258.972 112.298 258.449 112.108C257.931 111.918 257.507 111.667 257.179 111.354C256.85 111.041 256.605 110.699 256.442 110.327L257.968 109.698C258.075 109.872 258.218 110.056 258.396 110.25C258.578 110.448 258.823 110.616 259.132 110.754C259.445 110.893 259.846 110.962 260.337 110.962C261.01 110.962 261.566 110.798 262.006 110.469C262.445 110.145 262.665 109.626 262.665 108.914V107.121H262.552C262.445 107.315 262.291 107.53 262.089 107.768C261.891 108.005 261.618 108.211 261.269 108.385C260.921 108.56 260.468 108.647 259.91 108.647C259.189 108.647 258.54 108.478 257.962 108.142C257.388 107.802 256.933 107.301 256.597 106.64C256.264 105.975 256.098 105.157 256.098 104.188C256.098 103.218 256.262 102.387 256.591 101.694C256.923 101.001 257.378 100.471 257.956 100.103C258.534 99.7306 259.189 99.5446 259.922 99.5446C260.488 99.5446 260.945 99.6396 261.293 99.8296C261.642 100.016 261.913 100.233 262.107 100.483C262.305 100.732 262.457 100.952 262.564 101.142H262.694V99.6633H264.434V108.985C264.434 109.769 264.252 110.412 263.888 110.915C263.524 111.417 263.031 111.79 262.409 112.031C261.792 112.272 261.095 112.393 260.319 112.393ZM260.302 107.174C260.812 107.174 261.244 107.055 261.596 106.818C261.952 106.576 262.221 106.232 262.403 105.785C262.59 105.334 262.683 104.793 262.683 104.164C262.683 103.55 262.592 103.01 262.409 102.543C262.227 102.076 261.96 101.712 261.608 101.451C261.256 101.185 260.82 101.053 260.302 101.053C259.767 101.053 259.322 101.191 258.966 101.468C258.609 101.741 258.34 102.114 258.158 102.585C257.98 103.056 257.891 103.582 257.891 104.164C257.891 104.762 257.982 105.286 258.164 105.737C258.346 106.189 258.615 106.541 258.972 106.794C259.332 107.048 259.775 107.174 260.302 107.174ZM274.779 108.955C273.963 108.955 273.261 108.807 272.671 108.51C272.085 108.213 271.634 107.809 271.317 107.299C271 106.784 270.842 106.202 270.842 105.553C270.842 105.058 270.945 104.619 271.151 104.235C271.357 103.847 271.644 103.489 272.012 103.16C272.38 102.832 272.805 102.501 273.288 102.169L275.248 100.786C275.58 100.568 275.839 100.338 276.025 100.097C276.211 99.8514 276.304 99.5486 276.304 99.1883C276.304 98.9034 276.182 98.6302 275.936 98.369C275.691 98.1077 275.362 97.9771 274.951 97.9771C274.666 97.9771 274.414 98.0464 274.197 98.1849C273.983 98.3235 273.815 98.5016 273.692 98.7193C273.573 98.933 273.514 99.1587 273.514 99.3962C273.514 99.6732 273.589 99.9523 273.74 100.233C273.894 100.514 274.092 100.805 274.333 101.106C274.575 101.403 274.828 101.712 275.093 102.032L280.74 108.783H278.733L274.06 103.291C273.668 102.828 273.304 102.393 272.968 101.985C272.631 101.573 272.358 101.158 272.148 100.738C271.942 100.314 271.84 99.8573 271.84 99.3665C271.84 98.8084 271.966 98.3136 272.22 97.8821C272.477 97.4467 272.835 97.1063 273.294 96.8609C273.753 96.6155 274.292 96.4928 274.909 96.4928C275.535 96.4928 276.071 96.6155 276.518 96.8609C276.969 97.1023 277.316 97.4249 277.557 97.8287C277.803 98.2285 277.925 98.6659 277.925 99.1408C277.925 99.7188 277.781 100.229 277.492 100.673C277.207 101.112 276.813 101.516 276.31 101.884L273.87 103.683C273.395 104.031 273.065 104.376 272.879 104.716C272.696 105.053 272.605 105.316 272.605 105.506C272.605 105.854 272.695 106.177 272.873 106.474C273.055 106.77 273.308 107.008 273.633 107.186C273.961 107.364 274.345 107.453 274.784 107.453C275.236 107.453 275.675 107.356 276.103 107.162C276.534 106.964 276.924 106.681 277.272 106.313C277.625 105.945 277.904 105.504 278.109 104.989C278.315 104.475 278.418 103.899 278.418 103.261H280.021C280.021 104.045 279.932 104.708 279.754 105.25C279.576 105.789 279.36 106.228 279.107 106.569C278.858 106.905 278.622 107.168 278.4 107.358C278.329 107.422 278.262 107.485 278.198 107.548C278.135 107.612 278.068 107.675 277.997 107.738C277.585 108.154 277.086 108.461 276.5 108.659C275.919 108.856 275.345 108.955 274.779 108.955ZM289.969 108.961C289.233 108.961 288.576 108.773 287.998 108.397C287.424 108.017 286.973 107.477 286.644 106.776C286.32 106.072 286.158 105.227 286.158 104.241C286.158 103.255 286.322 102.412 286.65 101.712C286.983 101.011 287.438 100.475 288.016 100.103C288.594 99.7306 289.249 99.5446 289.981 99.5446C290.547 99.5446 291.003 99.6396 291.347 99.8296C291.695 100.016 291.964 100.233 292.154 100.483C292.348 100.732 292.499 100.952 292.606 101.142H292.712V96.6234H294.488V108.783H292.754V107.364H292.606C292.499 107.558 292.344 107.78 292.143 108.029C291.945 108.279 291.671 108.496 291.323 108.682C290.975 108.868 290.524 108.961 289.969 108.961ZM290.361 107.447C290.872 107.447 291.303 107.313 291.656 107.044C292.012 106.77 292.281 106.392 292.463 105.909C292.649 105.427 292.742 104.865 292.742 104.223C292.742 103.59 292.651 103.036 292.469 102.561C292.287 102.086 292.02 101.716 291.668 101.451C291.315 101.185 290.88 101.053 290.361 101.053C289.827 101.053 289.382 101.191 289.025 101.468C288.669 101.745 288.4 102.123 288.218 102.602C288.04 103.081 287.951 103.622 287.951 104.223C287.951 104.833 288.042 105.381 288.224 105.868C288.406 106.355 288.675 106.741 289.031 107.026C289.392 107.307 289.835 107.447 290.361 107.447ZM297.022 108.783V99.6633H298.737V101.112H298.832C298.999 100.621 299.292 100.235 299.711 99.9543C300.135 99.6693 300.614 99.5268 301.148 99.5268C301.259 99.5268 301.39 99.5307 301.54 99.5387C301.694 99.5466 301.815 99.5565 301.902 99.5683V101.266C301.831 101.247 301.704 101.225 301.522 101.201C301.34 101.173 301.158 101.16 300.976 101.16C300.556 101.16 300.182 101.249 299.854 101.427C299.529 101.601 299.272 101.844 299.082 102.157C298.892 102.466 298.797 102.818 298.797 103.214V108.783H297.022ZM306.953 108.967C306.098 108.967 305.352 108.771 304.715 108.379C304.078 107.988 303.583 107.439 303.231 106.735C302.878 106.03 302.702 105.207 302.702 104.265C302.702 103.319 302.878 102.492 303.231 101.783C303.583 101.074 304.078 100.524 304.715 100.132C305.352 99.7405 306.098 99.5446 306.953 99.5446C307.808 99.5446 308.554 99.7405 309.192 100.132C309.829 100.524 310.324 101.074 310.676 101.783C311.028 102.492 311.205 103.319 311.205 104.265C311.205 105.207 311.028 106.03 310.676 106.735C310.324 107.439 309.829 107.988 309.192 108.379C308.554 108.771 307.808 108.967 306.953 108.967ZM306.959 107.477C307.513 107.477 307.973 107.331 308.337 107.038C308.701 106.745 308.97 106.355 309.144 105.868C309.322 105.381 309.411 104.845 309.411 104.259C309.411 103.677 309.322 103.143 309.144 102.656C308.97 102.165 308.701 101.771 308.337 101.474C307.973 101.177 307.513 101.029 306.959 101.029C306.401 101.029 305.938 101.177 305.57 101.474C305.206 101.771 304.935 102.165 304.757 102.656C304.582 103.143 304.495 103.677 304.495 104.259C304.495 104.845 304.582 105.381 304.757 105.868C304.935 106.355 305.206 106.745 305.57 107.038C305.938 107.331 306.401 107.477 306.959 107.477ZM313.186 112.203V99.6633H314.92V101.142H315.068C315.171 100.952 315.32 100.732 315.514 100.483C315.708 100.233 315.977 100.016 316.321 99.8296C316.665 99.6396 317.121 99.5446 317.687 99.5446C318.423 99.5446 319.08 99.7306 319.658 100.103C320.236 100.475 320.689 101.011 321.018 101.712C321.35 102.412 321.516 103.255 321.516 104.241C321.516 105.227 321.352 106.072 321.024 106.776C320.695 107.477 320.244 108.017 319.67 108.397C319.096 108.773 318.441 108.961 317.705 108.961C317.15 108.961 316.697 108.868 316.345 108.682C315.997 108.496 315.723 108.279 315.526 108.029C315.328 107.78 315.175 107.558 315.068 107.364H314.961V112.203H313.186ZM314.926 104.223C314.926 104.865 315.019 105.427 315.205 105.909C315.391 106.392 315.66 106.77 316.012 107.044C316.365 107.313 316.796 107.447 317.307 107.447C317.837 107.447 318.28 107.307 318.637 107.026C318.993 106.741 319.262 106.355 319.444 105.868C319.63 105.381 319.723 104.833 319.723 104.223C319.723 103.622 319.632 103.081 319.45 102.602C319.272 102.123 319.003 101.745 318.643 101.468C318.286 101.191 317.841 101.053 317.307 101.053C316.792 101.053 316.357 101.185 316.001 101.451C315.648 101.716 315.381 102.086 315.199 102.561C315.017 103.036 314.926 103.59 314.926 104.223ZM327.93 108.783V99.6633H329.706V108.783H327.93ZM328.827 98.2562C328.518 98.2562 328.253 98.1533 328.031 97.9474C327.813 97.7376 327.705 97.4883 327.705 97.1993C327.705 96.9064 327.813 96.657 328.031 96.4512C328.253 96.2414 328.518 96.1365 328.827 96.1365C329.136 96.1365 329.399 96.2414 329.616 96.4512C329.838 96.657 329.949 96.9064 329.949 97.1993C329.949 97.4883 329.838 97.7376 329.616 97.9474C329.399 98.1533 329.136 98.2562 328.827 98.2562ZM336.351 99.6633V101.088H331.369V99.6633H336.351ZM332.705 97.4784H334.481V106.105C334.481 106.45 334.532 106.709 334.635 106.883C334.738 107.053 334.871 107.17 335.033 107.234C335.199 107.293 335.379 107.323 335.573 107.323C335.716 107.323 335.84 107.313 335.947 107.293C336.054 107.273 336.137 107.257 336.197 107.245L336.517 108.712C336.414 108.752 336.268 108.791 336.078 108.831C335.888 108.874 335.65 108.898 335.365 108.902C334.898 108.91 334.463 108.827 334.059 108.653C333.655 108.478 333.329 108.209 333.079 107.845C332.83 107.481 332.705 107.024 332.705 106.474V97.4784ZM344.515 103.368V108.783H342.74V96.6234H344.491V101.148H344.604C344.818 100.657 345.144 100.267 345.584 99.978C346.023 99.6891 346.597 99.5446 347.305 99.5446C347.931 99.5446 348.477 99.6732 348.944 99.9305C349.415 100.188 349.779 100.572 350.037 101.082C350.298 101.589 350.429 102.222 350.429 102.982V108.783H348.653V103.196C348.653 102.527 348.481 102.009 348.137 101.64C347.792 101.268 347.313 101.082 346.7 101.082C346.28 101.082 345.904 101.171 345.572 101.35C345.243 101.528 344.984 101.789 344.794 102.133C344.608 102.474 344.515 102.885 344.515 103.368ZM356.728 108.967C355.83 108.967 355.056 108.775 354.407 108.391C353.761 108.003 353.263 107.459 352.91 106.759C352.562 106.054 352.388 105.229 352.388 104.283C352.388 103.348 352.562 102.525 352.91 101.813C353.263 101.1 353.754 100.544 354.383 100.144C355.016 99.7445 355.756 99.5446 356.603 99.5446C357.118 99.5446 357.617 99.6297 358.1 99.7999C358.583 99.9701 359.016 100.237 359.4 100.601C359.784 100.966 360.087 101.439 360.308 102.02C360.53 102.598 360.641 103.301 360.641 104.128V104.758H353.391V103.428H358.901C358.901 102.961 358.806 102.547 358.616 102.187C358.426 101.823 358.159 101.536 357.815 101.326C357.474 101.116 357.075 101.011 356.615 101.011C356.117 101.011 355.681 101.134 355.309 101.379C354.941 101.621 354.656 101.937 354.454 102.329C354.256 102.717 354.157 103.139 354.157 103.594V104.633C354.157 105.243 354.264 105.761 354.478 106.189C354.696 106.616 354.998 106.943 355.386 107.168C355.774 107.39 356.227 107.501 356.746 107.501C357.082 107.501 357.389 107.453 357.666 107.358C357.943 107.259 358.183 107.113 358.385 106.919C358.587 106.725 358.741 106.485 358.848 106.2L360.528 106.503C360.394 106.998 360.152 107.431 359.804 107.804C359.459 108.172 359.026 108.459 358.503 108.664C357.985 108.866 357.393 108.967 356.728 108.967ZM362.611 108.783V99.6633H364.327V101.112H364.422C364.588 100.621 364.881 100.235 365.3 99.9543C365.724 99.6693 366.203 99.5268 366.737 99.5268C366.848 99.5268 366.979 99.5307 367.129 99.5387C367.283 99.5466 367.404 99.5565 367.491 99.5683V101.266C367.42 101.247 367.293 101.225 367.111 101.201C366.929 101.173 366.747 101.16 366.565 101.16C366.145 101.16 365.771 101.249 365.443 101.427C365.118 101.601 364.861 101.844 364.671 102.157C364.481 102.466 364.386 102.818 364.386 103.214V108.783H362.611ZM372.632 108.967C371.733 108.967 370.959 108.775 370.31 108.391C369.665 108.003 369.166 107.459 368.814 106.759C368.465 106.054 368.291 105.229 368.291 104.283C368.291 103.348 368.465 102.525 368.814 101.813C369.166 101.1 369.657 100.544 370.286 100.144C370.92 99.7445 371.66 99.5446 372.507 99.5446C373.021 99.5446 373.52 99.6297 374.003 99.7999C374.486 99.9701 374.919 100.237 375.303 100.601C375.687 100.966 375.99 101.439 376.212 102.02C376.433 102.598 376.544 103.301 376.544 104.128V104.758H369.295V103.428H374.805C374.805 102.961 374.71 102.547 374.52 102.187C374.33 101.823 374.062 101.536 373.718 101.326C373.378 101.116 372.978 101.011 372.519 101.011C372.02 101.011 371.585 101.134 371.212 101.379C370.844 101.621 370.559 101.937 370.357 102.329C370.16 102.717 370.061 103.139 370.061 103.594V104.633C370.061 105.243 370.167 105.761 370.381 106.189C370.599 106.616 370.902 106.943 371.29 107.168C371.678 107.39 372.131 107.501 372.649 107.501C372.986 107.501 373.293 107.453 373.57 107.358C373.847 107.259 374.086 107.113 374.288 106.919C374.49 106.725 374.644 106.485 374.751 106.2L376.431 106.503C376.297 106.998 376.055 107.431 375.707 107.804C375.363 108.172 374.929 108.459 374.407 108.664C373.888 108.866 373.297 108.967 372.632 108.967Z" fill="#292D32"/>
<path d="M69.764 135.143V124.605H73.5204C74.3402 124.605 75.0195 124.754 75.5581 125.052C76.0967 125.351 76.4997 125.759 76.7673 126.277C77.0349 126.792 77.1687 127.371 77.1687 128.016C77.1687 128.665 77.0332 129.248 76.7622 129.766C76.4946 130.28 76.0898 130.689 75.5478 130.99C75.0092 131.289 74.3317 131.438 73.5152 131.438H70.932V130.09H73.3711C73.8891 130.09 74.3094 130.001 74.6318 129.822C74.9543 129.641 75.191 129.394 75.3419 129.081C75.4929 128.769 75.5684 128.414 75.5684 128.016C75.5684 127.618 75.4929 127.265 75.3419 126.956C75.191 126.647 74.9526 126.406 74.6267 126.231C74.3042 126.056 73.8788 125.968 73.3505 125.968H71.354V135.143H69.764ZM80.4478 124.605V135.143H78.9092V124.605H80.4478ZM85.9242 135.303C85.1455 135.303 84.4748 135.136 83.9122 134.803C83.353 134.467 82.9208 133.996 82.6155 133.388C82.3136 132.778 82.1626 132.062 82.1626 131.243C82.1626 130.433 82.3136 129.719 82.6155 129.102C82.9208 128.484 83.3462 128.002 83.8916 127.656C84.4405 127.31 85.082 127.136 85.8161 127.136C86.2621 127.136 86.6943 127.21 87.1129 127.358C87.5314 127.505 87.907 127.737 88.2398 128.052C88.5725 128.368 88.835 128.778 89.0271 129.282C89.2192 129.783 89.3152 130.392 89.3152 131.109V131.654H83.0323V130.502H87.8075C87.8075 130.097 87.7252 129.738 87.5605 129.426C87.3959 129.111 87.1643 128.862 86.8659 128.68C86.5708 128.498 86.2244 128.407 85.8264 128.407C85.3942 128.407 85.0168 128.514 84.6944 128.726C84.3753 128.936 84.1283 129.21 83.9534 129.55C83.7818 129.886 83.6961 130.251 83.6961 130.646V131.546C83.6961 132.074 83.7887 132.524 83.974 132.894C84.1626 133.265 84.4251 133.548 84.7613 133.743C85.0974 133.936 85.4902 134.032 85.9396 134.032C86.2312 134.032 86.4971 133.99 86.7372 133.908C86.9774 133.822 87.1849 133.695 87.3599 133.527C87.5348 133.359 87.6686 133.152 87.7612 132.905L89.2175 133.167C89.1008 133.596 88.8916 133.972 88.5897 134.294C88.2912 134.613 87.9156 134.862 87.4628 135.04C87.0134 135.215 86.5005 135.303 85.9242 135.303ZM93.3225 135.318C92.8217 135.318 92.3688 135.225 91.964 135.04C91.5592 134.851 91.2385 134.579 91.0018 134.222C90.7685 133.865 90.6519 133.428 90.6519 132.91C90.6519 132.464 90.7376 132.097 90.9091 131.809C91.0807 131.52 91.3122 131.292 91.6038 131.124C91.8954 130.956 92.2213 130.829 92.5815 130.743C92.9417 130.658 93.3088 130.593 93.6827 130.548C94.1561 130.493 94.5403 130.448 94.8354 130.414C95.1304 130.376 95.3448 130.316 95.4786 130.234C95.6124 130.152 95.6793 130.018 95.6793 129.833V129.797C95.6793 129.347 95.5523 128.999 95.2985 128.752C95.048 128.505 94.6741 128.382 94.1767 128.382C93.6587 128.382 93.2505 128.496 92.952 128.726C92.657 128.953 92.4529 129.205 92.3397 129.483L90.8937 129.153C91.0652 128.673 91.3157 128.285 91.645 127.99C91.9777 127.692 92.3602 127.476 92.7925 127.342C93.2247 127.205 93.6793 127.136 94.1561 127.136C94.4717 127.136 94.8062 127.174 95.1595 127.249C95.5163 127.322 95.8491 127.455 96.1578 127.651C96.47 127.846 96.7256 128.126 96.9245 128.49C97.1235 128.85 97.223 129.318 97.223 129.894V135.143H95.7204V134.062H95.6587C95.5592 134.261 95.41 134.457 95.211 134.649C95.012 134.841 94.7565 135.001 94.4443 135.128C94.1321 135.255 93.7582 135.318 93.3225 135.318ZM93.657 134.083C94.0824 134.083 94.446 133.999 94.7479 133.831C95.0532 133.663 95.2848 133.443 95.4426 133.172C95.6038 132.898 95.6844 132.604 95.6844 132.292V131.273C95.6295 131.328 95.5232 131.38 95.3654 131.428C95.211 131.472 95.0343 131.512 94.8354 131.546C94.6364 131.577 94.4426 131.606 94.2539 131.634C94.0652 131.658 93.9074 131.678 93.7805 131.695C93.482 131.733 93.2093 131.797 92.9623 131.886C92.7187 131.975 92.5232 132.104 92.3757 132.272C92.2316 132.436 92.1596 132.656 92.1596 132.93C92.1596 133.311 92.3002 133.599 92.5815 133.795C92.8628 133.987 93.2213 134.083 93.657 134.083ZM105.195 129.169L103.801 129.416C103.742 129.237 103.65 129.068 103.523 128.906C103.399 128.745 103.231 128.613 103.018 128.51C102.806 128.407 102.54 128.356 102.221 128.356C101.785 128.356 101.421 128.454 101.13 128.649C100.838 128.841 100.693 129.09 100.693 129.395C100.693 129.659 100.79 129.872 100.986 130.033C101.181 130.195 101.497 130.327 101.933 130.43L103.188 130.718C103.915 130.886 104.457 131.145 104.814 131.495C105.171 131.845 105.349 132.299 105.349 132.858C105.349 133.332 105.212 133.754 104.938 134.124C104.667 134.491 104.288 134.779 103.801 134.989C103.317 135.198 102.756 135.303 102.118 135.303C101.233 135.303 100.511 135.114 99.9515 134.737C99.3924 134.356 99.0493 133.815 98.9224 133.116L100.409 132.889C100.502 133.277 100.693 133.57 100.981 133.769C101.269 133.965 101.644 134.062 102.108 134.062C102.612 134.062 103.015 133.958 103.317 133.749C103.619 133.536 103.77 133.277 103.77 132.972C103.77 132.725 103.677 132.517 103.492 132.349C103.31 132.181 103.03 132.054 102.653 131.968L101.315 131.675C100.578 131.507 100.032 131.239 99.6788 130.872C99.3289 130.505 99.1539 130.04 99.1539 129.478C99.1539 129.011 99.2843 128.603 99.545 128.253C99.8057 127.903 100.166 127.63 100.626 127.435C101.085 127.236 101.612 127.136 102.205 127.136C103.06 127.136 103.732 127.322 104.222 127.692C104.713 128.059 105.037 128.551 105.195 129.169ZM110.448 135.303C109.669 135.303 108.998 135.136 108.436 134.803C107.876 134.467 107.444 133.996 107.139 133.388C106.837 132.778 106.686 132.062 106.686 131.243C106.686 130.433 106.837 129.719 107.139 129.102C107.444 128.484 107.87 128.002 108.415 127.656C108.964 127.31 109.605 127.136 110.34 127.136C110.785 127.136 111.218 127.21 111.636 127.358C112.055 127.505 112.43 127.737 112.763 128.052C113.096 128.368 113.358 128.778 113.55 129.282C113.743 129.783 113.839 130.392 113.839 131.109V131.654H107.556V130.502H112.331C112.331 130.097 112.249 129.738 112.084 129.426C111.919 129.111 111.688 128.862 111.389 128.68C111.094 128.498 110.748 128.407 110.35 128.407C109.918 128.407 109.54 128.514 109.218 128.726C108.899 128.936 108.652 129.21 108.477 129.55C108.305 129.886 108.219 130.251 108.219 130.646V131.546C108.219 132.074 108.312 132.524 108.497 132.894C108.686 133.265 108.948 133.548 109.285 133.743C109.621 133.936 110.014 134.032 110.463 134.032C110.755 134.032 111.02 133.99 111.261 133.908C111.501 133.822 111.708 133.695 111.883 133.527C112.058 133.359 112.192 133.152 112.285 132.905L113.741 133.167C113.624 133.596 113.415 133.972 113.113 134.294C112.815 134.613 112.439 134.862 111.986 135.04C111.537 135.215 111.024 135.303 110.448 135.303ZM124.387 131.865V127.239H125.931V135.143H124.418V133.774H124.336C124.154 134.196 123.863 134.548 123.461 134.829C123.063 135.107 122.568 135.246 121.974 135.246C121.466 135.246 121.017 135.134 120.626 134.912C120.238 134.685 119.933 134.351 119.71 133.908C119.49 133.466 119.381 132.918 119.381 132.267V127.239H120.919V132.081C120.919 132.62 121.068 133.049 121.367 133.368C121.665 133.687 122.053 133.846 122.53 133.846C122.818 133.846 123.104 133.774 123.389 133.63C123.677 133.486 123.916 133.268 124.104 132.977C124.297 132.685 124.391 132.315 124.387 131.865ZM127.998 138.107V127.239H129.501V128.52H129.63C129.719 128.356 129.847 128.165 130.016 127.949C130.184 127.733 130.417 127.545 130.715 127.383C131.014 127.219 131.408 127.136 131.899 127.136C132.537 127.136 133.106 127.298 133.607 127.62C134.108 127.942 134.501 128.407 134.786 129.014C135.074 129.622 135.218 130.352 135.218 131.207C135.218 132.061 135.076 132.793 134.791 133.404C134.506 134.011 134.115 134.479 133.618 134.809C133.12 135.134 132.552 135.297 131.914 135.297C131.434 135.297 131.041 135.217 130.736 135.056C130.434 134.894 130.197 134.706 130.026 134.49C129.854 134.273 129.722 134.081 129.63 133.913H129.537V138.107H127.998ZM129.506 131.191C129.506 131.747 129.587 132.234 129.748 132.653C129.909 133.071 130.143 133.399 130.448 133.635C130.753 133.869 131.127 133.985 131.57 133.985C132.029 133.985 132.414 133.863 132.722 133.62C133.031 133.373 133.264 133.038 133.422 132.617C133.583 132.195 133.664 131.719 133.664 131.191C133.664 130.67 133.585 130.201 133.427 129.786C133.273 129.371 133.04 129.044 132.727 128.803C132.419 128.563 132.033 128.443 131.57 128.443C131.124 128.443 130.746 128.558 130.438 128.788C130.132 129.018 129.901 129.339 129.743 129.75C129.585 130.162 129.506 130.642 129.506 131.191ZM138.48 124.605V135.143H136.942V124.605H138.48ZM143.88 135.303C143.139 135.303 142.492 135.133 141.94 134.793C141.387 134.454 140.958 133.978 140.653 133.368C140.348 132.757 140.195 132.044 140.195 131.227C140.195 130.407 140.348 129.69 140.653 129.076C140.958 128.462 141.387 127.985 141.94 127.646C142.492 127.306 143.139 127.136 143.88 127.136C144.621 127.136 145.267 127.306 145.819 127.646C146.372 127.985 146.801 128.462 147.106 129.076C147.411 129.69 147.564 130.407 147.564 131.227C147.564 132.044 147.411 132.757 147.106 133.368C146.801 133.978 146.372 134.454 145.819 134.793C145.267 135.133 144.621 135.303 143.88 135.303ZM143.885 134.011C144.365 134.011 144.763 133.884 145.079 133.63C145.394 133.376 145.627 133.038 145.778 132.617C145.933 132.195 146.01 131.73 146.01 131.222C146.01 130.718 145.933 130.255 145.778 129.833C145.627 129.407 145.394 129.066 145.079 128.809C144.763 128.551 144.365 128.423 143.885 128.423C143.401 128.423 143 128.551 142.681 128.809C142.365 129.066 142.13 129.407 141.976 129.833C141.825 130.255 141.749 130.718 141.749 131.222C141.749 131.73 141.825 132.195 141.976 132.617C142.13 133.038 142.365 133.376 142.681 133.63C143 133.884 143.401 134.011 143.885 134.011ZM151.581 135.318C151.081 135.318 150.628 135.225 150.223 135.04C149.818 134.851 149.497 134.579 149.261 134.222C149.027 133.865 148.911 133.428 148.911 132.91C148.911 132.464 148.997 132.097 149.168 131.809C149.34 131.52 149.571 131.292 149.863 131.124C150.154 130.956 150.48 130.829 150.84 130.743C151.201 130.658 151.568 130.593 151.942 130.548C152.415 130.493 152.799 130.448 153.094 130.414C153.389 130.376 153.604 130.316 153.738 130.234C153.871 130.152 153.938 130.018 153.938 129.833V129.797C153.938 129.347 153.811 128.999 153.557 128.752C153.307 128.505 152.933 128.382 152.436 128.382C151.918 128.382 151.509 128.496 151.211 128.726C150.916 128.953 150.712 129.205 150.599 129.483L149.153 129.153C149.324 128.673 149.575 128.285 149.904 127.99C150.237 127.692 150.619 127.476 151.051 127.342C151.484 127.205 151.938 127.136 152.415 127.136C152.731 127.136 153.065 127.174 153.418 127.249C153.775 127.322 154.108 127.455 154.417 127.651C154.729 127.846 154.985 128.126 155.183 128.49C155.382 128.85 155.482 129.318 155.482 129.894V135.143H153.979V134.062H153.918C153.818 134.261 153.669 134.457 153.47 134.649C153.271 134.841 153.015 135.001 152.703 135.128C152.391 135.255 152.017 135.318 151.581 135.318ZM151.916 134.083C152.341 134.083 152.705 133.999 153.007 133.831C153.312 133.663 153.544 133.443 153.702 133.172C153.863 132.898 153.943 132.604 153.943 132.292V131.273C153.888 131.328 153.782 131.38 153.624 131.428C153.47 131.472 153.293 131.512 153.094 131.546C152.895 131.577 152.702 131.606 152.513 131.634C152.324 131.658 152.166 131.678 152.039 131.695C151.741 131.733 151.468 131.797 151.221 131.886C150.978 131.975 150.782 132.104 150.635 132.272C150.491 132.436 150.419 132.656 150.419 132.93C150.419 133.311 150.559 133.599 150.84 133.795C151.122 133.987 151.48 134.083 151.916 134.083ZM160.49 135.297C159.852 135.297 159.283 135.134 158.782 134.809C158.284 134.479 157.893 134.011 157.608 133.404C157.327 132.793 157.186 132.061 157.186 131.207C157.186 130.352 157.329 129.622 157.614 129.014C157.902 128.407 158.296 127.942 158.797 127.62C159.298 127.298 159.866 127.136 160.5 127.136C160.991 127.136 161.385 127.219 161.684 127.383C161.986 127.545 162.219 127.733 162.384 127.949C162.552 128.165 162.682 128.356 162.775 128.52H162.867V124.605H164.406V135.143H162.903V133.913H162.775C162.682 134.081 162.548 134.273 162.373 134.49C162.202 134.706 161.965 134.894 161.663 135.056C161.361 135.217 160.97 135.297 160.49 135.297ZM160.83 133.985C161.272 133.985 161.646 133.869 161.951 133.635C162.26 133.399 162.493 133.071 162.651 132.653C162.812 132.234 162.893 131.747 162.893 131.191C162.893 130.642 162.814 130.162 162.656 129.75C162.499 129.339 162.267 129.018 161.962 128.788C161.656 128.558 161.279 128.443 160.83 128.443C160.367 128.443 159.981 128.563 159.672 128.803C159.363 129.044 159.13 129.371 158.972 129.786C158.818 130.201 158.74 130.67 158.74 131.191C158.74 131.719 158.819 132.195 158.977 132.617C159.135 133.038 159.368 133.373 159.677 133.62C159.989 133.863 160.373 133.985 160.83 133.985ZM173.766 135.303C173.025 135.303 172.378 135.133 171.826 134.793C171.274 134.454 170.845 133.978 170.54 133.368C170.234 132.757 170.082 132.044 170.082 131.227C170.082 130.407 170.234 129.69 170.54 129.076C170.845 128.462 171.274 127.985 171.826 127.646C172.378 127.306 173.025 127.136 173.766 127.136C174.507 127.136 175.154 127.306 175.706 127.646C176.258 127.985 176.687 128.462 176.992 129.076C177.298 129.69 177.45 130.407 177.45 131.227C177.45 132.044 177.298 132.757 176.992 133.368C176.687 133.978 176.258 134.454 175.706 134.793C175.154 135.133 174.507 135.303 173.766 135.303ZM173.771 134.011C174.252 134.011 174.649 133.884 174.965 133.63C175.281 133.376 175.514 133.038 175.665 132.617C175.819 132.195 175.896 131.73 175.896 131.222C175.896 130.718 175.819 130.255 175.665 129.833C175.514 129.407 175.281 129.066 174.965 128.809C174.649 128.551 174.252 128.423 173.771 128.423C173.288 128.423 172.886 128.551 172.567 128.809C172.252 129.066 172.017 129.407 171.862 129.833C171.711 130.255 171.636 130.718 171.636 131.222C171.636 131.73 171.711 132.195 171.862 132.617C172.017 133.038 172.252 133.376 172.567 133.63C172.886 133.884 173.288 134.011 173.771 134.011ZM180.706 130.45V135.143H179.168V127.239H180.645V128.526H180.742C180.924 128.107 181.209 127.771 181.597 127.517C181.988 127.263 182.48 127.136 183.073 127.136C183.612 127.136 184.084 127.249 184.489 127.476C184.893 127.699 185.207 128.032 185.43 128.474C185.653 128.917 185.765 129.464 185.765 130.116V135.143H184.226V130.301C184.226 129.728 184.077 129.28 183.778 128.958C183.48 128.632 183.07 128.469 182.549 128.469C182.192 128.469 181.875 128.546 181.597 128.701C181.322 128.855 181.104 129.081 180.943 129.38C180.785 129.675 180.706 130.032 180.706 130.45ZM189.367 124.605V135.143H187.828V124.605H189.367ZM192.409 138.107C192.179 138.107 191.97 138.088 191.781 138.05C191.593 138.016 191.452 137.978 191.359 137.937L191.73 136.677C192.011 136.752 192.262 136.785 192.481 136.774C192.701 136.764 192.895 136.682 193.063 136.527C193.234 136.373 193.385 136.121 193.515 135.771L193.706 135.246L190.814 127.239H192.461L194.462 133.373H194.545L196.546 127.239H198.198L194.941 136.198C194.79 136.61 194.598 136.958 194.365 137.243C194.131 137.531 193.853 137.747 193.531 137.891C193.208 138.035 192.835 138.107 192.409 138.107ZM206.808 135.303C206.067 135.303 205.421 135.133 204.868 134.793C204.316 134.454 203.887 133.978 203.582 133.368C203.277 132.757 203.124 132.044 203.124 131.227C203.124 130.407 203.277 129.69 203.582 129.076C203.887 128.462 204.316 127.985 204.868 127.646C205.421 127.306 206.067 127.136 206.808 127.136C207.549 127.136 208.196 127.306 208.748 127.646C209.301 127.985 209.729 128.462 210.035 129.076C210.34 129.69 210.493 130.407 210.493 131.227C210.493 132.044 210.34 132.757 210.035 133.368C209.729 133.978 209.301 134.454 208.748 134.793C208.196 135.133 207.549 135.303 206.808 135.303ZM206.813 134.011C207.294 134.011 207.692 133.884 208.007 133.63C208.323 133.376 208.556 133.038 208.707 132.617C208.861 132.195 208.939 131.73 208.939 131.222C208.939 130.718 208.861 130.255 208.707 129.833C208.556 129.407 208.323 129.066 208.007 128.809C207.692 128.551 207.294 128.423 206.813 128.423C206.33 128.423 205.928 128.551 205.609 128.809C205.294 129.066 205.059 129.407 204.904 129.833C204.753 130.255 204.678 130.718 204.678 131.222C204.678 131.73 204.753 132.195 204.904 132.617C205.059 133.038 205.294 133.376 205.609 133.63C205.928 133.884 206.33 134.011 206.813 134.011ZM213.749 130.45V135.143H212.21V127.239H213.687V128.526H213.785C213.966 128.107 214.251 127.771 214.639 127.517C215.03 127.263 215.522 127.136 216.116 127.136C216.654 127.136 217.126 127.249 217.531 127.476C217.936 127.699 218.249 128.032 218.472 128.474C218.695 128.917 218.807 129.464 218.807 130.116V135.143H217.268V130.301C217.268 129.728 217.119 129.28 216.821 128.958C216.522 128.632 216.112 128.469 215.591 128.469C215.234 128.469 214.917 128.546 214.639 128.701C214.364 128.855 214.147 129.081 213.985 129.38C213.828 129.675 213.749 130.032 213.749 130.45ZM224.277 135.303C223.498 135.303 222.827 135.136 222.265 134.803C221.706 134.467 221.273 133.996 220.968 133.388C220.666 132.778 220.515 132.062 220.515 131.243C220.515 130.433 220.666 129.719 220.968 129.102C221.273 128.484 221.699 128.002 222.244 127.656C222.793 127.31 223.435 127.136 224.169 127.136C224.615 127.136 225.047 127.21 225.465 127.358C225.884 127.505 226.26 127.737 226.592 128.052C226.925 128.368 227.188 128.778 227.38 129.282C227.572 129.783 227.668 130.392 227.668 131.109V131.654H221.385V130.502H226.16C226.16 130.097 226.078 129.738 225.913 129.426C225.749 129.111 225.517 128.862 225.218 128.68C224.923 128.498 224.577 128.407 224.179 128.407C223.747 128.407 223.369 128.514 223.047 128.726C222.728 128.936 222.481 129.21 222.306 129.55C222.134 129.886 222.049 130.251 222.049 130.646V131.546C222.049 132.074 222.141 132.524 222.327 132.894C222.515 133.265 222.778 133.548 223.114 133.743C223.45 133.936 223.843 134.032 224.292 134.032C224.584 134.032 224.85 133.99 225.09 133.908C225.33 133.822 225.538 133.695 225.712 133.527C225.887 133.359 226.021 133.152 226.114 132.905L227.57 133.167C227.453 133.596 227.244 133.972 226.942 134.294C226.644 134.613 226.268 134.862 225.815 135.04C225.366 135.215 224.853 135.303 224.277 135.303ZM242.086 128.032H240.481C240.419 127.689 240.304 127.387 240.136 127.126C239.968 126.865 239.762 126.644 239.519 126.462C239.275 126.28 239.002 126.143 238.7 126.051C238.402 125.958 238.085 125.912 237.748 125.912C237.141 125.912 236.597 126.064 236.117 126.37C235.64 126.675 235.263 127.123 234.985 127.713C234.711 128.303 234.573 129.023 234.573 129.874C234.573 130.731 234.711 131.455 234.985 132.045C235.263 132.635 235.642 133.081 236.122 133.383C236.603 133.685 237.143 133.836 237.743 133.836C238.076 133.836 238.392 133.791 238.69 133.702C238.992 133.61 239.265 133.474 239.508 133.296C239.752 133.117 239.958 132.9 240.126 132.642C240.297 132.382 240.416 132.083 240.481 131.747L242.086 131.752C242.001 132.27 241.834 132.747 241.587 133.183C241.344 133.615 241.03 133.989 240.645 134.304C240.265 134.616 239.829 134.858 239.338 135.03C238.848 135.201 238.313 135.287 237.733 135.287C236.82 135.287 236.007 135.071 235.294 134.639C234.58 134.203 234.018 133.58 233.606 132.771C233.198 131.961 232.994 130.996 232.994 129.874C232.994 128.749 233.2 127.783 233.611 126.977C234.023 126.167 234.585 125.546 235.299 125.114C236.013 124.678 236.824 124.46 237.733 124.46C238.292 124.46 238.814 124.541 239.297 124.702C239.784 124.86 240.222 125.093 240.609 125.402C240.997 125.707 241.318 126.081 241.572 126.524C241.826 126.963 241.997 127.466 242.086 128.032ZM249.737 127.373C249.682 126.886 249.455 126.508 249.057 126.241C248.66 125.97 248.159 125.834 247.555 125.834C247.123 125.834 246.749 125.903 246.433 126.04C246.118 126.174 245.872 126.359 245.697 126.596C245.526 126.829 245.44 127.095 245.44 127.394C245.44 127.644 245.498 127.86 245.615 128.042C245.735 128.224 245.891 128.376 246.083 128.5C246.279 128.62 246.488 128.721 246.711 128.803C246.934 128.882 247.148 128.948 247.354 128.999L248.383 129.267C248.72 129.349 249.064 129.46 249.418 129.601C249.771 129.742 250.099 129.927 250.401 130.157C250.702 130.387 250.946 130.671 251.131 131.011C251.32 131.351 251.414 131.757 251.414 132.231C251.414 132.827 251.26 133.357 250.951 133.821C250.646 134.284 250.202 134.649 249.618 134.917C249.039 135.184 248.337 135.318 247.514 135.318C246.725 135.318 246.042 135.193 245.466 134.942C244.889 134.692 244.438 134.337 244.112 133.877C243.787 133.414 243.606 132.865 243.572 132.231H245.167C245.198 132.611 245.322 132.929 245.538 133.183C245.757 133.433 246.037 133.62 246.377 133.743C246.72 133.863 247.095 133.924 247.503 133.924C247.953 133.924 248.353 133.853 248.702 133.713C249.056 133.568 249.334 133.369 249.536 133.116C249.738 132.858 249.84 132.558 249.84 132.215C249.84 131.903 249.75 131.647 249.572 131.448C249.397 131.249 249.159 131.085 248.857 130.954C248.558 130.824 248.22 130.709 247.843 130.61L246.598 130.27C245.754 130.04 245.085 129.702 244.591 129.256C244.1 128.81 243.855 128.22 243.855 127.486C243.855 126.879 244.02 126.349 244.349 125.896C244.678 125.443 245.124 125.092 245.687 124.841C246.25 124.587 246.884 124.46 247.591 124.46C248.304 124.46 248.934 124.586 249.479 124.836C250.028 125.087 250.461 125.431 250.776 125.87C251.092 126.306 251.256 126.807 251.27 127.373H249.737ZM254.235 124.605L257.168 133.188H257.287L260.22 124.605H261.939L258.146 135.143H256.309L252.517 124.605H254.235ZM270.933 127.239V128.474H266.467V127.239H270.933ZM267.692 135.143V126.323C267.692 125.829 267.8 125.419 268.016 125.093C268.232 124.764 268.518 124.519 268.875 124.358C269.232 124.193 269.62 124.111 270.038 124.111C270.347 124.111 270.611 124.136 270.83 124.188C271.05 124.236 271.213 124.28 271.319 124.322L270.959 125.567C270.887 125.546 270.794 125.522 270.681 125.495C270.568 125.464 270.431 125.448 270.27 125.448C269.896 125.448 269.628 125.541 269.467 125.726C269.309 125.912 269.23 126.179 269.23 126.529V135.143H267.692ZM272.521 135.143V127.239H274.059V135.143H272.521ZM273.298 126.02C273.03 126.02 272.8 125.93 272.608 125.752C272.42 125.57 272.325 125.354 272.325 125.104C272.325 124.85 272.42 124.634 272.608 124.455C272.8 124.274 273.03 124.183 273.298 124.183C273.565 124.183 273.794 124.274 273.982 124.455C274.174 124.634 274.27 124.85 274.27 125.104C274.27 125.354 274.174 125.57 273.982 125.752C273.794 125.93 273.565 126.02 273.298 126.02ZM277.668 124.605V135.143H276.129V124.605H277.668ZM283.144 135.303C282.366 135.303 281.695 135.136 281.132 134.803C280.573 134.467 280.141 133.996 279.836 133.388C279.534 132.778 279.383 132.062 279.383 131.243C279.383 130.433 279.534 129.719 279.836 129.102C280.141 128.484 280.566 128.002 281.112 127.656C281.661 127.31 282.302 127.136 283.036 127.136C283.482 127.136 283.914 127.21 284.333 127.358C284.751 127.505 285.127 127.737 285.46 128.052C285.793 128.368 286.055 128.778 286.247 129.282C286.439 129.783 286.535 130.392 286.535 131.109V131.654H280.252V130.502H285.028C285.028 130.097 284.945 129.738 284.781 129.426C284.616 129.111 284.384 128.862 284.086 128.68C283.791 128.498 283.444 128.407 283.046 128.407C282.614 128.407 282.237 128.514 281.914 128.726C281.595 128.936 281.348 129.21 281.173 129.55C281.002 129.886 280.916 130.251 280.916 130.646V131.546C280.916 132.074 281.009 132.524 281.194 132.894C281.383 133.265 281.645 133.548 281.981 133.743C282.318 133.936 282.71 134.032 283.16 134.032C283.451 134.032 283.717 133.99 283.957 133.908C284.197 133.822 284.405 133.695 284.58 133.527C284.755 133.359 284.889 133.152 284.981 132.905L286.438 133.167C286.321 133.596 286.112 133.972 285.81 134.294C285.511 134.613 285.136 134.862 284.683 135.04C284.233 135.215 283.721 135.303 283.144 135.303ZM297.084 131.865V127.239H298.628V135.143H297.115V133.774H297.033C296.851 134.196 296.559 134.548 296.158 134.829C295.76 135.107 295.264 135.246 294.671 135.246C294.163 135.246 293.714 135.134 293.323 134.912C292.935 134.685 292.63 134.351 292.407 133.908C292.187 133.466 292.077 132.918 292.077 132.267V127.239H293.616V132.081C293.616 132.62 293.765 133.049 294.064 133.368C294.362 133.687 294.75 133.846 295.226 133.846C295.515 133.846 295.801 133.774 296.086 133.63C296.374 133.486 296.612 133.268 296.801 132.977C296.993 132.685 297.088 132.315 297.084 131.865ZM300.695 138.107V127.239H302.198V128.52H302.326C302.416 128.356 302.544 128.165 302.712 127.949C302.88 127.733 303.114 127.545 303.412 127.383C303.711 127.219 304.105 127.136 304.596 127.136C305.234 127.136 305.803 127.298 306.304 127.62C306.805 127.942 307.198 128.407 307.482 129.014C307.771 129.622 307.915 130.352 307.915 131.207C307.915 132.061 307.772 132.793 307.488 133.404C307.203 134.011 306.812 134.479 306.314 134.809C305.817 135.134 305.249 135.297 304.611 135.297C304.131 135.297 303.738 135.217 303.433 135.056C303.131 134.894 302.894 134.706 302.723 134.49C302.551 134.273 302.419 134.081 302.326 133.913H302.234V138.107H300.695ZM302.203 131.191C302.203 131.747 302.283 132.234 302.445 132.653C302.606 133.071 302.839 133.399 303.145 133.635C303.45 133.869 303.824 133.985 304.266 133.985C304.726 133.985 305.11 133.863 305.419 133.62C305.728 133.373 305.961 133.038 306.119 132.617C306.28 132.195 306.361 131.719 306.361 131.191C306.361 130.67 306.282 130.201 306.124 129.786C305.97 129.371 305.736 129.044 305.424 128.803C305.115 128.563 304.729 128.443 304.266 128.443C303.82 128.443 303.443 128.558 303.134 128.788C302.829 129.018 302.597 129.339 302.44 129.75C302.282 130.162 302.203 130.642 302.203 131.191ZM311.177 124.605V135.143H309.638V124.605H311.177ZM316.576 135.303C315.835 135.303 315.189 135.133 314.636 134.793C314.084 134.454 313.655 133.978 313.35 133.368C313.045 132.757 312.892 132.044 312.892 131.227C312.892 130.407 313.045 129.69 313.35 129.076C313.655 128.462 314.084 127.985 314.636 127.646C315.189 127.306 315.835 127.136 316.576 127.136C317.317 127.136 317.964 127.306 318.516 127.646C319.068 127.985 319.497 128.462 319.803 129.076C320.108 129.69 320.261 130.407 320.261 131.227C320.261 132.044 320.108 132.757 319.803 133.368C319.497 133.978 319.068 134.454 318.516 134.793C317.964 135.133 317.317 135.303 316.576 135.303ZM316.581 134.011C317.062 134.011 317.46 133.884 317.775 133.63C318.091 133.376 318.324 133.038 318.475 132.617C318.629 132.195 318.707 131.73 318.707 131.222C318.707 130.718 318.629 130.255 318.475 129.833C318.324 129.407 318.091 129.066 317.775 128.809C317.46 128.551 317.062 128.423 316.581 128.423C316.098 128.423 315.696 128.551 315.377 128.809C315.062 129.066 314.827 129.407 314.672 129.833C314.521 130.255 314.446 130.718 314.446 131.222C314.446 131.73 314.521 132.195 314.672 132.617C314.827 133.038 315.062 133.376 315.377 133.63C315.696 133.884 316.098 134.011 316.581 134.011ZM324.278 135.318C323.777 135.318 323.324 135.225 322.92 135.04C322.515 134.851 322.194 134.579 321.957 134.222C321.724 133.865 321.607 133.428 321.607 132.91C321.607 132.464 321.693 132.097 321.865 131.809C322.036 131.52 322.268 131.292 322.559 131.124C322.851 130.956 323.177 130.829 323.537 130.743C323.897 130.658 324.264 130.593 324.638 130.548C325.112 130.493 325.496 130.448 325.791 130.414C326.086 130.376 326.3 130.316 326.434 130.234C326.568 130.152 326.635 130.018 326.635 129.833V129.797C326.635 129.347 326.508 128.999 326.254 128.752C326.004 128.505 325.63 128.382 325.132 128.382C324.614 128.382 324.206 128.496 323.908 128.726C323.613 128.953 323.409 129.205 323.295 129.483L321.849 129.153C322.021 128.673 322.271 128.285 322.601 127.99C322.933 127.692 323.316 127.476 323.748 127.342C324.18 127.205 324.635 127.136 325.112 127.136C325.427 127.136 325.762 127.174 326.115 127.249C326.472 127.322 326.805 127.455 327.113 127.651C327.426 127.846 327.681 128.126 327.88 128.49C328.079 128.85 328.179 129.318 328.179 129.894V135.143H326.676V134.062H326.614C326.515 134.261 326.366 134.457 326.167 134.649C325.968 134.841 325.712 135.001 325.4 135.128C325.088 135.255 324.714 135.318 324.278 135.318ZM324.613 134.083C325.038 134.083 325.402 133.999 325.704 133.831C326.009 133.663 326.24 133.443 326.398 133.172C326.559 132.898 326.64 132.604 326.64 132.292V131.273C326.585 131.328 326.479 131.38 326.321 131.428C326.167 131.472 325.99 131.512 325.791 131.546C325.592 131.577 325.398 131.606 325.21 131.634C325.021 131.658 324.863 131.678 324.736 131.695C324.438 131.733 324.165 131.797 323.918 131.886C323.674 131.975 323.479 132.104 323.331 132.272C323.187 132.436 323.115 132.656 323.115 132.93C323.115 133.311 323.256 133.599 323.537 133.795C323.818 133.987 324.177 134.083 324.613 134.083ZM333.187 135.297C332.549 135.297 331.979 135.134 331.478 134.809C330.981 134.479 330.59 134.011 330.305 133.404C330.024 132.793 329.883 132.061 329.883 131.207C329.883 130.352 330.026 129.622 330.31 129.014C330.598 128.407 330.993 127.942 331.494 127.62C331.995 127.298 332.562 127.136 333.197 127.136C333.688 127.136 334.082 127.219 334.381 127.383C334.682 127.545 334.916 127.733 335.08 127.949C335.248 128.165 335.379 128.356 335.471 128.52H335.564V124.605H337.103V135.143H335.6V133.913H335.471C335.379 134.081 335.245 134.273 335.07 134.49C334.899 134.706 334.662 134.894 334.36 135.056C334.058 135.217 333.667 135.297 333.187 135.297ZM333.526 133.985C333.969 133.985 334.343 133.869 334.648 133.635C334.957 133.399 335.19 133.071 335.348 132.653C335.509 132.234 335.59 131.747 335.59 131.191C335.59 130.642 335.511 130.162 335.353 129.75C335.195 129.339 334.964 129.018 334.658 128.788C334.353 128.558 333.976 128.443 333.526 128.443C333.063 128.443 332.677 128.563 332.369 128.803C332.06 129.044 331.827 129.371 331.669 129.786C331.514 130.201 331.437 130.67 331.437 131.191C331.437 131.719 331.516 132.195 331.674 132.617C331.832 133.038 332.065 133.373 332.374 133.62C332.686 133.863 333.07 133.985 333.526 133.985ZM348.14 131.865V127.239H349.684V135.143H348.171V133.774H348.089C347.907 134.196 347.615 134.548 347.214 134.829C346.816 135.107 346.32 135.246 345.727 135.246C345.219 135.246 344.77 135.134 344.379 134.912C343.991 134.685 343.686 134.351 343.463 133.908C343.243 133.466 343.133 132.918 343.133 132.267V127.239H344.672V132.081C344.672 132.62 344.821 133.049 345.12 133.368C345.418 133.687 345.806 133.846 346.283 133.846C346.571 133.846 346.857 133.774 347.142 133.63C347.43 133.486 347.669 133.268 347.857 132.977C348.049 132.685 348.144 132.315 348.14 131.865ZM351.751 138.107V127.239H353.254V128.52H353.383C353.472 128.356 353.6 128.165 353.768 127.949C353.937 127.733 354.17 127.545 354.468 127.383C354.767 127.219 355.161 127.136 355.652 127.136C356.29 127.136 356.859 127.298 357.36 127.62C357.861 127.942 358.254 128.407 358.539 129.014C358.827 129.622 358.971 130.352 358.971 131.207C358.971 132.061 358.828 132.793 358.544 133.404C358.259 134.011 357.868 134.479 357.371 134.809C356.873 135.134 356.305 135.297 355.667 135.297C355.187 135.297 354.794 135.217 354.489 135.056C354.187 134.894 353.95 134.706 353.779 134.49C353.607 134.273 353.475 134.081 353.383 133.913H353.29V138.107H351.751ZM353.259 131.191C353.259 131.747 353.34 132.234 353.501 132.653C353.662 133.071 353.895 133.399 354.201 133.635C354.506 133.869 354.88 133.985 355.322 133.985C355.782 133.985 356.166 133.863 356.475 133.62C356.784 133.373 357.017 133.038 357.175 132.617C357.336 132.195 357.417 131.719 357.417 131.191C357.417 130.67 357.338 130.201 357.18 129.786C357.026 129.371 356.792 129.044 356.48 128.803C356.172 128.563 355.786 128.443 355.322 128.443C354.877 128.443 354.499 128.558 354.19 128.788C353.885 129.018 353.654 129.339 353.496 129.75C353.338 130.162 353.259 130.642 353.259 131.191ZM364.384 127.239V128.474H360.067V127.239H364.384ZM361.225 125.346H362.763V132.822C362.763 133.121 362.808 133.345 362.897 133.496C362.986 133.644 363.101 133.745 363.242 133.8C363.386 133.851 363.542 133.877 363.71 133.877C363.834 133.877 363.942 133.869 364.034 133.851C364.127 133.834 364.199 133.821 364.25 133.81L364.528 135.081C364.439 135.116 364.312 135.15 364.147 135.184C363.983 135.222 363.777 135.243 363.53 135.246C363.125 135.253 362.748 135.181 362.398 135.03C362.048 134.879 361.765 134.646 361.549 134.33C361.333 134.014 361.225 133.618 361.225 133.141V125.346ZM369.331 135.303C368.59 135.303 367.943 135.133 367.391 134.793C366.838 134.454 366.409 133.978 366.104 133.368C365.799 132.757 365.646 132.044 365.646 131.227C365.646 130.407 365.799 129.69 366.104 129.076C366.409 128.462 366.838 127.985 367.391 127.646C367.943 127.306 368.59 127.136 369.331 127.136C370.072 127.136 370.718 127.306 371.27 127.646C371.823 127.985 372.252 128.462 372.557 129.076C372.862 129.69 373.015 130.407 373.015 131.227C373.015 132.044 372.862 132.757 372.557 133.368C372.252 133.978 371.823 134.454 371.27 134.793C370.718 135.133 370.072 135.303 369.331 135.303ZM369.336 134.011C369.816 134.011 370.214 133.884 370.529 133.63C370.845 133.376 371.078 133.038 371.229 132.617C371.384 132.195 371.461 131.73 371.461 131.222C371.461 130.718 371.384 130.255 371.229 129.833C371.078 129.407 370.845 129.066 370.529 128.809C370.214 128.551 369.816 128.423 369.336 128.423C368.852 128.423 368.451 128.551 368.132 128.809C367.816 129.066 367.581 129.407 367.427 129.833C367.276 130.255 367.2 130.718 367.2 131.222C367.2 131.73 367.276 132.195 367.427 132.617C367.581 133.038 367.816 133.376 368.132 133.63C368.451 133.884 368.852 134.011 369.336 134.011ZM382.025 135.287C381.38 135.287 380.8 135.164 380.286 134.917C379.775 134.666 379.366 134.323 379.061 133.888C378.756 133.452 378.593 132.954 378.572 132.395H380.116C380.154 132.848 380.354 133.22 380.718 133.512C381.082 133.803 381.517 133.949 382.025 133.949C382.43 133.949 382.788 133.857 383.101 133.671C383.416 133.483 383.663 133.224 383.842 132.894C384.023 132.565 384.114 132.189 384.114 131.767C384.114 131.339 384.022 130.956 383.836 130.62C383.651 130.284 383.396 130.02 383.07 129.828C382.747 129.635 382.377 129.538 381.958 129.534C381.639 129.534 381.318 129.589 380.996 129.699C380.673 129.809 380.413 129.953 380.214 130.131L378.758 129.915L379.349 124.605H385.143V125.968H380.672L380.337 128.917H380.399C380.605 128.718 380.878 128.551 381.217 128.418C381.56 128.284 381.927 128.217 382.318 128.217C382.96 128.217 383.531 128.37 384.032 128.675C384.536 128.98 384.932 129.397 385.221 129.925C385.512 130.45 385.656 131.054 385.653 131.737C385.656 132.419 385.502 133.028 385.19 133.563C384.881 134.098 384.452 134.52 383.903 134.829C383.358 135.134 382.732 135.287 382.025 135.287ZM387.553 135.143V127.239H389.03V128.526H389.128C389.292 128.09 389.561 127.75 389.935 127.507C390.309 127.26 390.757 127.136 391.278 127.136C391.807 127.136 392.249 127.26 392.606 127.507C392.966 127.754 393.232 128.093 393.404 128.526H393.486C393.675 128.104 393.975 127.767 394.386 127.517C394.798 127.263 395.289 127.136 395.858 127.136C396.575 127.136 397.16 127.361 397.613 127.81C398.069 128.26 398.297 128.937 398.297 129.843V135.143H396.759V129.987C396.759 129.452 396.613 129.064 396.321 128.824C396.03 128.584 395.681 128.464 395.277 128.464C394.776 128.464 394.386 128.618 394.109 128.927C393.831 129.232 393.692 129.625 393.692 130.105V135.143H392.158V129.889C392.158 129.46 392.025 129.116 391.757 128.855C391.489 128.594 391.141 128.464 390.712 128.464C390.421 128.464 390.152 128.541 389.905 128.695C389.661 128.846 389.464 129.057 389.313 129.328C389.165 129.599 389.091 129.913 389.091 130.27V135.143H387.553ZM400.483 135.143V124.605H402.022V128.52H402.114C402.203 128.356 402.332 128.165 402.5 127.949C402.668 127.733 402.901 127.545 403.2 127.383C403.498 127.219 403.893 127.136 404.383 127.136C405.021 127.136 405.591 127.298 406.092 127.62C406.593 127.942 406.985 128.407 407.27 129.014C407.558 129.622 407.702 130.352 407.702 131.207C407.702 132.061 407.56 132.793 407.275 133.404C406.991 134.011 406.6 134.479 406.102 134.809C405.605 135.134 405.037 135.297 404.399 135.297C403.919 135.297 403.526 135.217 403.22 135.056C402.919 134.894 402.682 134.706 402.51 134.49C402.339 134.273 402.207 134.081 402.114 133.913H401.985V135.143H400.483ZM401.991 131.191C401.991 131.747 402.071 132.234 402.232 132.653C402.394 133.071 402.627 133.399 402.932 133.635C403.238 133.869 403.612 133.985 404.054 133.985C404.514 133.985 404.898 133.863 405.207 133.62C405.515 133.373 405.749 133.038 405.907 132.617C406.068 132.195 406.148 131.719 406.148 131.191C406.148 130.67 406.07 130.201 405.912 129.786C405.757 129.371 405.524 129.044 405.212 128.803C404.903 128.563 404.517 128.443 404.054 128.443C403.608 128.443 403.231 128.558 402.922 128.788C402.617 129.018 402.385 129.339 402.227 129.75C402.07 130.162 401.991 130.642 401.991 131.191Z" fill="#A9ACB4"/>
<rect x="174.686" y="163.564" width="127.627" height="36.7834" rx="8.35987" fill="white"/>
<rect x="174.686" y="163.564" width="127.627" height="36.7834" rx="8.35987" stroke="#CBD0DC" stroke-width="1.11465"/>
<path d="M193.955 187.956V175.796H198.408C199.271 175.796 199.985 175.938 200.551 176.223C201.117 176.504 201.541 176.886 201.822 177.369C202.103 177.848 202.243 178.388 202.243 178.99C202.243 179.497 202.15 179.924 201.964 180.273C201.778 180.617 201.529 180.894 201.216 181.104C200.907 181.31 200.567 181.46 200.195 181.555V181.674C200.599 181.694 200.992 181.824 201.376 182.066C201.764 182.303 202.085 182.642 202.338 183.081C202.592 183.52 202.718 184.055 202.718 184.684C202.718 185.306 202.572 185.864 202.279 186.358C201.99 186.849 201.543 187.239 200.937 187.528C200.331 187.813 199.558 187.956 198.615 187.956H193.955ZM195.789 186.382H198.437C199.316 186.382 199.945 186.212 200.325 185.872C200.705 185.531 200.895 185.106 200.895 184.595C200.895 184.211 200.798 183.859 200.604 183.538C200.411 183.218 200.133 182.962 199.773 182.772C199.417 182.582 198.993 182.487 198.503 182.487H195.789V186.382ZM195.789 181.056H198.247C198.659 181.056 199.029 180.977 199.358 180.819C199.69 180.66 199.953 180.439 200.147 180.154C200.345 179.865 200.444 179.524 200.444 179.133C200.444 178.63 200.268 178.208 199.916 177.868C199.563 177.527 199.023 177.357 198.295 177.357H195.789V181.056ZM204.752 187.956V178.836H206.468V180.284H206.563C206.729 179.794 207.022 179.408 207.441 179.127C207.865 178.842 208.344 178.699 208.878 178.699C208.989 178.699 209.12 178.703 209.27 178.711C209.425 178.719 209.545 178.729 209.632 178.741V180.439C209.561 180.419 209.434 180.397 209.252 180.373C209.07 180.346 208.888 180.332 208.706 180.332C208.287 180.332 207.912 180.421 207.584 180.599C207.259 180.773 207.002 181.017 206.812 181.329C206.622 181.638 206.527 181.99 206.527 182.386V187.956H204.752ZM214.684 188.14C213.829 188.14 213.082 187.944 212.445 187.552C211.808 187.16 211.313 186.612 210.961 185.907C210.609 185.203 210.432 184.379 210.432 183.437C210.432 182.491 210.609 181.664 210.961 180.955C211.313 180.247 211.808 179.697 212.445 179.305C213.082 178.913 213.829 178.717 214.684 178.717C215.539 178.717 216.285 178.913 216.922 179.305C217.559 179.697 218.054 180.247 218.406 180.955C218.759 181.664 218.935 182.491 218.935 183.437C218.935 184.379 218.759 185.203 218.406 185.907C218.054 186.612 217.559 187.16 216.922 187.552C216.285 187.944 215.539 188.14 214.684 188.14ZM214.69 186.649C215.244 186.649 215.703 186.503 216.067 186.21C216.431 185.917 216.7 185.527 216.874 185.04C217.053 184.553 217.142 184.017 217.142 183.431C217.142 182.849 217.053 182.315 216.874 181.828C216.7 181.337 216.431 180.943 216.067 180.647C215.703 180.35 215.244 180.201 214.69 180.201C214.131 180.201 213.668 180.35 213.3 180.647C212.936 180.943 212.665 181.337 212.487 181.828C212.313 182.315 212.225 182.849 212.225 183.431C212.225 184.017 212.313 184.553 212.487 185.04C212.665 185.527 212.936 185.917 213.3 186.21C213.668 186.503 214.131 186.649 214.69 186.649ZM222.616 187.956L219.932 178.836H221.767L223.554 185.533H223.643L225.436 178.836H227.271L229.052 185.503H229.141L230.916 178.836H232.751L230.073 187.956H228.262L226.41 181.371H226.273L224.421 187.956H222.616ZM241.27 181.062L239.661 181.347C239.593 181.141 239.487 180.945 239.34 180.759C239.198 180.573 239.004 180.421 238.758 180.302C238.513 180.183 238.206 180.124 237.838 180.124C237.335 180.124 236.916 180.237 236.579 180.463C236.243 180.684 236.075 180.971 236.075 181.323C236.075 181.628 236.187 181.874 236.413 182.06C236.639 182.246 237.003 182.398 237.505 182.517L238.954 182.849C239.793 183.043 240.419 183.342 240.83 183.746C241.242 184.15 241.448 184.674 241.448 185.319C241.448 185.866 241.29 186.352 240.973 186.78C240.66 187.203 240.223 187.536 239.661 187.777C239.103 188.019 238.455 188.14 237.719 188.14C236.698 188.14 235.865 187.922 235.22 187.487C234.574 187.047 234.179 186.424 234.032 185.616L235.748 185.355C235.855 185.802 236.075 186.141 236.407 186.37C236.74 186.596 237.173 186.709 237.707 186.709C238.289 186.709 238.754 186.588 239.103 186.347C239.451 186.101 239.625 185.802 239.625 185.45C239.625 185.165 239.518 184.926 239.305 184.732C239.095 184.538 238.772 184.391 238.337 184.292L236.793 183.954C235.942 183.76 235.313 183.451 234.905 183.028C234.501 182.604 234.299 182.068 234.299 181.418C234.299 180.88 234.45 180.409 234.751 180.005C235.051 179.602 235.467 179.287 235.997 179.061C236.528 178.832 237.135 178.717 237.82 178.717C238.806 178.717 239.582 178.931 240.148 179.358C240.714 179.782 241.088 180.35 241.27 181.062ZM247.33 188.14C246.432 188.14 245.658 187.948 245.009 187.564C244.364 187.176 243.865 186.632 243.513 185.931C243.164 185.226 242.99 184.401 242.99 183.455C242.99 182.521 243.164 181.698 243.513 180.985C243.865 180.273 244.356 179.716 244.985 179.317C245.618 178.917 246.359 178.717 247.206 178.717C247.72 178.717 248.219 178.802 248.702 178.972C249.185 179.142 249.618 179.41 250.002 179.774C250.386 180.138 250.689 180.611 250.911 181.193C251.132 181.771 251.243 182.473 251.243 183.301V183.93H243.994V182.6H249.504C249.504 182.133 249.409 181.719 249.219 181.359C249.029 180.995 248.761 180.708 248.417 180.498C248.077 180.288 247.677 180.183 247.218 180.183C246.719 180.183 246.283 180.306 245.911 180.552C245.543 180.793 245.258 181.11 245.056 181.502C244.858 181.89 244.76 182.311 244.76 182.766V183.805C244.76 184.415 244.866 184.933 245.08 185.361C245.298 185.788 245.601 186.115 245.989 186.341C246.376 186.562 246.83 186.673 247.348 186.673C247.685 186.673 247.991 186.626 248.269 186.531C248.546 186.432 248.785 186.285 248.987 186.091C249.189 185.897 249.343 185.658 249.45 185.373L251.13 185.676C250.996 186.17 250.754 186.604 250.406 186.976C250.062 187.344 249.628 187.631 249.106 187.837C248.587 188.039 247.995 188.14 247.33 188.14ZM257.78 187.956V175.796H265.321V177.375H259.615V181.08H264.78V182.653H259.615V187.956H257.78ZM267.434 187.956V178.836H269.21V187.956H267.434ZM268.331 177.429C268.022 177.429 267.757 177.326 267.535 177.12C267.318 176.91 267.209 176.661 267.209 176.372C267.209 176.079 267.318 175.829 267.535 175.624C267.757 175.414 268.022 175.309 268.331 175.309C268.64 175.309 268.903 175.414 269.121 175.624C269.342 175.829 269.453 176.079 269.453 176.372C269.453 176.661 269.342 176.91 269.121 177.12C268.903 177.326 268.64 177.429 268.331 177.429ZM273.373 175.796V187.956H271.598V175.796H273.373ZM279.692 188.14C278.794 188.14 278.02 187.948 277.371 187.564C276.726 187.176 276.227 186.632 275.875 185.931C275.526 185.226 275.352 184.401 275.352 183.455C275.352 182.521 275.526 181.698 275.875 180.985C276.227 180.273 276.718 179.716 277.347 179.317C277.98 178.917 278.721 178.717 279.568 178.717C280.082 178.717 280.581 178.802 281.064 178.972C281.547 179.142 281.98 179.41 282.364 179.774C282.748 180.138 283.051 180.611 283.273 181.193C283.494 181.771 283.605 182.473 283.605 183.301V183.93H276.355V182.6H281.865C281.865 182.133 281.77 181.719 281.58 181.359C281.39 180.995 281.123 180.708 280.779 180.498C280.438 180.288 280.039 180.183 279.579 180.183C279.081 180.183 278.645 180.306 278.273 180.552C277.905 180.793 277.62 181.11 277.418 181.502C277.22 181.89 277.121 182.311 277.121 182.766V183.805C277.121 184.415 277.228 184.933 277.442 185.361C277.66 185.788 277.963 186.115 278.35 186.341C278.738 186.562 279.192 186.673 279.71 186.673C280.047 186.673 280.353 186.626 280.63 186.531C280.907 186.432 281.147 186.285 281.349 186.091C281.551 185.897 281.705 185.658 281.812 185.373L283.492 185.676C283.358 186.17 283.116 186.604 282.768 186.976C282.423 187.344 281.99 187.631 281.468 187.837C280.949 188.039 280.357 188.14 279.692 188.14Z" fill="#54575C"/>
</svg>
