<svg width="41" height="41" viewBox="0 0 41 41" fill="none" xmlns="http://www.w3.org/2000/svg">
<path d="M20.5 36.0303C17.7046 36.0303 15.1162 35.3315 12.7349 33.9337C10.3536 32.536 8.46405 30.6465 7.06632 28.2652C5.66859 25.8839 4.96973 23.2955 4.96973 20.5C4.96973 17.7046 5.66859 15.1162 7.06632 12.7349C8.46405 10.3536 10.3536 8.46405 12.7349 7.06632C15.1162 5.66859 17.7046 4.96973 20.5 4.96973C23.2955 4.96973 25.8839 5.66859 28.2652 7.06632C30.6465 8.46405 32.536 10.3536 33.9337 12.7349C35.3315 15.1162 36.0303 17.7046 36.0303 20.5C36.0303 23.2955 35.3315 25.8839 33.9337 28.2652C32.536 30.6465 30.6465 32.536 28.2652 33.9337C25.8839 35.3315 23.2955 36.0303 20.5 36.0303ZM20.5 22.9849L25.4697 27.9546L27.9546 25.4697L22.9849 20.5L27.9546 15.5303L25.4697 13.0455L20.5 18.0152L15.5303 13.0455L13.0455 15.5303L18.0152 20.5L13.0455 25.4697L15.5303 27.9546L20.5 22.9849Z" fill="#FF1B1B"/>
</svg>
