<svg width="17" height="18" viewBox="0 0 17 18" fill="none" xmlns="http://www.w3.org/2000/svg">
<path d="M8.35429 16.6483C4.22312 16.6483 0.865234 13.2904 0.865234 9.15922C0.865234 5.02805 4.22312 1.67017 8.35429 1.67017C12.4855 1.67017 15.8433 5.02805 15.8433 9.15922C15.8433 13.2904 12.4855 16.6483 8.35429 16.6483ZM8.35429 2.71515C4.80134 2.71515 1.91022 5.60627 1.91022 9.15922C1.91022 12.7122 4.80134 15.6033 8.35429 15.6033C11.9072 15.6033 14.7984 12.7122 14.7984 9.15922C14.7984 5.60627 11.9072 2.71515 8.35429 2.71515Z" fill="#292D32"/>
<path d="M6.38208 11.6533C6.24971 11.6533 6.11735 11.6045 6.01285 11.5C5.81082 11.298 5.81082 10.9636 6.01285 10.7616L9.95592 6.81851C10.158 6.61648 10.4923 6.61648 10.6944 6.81851C10.8964 7.02055 10.8964 7.35494 10.6944 7.55697L6.75131 11.5C6.65377 11.6045 6.51444 11.6533 6.38208 11.6533Z" fill="#292D32"/>
<path d="M10.3252 11.6533C10.1928 11.6533 10.0604 11.6045 9.95592 11.5L6.01285 7.55697C5.81082 7.35494 5.81082 7.02055 6.01285 6.81851C6.21488 6.61648 6.54928 6.61648 6.75131 6.81851L10.6944 10.7616C10.8964 10.9636 10.8964 11.298 10.6944 11.5C10.5899 11.6045 10.4575 11.6533 10.3252 11.6533Z" fill="#292D32"/>
</svg>
