<svg width="45" height="45" viewBox="0 0 45 45" fill="none" xmlns="http://www.w3.org/2000/svg">
<rect x="0.5" y="0.5" width="44" height="44" rx="2.5" stroke="#C1922E"/>
<path d="M23.6 26.8816C23.446 27.05 23.2285 27.1458 23.0003 27.1458C22.7722 27.1458 22.5546 27.05 22.4007 26.8816L18.0674 22.142C17.7646 21.8109 17.7876 21.2969 18.1187 20.9941C18.4499 20.6913 18.9639 20.7143 19.2666 21.0455L22.1878 24.2406V12.25C22.1878 11.8013 22.5516 11.4375 23.0003 11.4375C23.449 11.4375 23.8128 11.8013 23.8128 12.25V24.2406L26.734 21.0455C27.0368 20.7143 27.5508 20.6913 27.8819 20.9941C28.2131 21.2969 28.2361 21.8109 27.9333 22.142L23.6 26.8816Z" fill="#C1922E"/>
<path d="M14.0625 25.25C14.0625 24.8013 13.6987 24.4375 13.25 24.4375C12.8013 24.4375 12.4375 24.8013 12.4375 25.25V25.3095C12.4375 26.791 12.4375 27.9852 12.5637 28.9244C12.6948 29.8996 12.9753 30.7205 13.6274 31.3726C14.2795 32.0247 15.1005 32.3052 16.0756 32.4363C17.0148 32.5625 18.209 32.5625 19.6906 32.5625H26.3095C27.791 32.5625 28.9852 32.5625 29.9244 32.4363C30.8996 32.3052 31.7205 32.0247 32.3727 31.3726C33.0247 30.7205 33.3052 29.8996 33.4363 28.9244C33.5625 27.9852 33.5625 26.791 33.5625 25.3095V25.25C33.5625 24.8013 33.1987 24.4375 32.75 24.4375C32.3013 24.4375 31.9375 24.8013 31.9375 25.25C31.9375 26.805 31.9358 27.8895 31.8258 28.7079C31.7189 29.5028 31.5235 29.9237 31.2236 30.2236C30.9237 30.5234 30.5028 30.7189 29.7079 30.8258C28.8895 30.9358 27.805 30.9375 26.25 30.9375H19.75C18.195 30.9375 17.1104 30.9358 16.2921 30.8258C15.4972 30.7189 15.0763 30.5234 14.7764 30.2236C14.4766 29.9237 14.2811 29.5028 14.1742 28.7079C14.0642 27.8895 14.0625 26.805 14.0625 25.25Z" fill="#C1922E"/>
</svg>
