<svg width="35" height="35" viewBox="0 0 35 35" fill="none" xmlns="http://www.w3.org/2000/svg">
<path d="M33.2717 6.79239L27.1109 0.631641C26.7036 0.224287 26.162 0 25.586 0H9.2796C8.39257 0 7.6709 0.721602 7.6709 1.60863V18.048C7.6709 18.3311 7.90045 18.5607 8.18359 18.5607C8.46674 18.5607 8.69629 18.3311 8.69629 18.048V1.60863C8.69629 1.287 8.95797 1.02539 9.2796 1.02539H25.586C25.6429 1.02539 25.6989 1.03093 25.7542 1.03913V6.54049C25.7542 7.42752 26.4759 8.14912 27.3628 8.14912H32.8642C32.8724 8.20442 32.8779 8.26041 32.8779 8.31735V33.3914C32.8779 33.713 32.6163 33.9746 32.2947 33.9746H9.2796C8.95797 33.9746 8.69629 33.7129 8.69629 33.3914C8.69629 33.1082 8.46674 32.8787 8.18359 32.8787C7.90045 32.8787 7.6709 33.1082 7.6709 33.3914C7.6709 34.2784 8.39257 35 9.2796 35H32.2946C33.1817 35 33.9033 34.2783 33.9033 33.3914V8.31735C33.9033 7.74129 33.679 7.19975 33.2717 6.79239ZM26.7796 6.54042V1.75048L32.1529 7.12373H27.3628C27.0413 7.12373 26.7796 6.86205 26.7796 6.54042Z" fill="#168400"/>
<path d="M22.9442 30.1036V21.3359C22.9442 20.4489 22.2226 19.7273 21.3356 19.7273H2.70434C1.8173 19.7273 1.0957 20.4489 1.0957 21.3359V30.1036C1.0957 30.9906 1.81737 31.7122 2.70434 31.7122H21.3355C22.2226 31.7122 22.9442 30.9906 22.9442 30.1036ZM2.12109 30.1036V21.3359C2.12109 21.0143 2.38277 20.7527 2.70434 20.7527H21.3355C21.6572 20.7527 21.9188 21.0144 21.9188 21.3359V30.1036C21.9188 30.4252 21.6571 30.6868 21.3355 30.6868H2.70434C2.38277 30.6868 2.12109 30.4252 2.12109 30.1036Z" fill="#168400"/>
<path d="M9.26035 27.0945C9.04352 26.9125 8.72011 26.9407 8.53807 27.1576C8.49356 27.2107 8.44558 27.2602 8.39554 27.3047C8.1383 27.5339 7.81113 27.6501 7.42319 27.6501C6.38639 27.6501 5.54297 26.8066 5.54297 25.7699C5.54297 24.7331 6.38645 23.8896 7.42319 23.8896C7.80006 23.8896 8.16346 24.0006 8.47408 24.2105C8.70876 24.3691 9.02745 24.3073 9.18598 24.0726C9.3445 23.838 9.28277 23.5193 9.04816 23.3608C8.56732 23.036 8.00548 22.8643 7.42319 22.8643C5.82099 22.8643 4.51758 24.1677 4.51758 25.7699C4.51758 27.372 5.82105 28.6755 7.42319 28.6755C8.06105 28.6755 8.63309 28.4663 9.07749 28.0705C9.16444 27.9931 9.24716 27.9077 9.32345 27.8169C9.50549 27.6 9.47719 27.2766 9.26035 27.0945Z" fill="#168400"/>
<path d="M13.041 25.3265C12.4395 25.1046 11.8804 24.8627 11.7235 24.7938C11.6017 24.7005 11.5429 24.5542 11.5656 24.3961C11.5801 24.2954 11.652 24.0497 12.0063 23.9429C12.7271 23.7259 13.3864 24.2504 13.4022 24.2631C13.6189 24.4433 13.9408 24.4148 14.1223 24.1987C14.3045 23.9819 14.2765 23.6585 14.0598 23.4763C14.016 23.4396 12.9741 22.5804 11.7106 22.9611C11.0821 23.1504 10.6377 23.6445 10.5506 24.2504C10.4694 24.8169 10.7148 25.3618 11.1912 25.6724C11.2139 25.6872 11.2376 25.7002 11.2624 25.7112C11.29 25.7235 11.9465 26.0157 12.6861 26.2886C13.1724 26.4679 13.421 26.7401 13.3683 27.0355C13.3143 27.3376 12.9553 27.6501 12.448 27.6501C11.9486 27.6501 11.4671 27.4479 11.1602 27.1091C10.9701 26.8993 10.6459 26.8833 10.436 27.0735C10.2262 27.2636 10.2102 27.5879 10.4004 27.7977C10.8985 28.3473 11.664 28.6755 12.4481 28.6755C13.4152 28.6755 14.2267 28.0616 14.3777 27.2157C14.4907 26.5824 14.1989 25.7537 13.041 25.3265Z" fill="#168400"/>
<path d="M19.3802 22.8991C19.1114 22.8098 18.8213 22.9553 18.732 23.224L17.5452 26.7964L16.2999 23.2087C16.2071 22.9412 15.9148 22.7997 15.6474 22.8925C15.38 22.9853 15.2384 23.2775 15.3312 23.545L16.9688 28.2626C17.0567 28.51 17.2914 28.6754 17.5536 28.6754H17.558C17.8219 28.6736 18.0564 28.5045 18.1425 28.2511L19.7051 23.5472C19.7944 23.2785 19.6489 22.9883 19.3802 22.8991Z" fill="#168400"/>
<path d="M24.623 27.3282H28.4589C29.3459 27.3282 30.0675 26.6065 30.0675 25.7196V11.4722C30.0675 10.5851 29.3458 9.86353 28.4589 9.86353H13.1155C12.2284 9.86353 11.5068 10.5851 11.5068 11.4722V18.0479C11.5068 18.3311 11.7364 18.5606 12.0195 18.5606C12.3027 18.5606 12.5322 18.3311 12.5322 18.0479V17.4647H16.4386V18.0479C16.4386 18.3311 16.6682 18.5606 16.9513 18.5606C17.2345 18.5606 17.464 18.3311 17.464 18.0479V17.4647H24.1103V26.8156C24.1103 27.0986 24.3399 27.3282 24.623 27.3282ZM29.0421 16.4392H25.1357V14.1767H29.0421V16.4392ZM29.0421 23.0149H25.1357V20.7524H29.0421V23.0149ZM28.4589 26.3028H25.1357V24.0403H29.0421V25.7195C29.0421 26.0412 28.7804 26.3028 28.4589 26.3028ZM29.0421 11.4722V13.1514H25.1357V10.8888H28.4589C28.7804 10.8888 29.0421 11.1505 29.0421 11.4722ZM24.1103 13.1513H17.464V10.8888H24.1103V13.1513ZM13.1155 10.8888H16.4386V13.1513H12.5322V11.4721C12.5322 11.1505 12.7939 10.8888 13.1155 10.8888ZM12.5322 16.4392V14.1767H16.4386V16.4392H12.5322ZM17.464 16.4392V14.1767H24.1103V16.4392H17.464ZM29.0421 17.4646V19.7271H25.1357V17.4646H29.0421Z" fill="#168400"/>
</svg>
