<svg width="42" height="42" viewBox="0 0 42 42" fill="none" xmlns="http://www.w3.org/2000/svg">
<circle cx="21" cy="21" r="21" fill="#C3922E"/>
<g clip-path="url(#clip0_149_10)">
<path fill-rule="evenodd" clip-rule="evenodd" d="M21 21C18.5618 21 16.5791 19.0266 16.5791 16.6C16.5791 14.1734 18.5618 12.2 21 12.2C23.4382 12.2 25.4209 14.1734 25.4209 16.6C25.4209 19.0266 23.4382 21 21 21ZM25.1535 21.7403C26.9075 20.3356 27.9298 18.064 27.5541 15.5769C27.1175 12.6916 24.7059 10.3828 21.7947 10.0462C17.7771 9.58087 14.3686 12.6939 14.3686 16.6C14.3686 18.679 15.3368 20.5314 16.8465 21.7403C13.1373 23.1274 10.4295 26.3845 10.0051 30.7801C9.9432 31.4302 10.4527 32 11.1092 32C11.6718 32 12.1515 31.5776 12.2012 31.0199C12.6444 26.1106 16.421 23.2 21 23.2C25.579 23.2 29.3556 26.1106 29.7988 31.0199C29.8485 31.5776 30.3282 32 30.8908 32C31.5473 32 32.0568 31.4302 31.9949 30.7801C31.5705 26.3845 28.8627 23.1274 25.1535 21.7403Z" fill="white"/>
</g>
<defs>
<clipPath id="clip0_149_10">
<rect width="22" height="22" fill="white" transform="translate(10 10)"/>
</clipPath>
</defs>
</svg>
