<svg width="22" height="22" viewBox="0 0 22 22" fill="none" xmlns="http://www.w3.org/2000/svg">
<path d="M20.9132 4.2695L17.0407 0.397031C16.7847 0.14098 16.4443 0 16.0822 0H5.83247C5.27491 0 4.82129 0.453578 4.82129 1.01114V11.3444C4.82129 11.5224 4.96558 11.6667 5.14355 11.6667C5.32153 11.6667 5.46582 11.5224 5.46582 11.3444V1.01114C5.46582 0.808973 5.6303 0.644531 5.83247 0.644531H16.0822C16.118 0.644531 16.1532 0.648012 16.1879 0.653168V4.11116C16.1879 4.66873 16.6416 5.1223 17.1991 5.1223H20.6571C20.6622 5.15707 20.6657 5.19226 20.6657 5.22805V20.9889C20.6657 21.191 20.5012 21.3555 20.2991 21.3555H5.83247C5.6303 21.3555 5.46582 21.191 5.46582 20.9889C5.46582 20.8109 5.32153 20.6666 5.14355 20.6666C4.96558 20.6666 4.82129 20.8109 4.82129 20.9889C4.82129 21.5464 5.27491 22 5.83247 22H20.2991C20.8566 22 21.3102 21.5464 21.3102 20.9889V5.22805C21.3102 4.86595 21.1692 4.52555 20.9132 4.2695ZM16.8325 4.11112V1.1003L20.2099 4.47777H17.1991C16.997 4.47777 16.8325 4.31329 16.8325 4.11112Z" fill="white"/>
<path d="M14.4218 18.9221V13.411C14.4218 12.8535 13.9682 12.3999 13.4107 12.3999H1.69962C1.14205 12.3999 0.688477 12.8535 0.688477 13.411V18.9221C0.688477 19.4797 1.1421 19.9333 1.69962 19.9333H13.4107C13.9682 19.9333 14.4218 19.4797 14.4218 18.9221ZM1.33301 18.9221V13.411C1.33301 13.2089 1.49749 13.0444 1.69962 13.0444H13.4107C13.6128 13.0444 13.7773 13.2089 13.7773 13.411V18.9221C13.7773 19.1243 13.6128 19.2887 13.4107 19.2887H1.69962C1.49749 19.2887 1.33301 19.1243 1.33301 18.9221Z" fill="white"/>
<path d="M5.82102 17.0309C5.68472 16.9164 5.48143 16.9342 5.36701 17.0705C5.33904 17.1039 5.30887 17.135 5.27742 17.163C5.11573 17.307 4.91008 17.3801 4.66623 17.3801C4.01452 17.3801 3.48438 16.8499 3.48438 16.1982C3.48438 15.5465 4.01457 15.0164 4.66623 15.0164C4.90312 15.0164 5.13154 15.0861 5.32679 15.218C5.4743 15.3177 5.67462 15.2789 5.77427 15.1314C5.87391 14.9839 5.83511 14.7836 5.68764 14.684C5.3854 14.4798 5.03224 14.3718 4.66623 14.3718C3.65913 14.3718 2.83984 15.1912 2.83984 16.1982C2.83984 17.2053 3.65917 18.0246 4.66623 18.0246C5.06717 18.0246 5.42673 17.8931 5.70607 17.6443C5.76073 17.5956 5.81272 17.542 5.86068 17.4849C5.9751 17.3486 5.95731 17.1453 5.82102 17.0309Z" fill="white"/>
<path d="M8.19738 15.9194C7.81929 15.7799 7.46785 15.6279 7.36928 15.5846C7.29267 15.526 7.25576 15.434 7.27002 15.3346C7.27909 15.2713 7.32429 15.1168 7.547 15.0497C8.00006 14.9133 8.4145 15.243 8.42447 15.251C8.56068 15.3643 8.76297 15.3463 8.8771 15.2105C8.99161 15.0743 8.97399 14.871 8.83778 14.7565C8.81028 14.7333 8.15535 14.1933 7.36112 14.4326C6.96606 14.5516 6.68672 14.8622 6.63202 15.243C6.58093 15.5991 6.73519 15.9416 7.03468 16.1369C7.04895 16.1462 7.06386 16.1543 7.07942 16.1612C7.09677 16.169 7.50945 16.3527 7.97433 16.5242C8.27996 16.6369 8.43624 16.808 8.40311 16.9936C8.36917 17.1836 8.14354 17.38 7.82467 17.38C7.51074 17.38 7.20811 17.2529 7.01518 17.0399C6.89568 16.908 6.69188 16.898 6.55997 17.0175C6.42809 17.137 6.41804 17.3409 6.53758 17.4727C6.85069 17.8182 7.33186 18.0245 7.82471 18.0245C8.43259 18.0245 8.94271 17.6386 9.03763 17.1069C9.10861 16.7089 8.92522 16.1879 8.19738 15.9194Z" fill="white"/>
<path d="M12.1821 14.3939C12.0131 14.3377 11.8308 14.4292 11.7747 14.5981L11.0287 16.8436L10.246 14.5885C10.1876 14.4204 10.0039 14.3314 9.83582 14.3897C9.66768 14.4481 9.57869 14.6317 9.63704 14.7999L10.6664 17.7652C10.7217 17.9207 10.8692 18.0247 11.034 18.0247H11.0367C11.2026 18.0236 11.35 17.9172 11.4041 17.758L12.3864 14.8013C12.4425 14.6324 12.351 14.4499 12.1821 14.3939Z" fill="white"/>
<path d="M15.4769 17.1777H17.888C18.4455 17.1777 18.8991 16.7241 18.8991 16.1666V7.21109C18.8991 6.65353 18.4455 6.19995 17.888 6.19995H8.24356C7.686 6.19995 7.23242 6.65353 7.23242 7.21109V11.3444C7.23242 11.5224 7.37671 11.6667 7.55469 11.6667C7.73266 11.6667 7.87695 11.5224 7.87695 11.3444V10.9778H10.3324V11.3444C10.3324 11.5224 10.4767 11.6667 10.6547 11.6667C10.8326 11.6667 10.9769 11.5224 10.9769 11.3444V10.9778H15.1546V16.8555C15.1546 17.0334 15.2989 17.1777 15.4769 17.1777ZM18.2546 10.3332H15.7991V8.91111H18.2546V10.3332ZM18.2546 14.4665H15.7991V13.0444H18.2546V14.4665ZM17.888 16.5332H15.7991V15.1111H18.2546V16.1666C18.2546 16.3688 18.0901 16.5332 17.888 16.5332ZM18.2546 7.21109V8.26662H15.7991V6.84444H17.888C18.0901 6.84444 18.2546 7.00892 18.2546 7.21109ZM15.1546 8.26658H10.9769V6.84444H15.1546V8.26658ZM8.24356 6.84444H10.3324V8.26658H7.87695V7.21105C7.87695 7.00892 8.04144 6.84444 8.24356 6.84444ZM7.87695 10.3332V8.91111H10.3324V10.3332H7.87695ZM10.9769 10.3332V8.91111H15.1546V10.3332H10.9769ZM18.2546 10.9778V12.3999H15.7991V10.9778H18.2546Z" fill="white"/>
</svg>
