<svg width="19" height="19" viewBox="0 0 19 19" fill="none" xmlns="http://www.w3.org/2000/svg">
<g clip-path="url(#clip0_3813_16920)">
<path d="M9.50033 5.54175C9.06491 5.54175 8.70866 5.1855 8.70866 4.75008V1.58341C8.70866 1.148 9.06491 0.791748 9.50033 0.791748C9.93574 0.791748 10.292 1.148 10.292 1.58341V4.75008C10.292 5.1855 9.93574 5.54175 9.50033 5.54175ZM9.50033 18.2084C9.06491 18.2084 8.70866 17.8522 8.70866 17.4167V14.2501C8.70866 13.8147 9.06491 13.4584 9.50033 13.4584C9.93574 13.4584 10.292 13.8147 10.292 14.2501V17.4167C10.292 17.8522 9.93574 18.2084 9.50033 18.2084ZM17.417 10.2917H14.2503C13.8149 10.2917 13.4587 9.9355 13.4587 9.50008C13.4587 9.06466 13.8149 8.70841 14.2503 8.70841H17.417C17.8524 8.70841 18.2087 9.06466 18.2087 9.50008C18.2087 9.9355 17.8524 10.2917 17.417 10.2917ZM4.75033 10.2917H1.58366C1.14824 10.2917 0.791992 9.9355 0.791992 9.50008C0.791992 9.06466 1.14824 8.70841 1.58366 8.70841H4.75033C5.18574 8.70841 5.54199 9.06466 5.54199 9.50008C5.54199 9.9355 5.18574 10.2917 4.75033 10.2917ZM15.0974 15.8888C14.8916 15.8888 14.6937 15.8097 14.5353 15.6592L12.2949 13.4188C12.2216 13.3455 12.1635 13.2585 12.1238 13.1628C12.0841 13.067 12.0637 12.9644 12.0637 12.8607C12.0637 12.7571 12.0841 12.6544 12.1238 12.5587C12.1635 12.4629 12.2216 12.3759 12.2949 12.3026C12.3682 12.2293 12.4552 12.1711 12.551 12.1315C12.6467 12.0918 12.7494 12.0714 12.853 12.0714C12.9567 12.0714 13.0593 12.0918 13.1551 12.1315C13.2509 12.1711 13.3379 12.2293 13.4112 12.3026L15.6516 14.543C15.762 14.6536 15.8372 14.7944 15.8674 14.9478C15.8977 15.1011 15.8816 15.26 15.8214 15.4042C15.7612 15.5484 15.6594 15.6715 15.5291 15.7578C15.3988 15.8441 15.2458 15.8897 15.0895 15.8888H15.0974ZM6.14366 6.93508C5.93783 6.93508 5.73991 6.85591 5.58158 6.7055L3.34116 4.46508C3.26786 4.39179 3.20972 4.30477 3.17006 4.20901C3.13039 4.11325 3.10998 4.01061 3.10998 3.90696C3.10998 3.8033 3.13039 3.70066 3.17006 3.6049C3.20972 3.50914 3.26786 3.42213 3.34116 3.34883C3.41445 3.27554 3.50147 3.2174 3.59723 3.17773C3.69299 3.13806 3.79563 3.11765 3.89928 3.11765C4.00294 3.11765 4.10558 3.13806 4.20134 3.17773C4.2971 3.2174 4.38411 3.27554 4.45741 3.34883L6.69783 5.58925C6.8083 5.69981 6.88343 5.8407 6.91367 5.99404C6.9439 6.14738 6.92789 6.30625 6.86766 6.45047C6.80742 6.59469 6.70569 6.71776 6.57537 6.80404C6.44505 6.89033 6.29203 6.93594 6.13574 6.93508H6.14366ZM3.90324 15.8888C3.69741 15.8888 3.49949 15.8097 3.34116 15.6592C3.26777 15.586 3.20954 15.499 3.16982 15.4032C3.13009 15.3075 3.10964 15.2048 3.10964 15.1011C3.10964 14.9974 3.13009 14.8948 3.16982 14.799C3.20954 14.7032 3.26777 14.6162 3.34116 14.543L5.58158 12.3026C5.65487 12.2293 5.74188 12.1711 5.83765 12.1315C5.93341 12.0918 6.03605 12.0714 6.1397 12.0714C6.24335 12.0714 6.34599 12.0918 6.44176 12.1315C6.53752 12.1711 6.62453 12.2293 6.69783 12.3026C6.77112 12.3759 6.82926 12.4629 6.86893 12.5587C6.90859 12.6544 6.92901 12.7571 6.92901 12.8607C6.92901 12.9644 6.90859 13.067 6.86893 13.1628C6.82926 13.2585 6.77112 13.3455 6.69783 13.4188L4.45741 15.6592C4.29908 15.8176 4.10116 15.8888 3.89533 15.8888H3.90324ZM12.857 6.93508C12.6512 6.93508 12.4532 6.85591 12.2949 6.7055C12.2215 6.63226 12.1633 6.54526 12.1236 6.44949C12.0838 6.35372 12.0634 6.25106 12.0634 6.14737C12.0634 6.04369 12.0838 5.94102 12.1236 5.84525C12.1633 5.74948 12.2215 5.66249 12.2949 5.58925L14.5353 3.34883C14.6086 3.27554 14.6956 3.2174 14.7914 3.17773C14.8872 3.13806 14.9898 3.11765 15.0935 3.11765C15.1971 3.11765 15.2997 3.13806 15.3955 3.17773C15.4913 3.2174 15.5783 3.27554 15.6516 3.34883C15.7249 3.42213 15.783 3.50914 15.8227 3.6049C15.8623 3.70066 15.8828 3.8033 15.8828 3.90696C15.8828 4.01061 15.8623 4.11325 15.8227 4.20901C15.783 4.30477 15.7249 4.39179 15.6516 4.46508L13.4112 6.7055C13.2528 6.86383 13.0549 6.93508 12.8491 6.93508H12.857Z" fill="#C1922E"/>
</g>
<defs>
<clipPath id="clip0_3813_16920">
<rect width="19" height="19" fill="white"/>
</clipPath>
</defs>
</svg>
