<svg width="53" height="53" viewBox="0 0 53 53" fill="none" xmlns="http://www.w3.org/2000/svg">
<circle cx="26.7167" cy="26.3725" r="25.6369" fill="white" stroke="#CBD0DC" stroke-width="1.11465"/>
<path d="M21.8671 34.2132H19.8161C16.6756 33.9888 15.2656 31.5747 15.2656 29.4276C15.2656 27.2805 16.6756 24.8557 19.7627 24.642C20.2007 24.5993 20.5852 24.9411 20.6173 25.3898C20.6493 25.8277 20.3182 26.2123 19.8696 26.2443C17.7973 26.3939 16.8679 27.9535 16.8679 29.4383C16.8679 30.9231 17.7973 32.4827 19.8696 32.6322H21.8671C22.3051 32.6322 22.6683 32.9954 22.6683 33.4334C22.6683 33.8713 22.3051 34.2132 21.8671 34.2132Z" fill="#292D32"/>
<path d="M31.7052 34.2131C31.6838 34.2131 31.6732 34.2131 31.6518 34.2131C31.2138 34.2131 30.8079 33.8499 30.8079 33.4119C30.8079 32.9526 31.1498 32.6108 31.5984 32.6108C32.9123 32.6108 34.0873 32.1514 35.006 31.3289C36.6724 29.8762 36.7792 27.7825 36.3305 26.3084C35.8819 24.8449 34.6321 23.1678 32.4529 22.9008C32.1004 22.8581 31.8227 22.591 31.7586 22.2385C31.3313 19.6748 29.9534 17.9016 27.8597 17.2607C25.7019 16.5877 23.1809 17.25 21.6106 18.895C20.0831 20.4866 19.7306 22.7192 20.6172 25.1761C20.7668 25.5927 20.5532 26.052 20.1366 26.2015C19.72 26.3511 19.2606 26.1374 19.1111 25.7208C18.0322 22.7085 18.5236 19.8244 20.457 17.7948C22.4332 15.7224 25.6058 14.8999 28.3297 15.7331C30.8293 16.5022 32.5918 18.5639 33.2327 21.4267C35.4119 21.918 37.1637 23.5738 37.8581 25.8597C38.6165 28.3486 37.9328 30.9123 36.0635 32.536C34.8778 33.6042 33.3289 34.2131 31.7052 34.2131Z" fill="#292D32"/>
<path d="M26.7174 37.3537C24.5703 37.3537 22.5621 36.2107 21.4618 34.3627C21.3443 34.1811 21.2268 33.9675 21.1307 33.7325C20.7675 32.9741 20.5752 32.1088 20.5752 31.2115C20.5752 27.8253 23.3312 25.0693 26.7174 25.0693C30.1036 25.0693 32.8596 27.8253 32.8596 31.2115C32.8596 32.1195 32.6673 32.9741 32.2828 33.7645C32.1973 33.9675 32.0798 34.1811 31.9516 34.3841C30.8727 36.2107 28.8645 37.3537 26.7174 37.3537ZM26.7174 26.6716C24.2178 26.6716 22.1775 28.7119 22.1775 31.2115C22.1775 31.8738 22.3164 32.4934 22.5834 33.0595C22.6689 33.2411 22.7436 33.3907 22.8291 33.5295C23.6409 34.9075 25.1257 35.7514 26.7067 35.7514C28.2876 35.7514 29.7724 34.9075 30.5736 33.5509C30.6697 33.3907 30.7552 33.2411 30.8193 33.0916C31.1077 32.504 31.2466 31.8845 31.2466 31.2222C31.2572 28.7119 29.217 26.6716 26.7174 26.6716Z" fill="#292D32"/>
<path d="M26.108 33.0701C25.905 33.0701 25.7021 32.9953 25.5419 32.8351L24.4843 31.7776C24.1745 31.4678 24.1745 30.9551 24.4843 30.6453C24.7941 30.3355 25.3068 30.3355 25.6166 30.6453L26.1294 31.158L27.8385 29.5771C28.1696 29.278 28.6717 29.2993 28.9708 29.6198C29.2699 29.9403 29.2485 30.453 28.9281 30.7521L26.6528 32.8565C26.4925 32.9953 26.3003 33.0701 26.108 33.0701Z" fill="#292D32"/>
</svg>
