<svg width="384" height="360" viewBox="0 0 384 360" fill="none" xmlns="http://www.w3.org/2000/svg">
<path d="M87.4011 68.0541L89.3893 69.877C89.6626 70.1281 90.0901 70.1099 90.3411 69.8357C90.5932 69.5614 90.5751 69.1349 90.2998 68.8829L88.3125 67.0599C88.0383 66.8079 87.6108 66.827 87.3597 67.1013C87.1076 67.3755 87.1258 67.802 87.4011 68.0541ZM92.0401 72.3079L94.0284 74.1309C94.3026 74.3819 94.7291 74.3638 94.9802 74.0895C95.2322 73.8143 95.2141 73.3878 94.9388 73.1367L92.9515 71.3138C92.6773 71.0617 92.2498 71.0799 91.9987 71.3551C91.7467 71.6294 91.7648 72.0559 92.0401 72.3079ZM96.6791 76.5608L98.6674 78.3837C98.9416 78.6358 99.3681 78.6176 99.6192 78.3424C99.8713 78.0681 99.8531 77.6416 99.5779 77.3896L97.5906 75.5666C97.3163 75.3156 96.8888 75.3337 96.6378 75.608C96.3857 75.8832 96.4049 76.3097 96.6791 76.5608ZM101.318 80.8146L103.306 82.6376C103.581 82.8896 104.007 82.8705 104.259 82.5962C104.51 82.322 104.492 81.8955 104.218 81.6434L102.23 79.8205C101.955 79.5684 101.529 79.5876 101.277 79.8618C101.026 80.1361 101.044 80.5626 101.318 80.8146ZM105.957 85.0685L107.945 86.8914C108.22 87.1425 108.646 87.1244 108.898 86.8501C109.149 86.5749 109.131 86.1484 108.857 85.8973L106.869 84.0744C106.594 83.8223 106.168 83.8404 105.916 84.1157C105.665 84.3899 105.683 84.8164 105.957 85.0685ZM110.596 89.3214L112.584 91.1443C112.859 91.3964 113.285 91.3782 113.537 91.103C113.788 90.8287 113.77 90.4022 113.496 90.1502L111.508 88.3272C111.233 88.0762 110.807 88.0943 110.555 88.3685C110.304 88.6438 110.322 89.0703 110.596 89.3214ZM115.235 93.5752L117.223 95.3982C117.498 95.6502 117.924 95.6311 118.176 95.3568C118.427 95.0826 118.409 94.6561 118.135 94.404L116.147 92.5811C115.872 92.329 115.446 92.3482 115.194 92.6224C114.943 92.8967 114.961 93.3232 115.235 93.5752ZM119.874 97.8291L121.862 99.652C122.137 99.9031 122.563 99.8849 122.815 99.6107C123.066 99.3364 123.048 98.9089 122.774 98.6579L120.786 96.8349C120.511 96.5829 120.085 96.602 119.833 96.8763C119.582 97.1505 119.6 97.577 119.874 97.8291ZM124.513 102.082L126.502 103.906C126.776 104.157 127.202 104.139 127.454 103.865C127.705 103.589 127.687 103.163 127.413 102.912L125.425 101.089C125.15 100.837 124.724 100.855 124.472 101.129C124.221 101.404 124.239 101.831 124.513 102.082ZM129.153 106.336L131.141 108.159C131.415 108.411 131.842 108.392 132.093 108.117C132.345 107.843 132.326 107.417 132.052 107.165L130.064 105.342C129.789 105.091 129.363 105.109 129.111 105.383C128.86 105.657 128.878 106.085 129.153 106.336Z" fill="white"/>
<path d="M153.884 50.8078V53.5049C153.884 53.877 154.187 54.1795 154.559 54.1795C154.931 54.1795 155.233 53.877 155.233 53.5049V50.8078C155.233 50.4348 154.931 50.1333 154.559 50.1333C154.187 50.1333 153.884 50.4348 153.884 50.8078ZM153.884 57.1014V59.7985C153.884 60.1716 154.187 60.473 154.559 60.473C154.931 60.473 155.233 60.1716 155.233 59.7985V57.1014C155.233 56.7294 154.931 56.4269 154.559 56.4269C154.187 56.4269 153.884 56.7294 153.884 57.1014ZM153.884 63.395V66.0921C153.884 66.4651 154.187 66.7666 154.559 66.7666C154.931 66.7666 155.233 66.4651 155.233 66.0921V63.395C155.233 63.0219 154.931 62.7205 154.559 62.7205C154.187 62.7205 153.884 63.0219 153.884 63.395ZM153.884 69.6886V72.3867C153.884 72.7587 154.187 73.0602 154.559 73.0602C154.931 73.0602 155.233 72.7587 155.233 72.3867V69.6886C155.233 69.3165 154.931 69.014 154.559 69.014C154.187 69.014 153.884 69.3165 153.884 69.6886ZM153.884 75.9832V78.6803C153.884 79.0523 154.187 79.3548 154.559 79.3548C154.931 79.3548 155.233 79.0523 155.233 78.6803V75.9832C155.233 75.6101 154.931 75.3086 154.559 75.3086C154.187 75.3086 153.884 75.6101 153.884 75.9832ZM153.884 82.2767V84.9738C153.884 85.3469 154.187 85.6484 154.559 85.6484C154.931 85.6484 155.233 85.3469 155.233 84.9738V82.2767C155.233 81.9047 154.931 81.6022 154.559 81.6022C154.187 81.6022 153.884 81.9047 153.884 82.2767ZM153.884 88.5703V91.2684C153.884 91.6405 154.187 91.943 154.559 91.943C154.931 91.943 155.233 91.6405 155.233 91.2684V88.5703C155.233 88.1983 154.931 87.8968 154.559 87.8968C154.187 87.8968 153.884 88.1983 153.884 88.5703ZM153.884 94.8649V97.562C153.884 97.9341 154.187 98.2365 154.559 98.2365C154.931 98.2365 155.233 97.9341 155.233 97.562V94.8649C155.233 94.4918 154.931 94.1904 154.559 94.1904C154.187 94.1904 153.884 94.4918 153.884 94.8649ZM153.884 101.158V103.856C153.884 104.229 154.187 104.53 154.559 104.53C154.931 104.53 155.233 104.229 155.233 103.856V101.158C155.233 100.786 154.931 100.484 154.559 100.484C154.187 100.484 153.884 100.786 153.884 101.158Z" fill="white"/>
<path d="M241.111 52.5153V55.2135C241.111 55.5855 241.412 55.887 241.785 55.887C242.157 55.887 242.459 55.5855 242.459 55.2135V52.5153C242.459 52.1433 242.157 51.8408 241.785 51.8408C241.412 51.8408 241.111 52.1433 241.111 52.5153ZM241.111 58.8099V61.507C241.111 61.8791 241.412 62.1806 241.785 62.1806C242.157 62.1806 242.459 61.8791 242.459 61.507V58.8099C242.459 58.4369 242.157 58.1354 241.785 58.1354C241.412 58.1354 241.111 58.4369 241.111 58.8099ZM241.111 65.1035V67.8006C241.111 68.1727 241.412 68.4752 241.785 68.4752C242.157 68.4752 242.459 68.1727 242.459 67.8006V65.1035C242.459 64.7305 242.157 64.429 241.785 64.429C241.412 64.429 241.111 64.7305 241.111 65.1035ZM241.111 71.3971V74.0942C241.111 74.4673 241.412 74.7687 241.785 74.7687C242.157 74.7687 242.459 74.4673 242.459 74.0942V71.3971C242.459 71.025 242.157 70.7226 241.785 70.7226C241.412 70.7226 241.111 71.025 241.111 71.3971ZM241.111 77.6907V80.3888C241.111 80.7608 241.412 81.0623 241.785 81.0623C242.157 81.0623 242.459 80.7608 242.459 80.3888V77.6907C242.459 77.3186 242.157 77.0172 241.785 77.0172C241.412 77.0172 241.111 77.3186 241.111 77.6907ZM241.111 83.9853V86.6824C241.111 87.0544 241.412 87.3569 241.785 87.3569C242.157 87.3569 242.459 87.0544 242.459 86.6824V83.9853C242.459 83.6122 242.157 83.3107 241.785 83.3107C241.412 83.3107 241.111 83.6122 241.111 83.9853ZM241.111 90.2788V92.977C241.111 93.349 241.412 93.6505 241.785 93.6505C242.157 93.6505 242.459 93.349 242.459 92.977V90.2788C242.459 89.9068 242.157 89.6043 241.785 89.6043C241.412 89.6043 241.111 89.9068 241.111 90.2788ZM241.111 96.5734V99.2705C241.111 99.6426 241.412 99.9451 241.785 99.9451C242.157 99.9451 242.459 99.6426 242.459 99.2705V96.5734C242.459 96.2004 242.157 95.8989 241.785 95.8989C241.412 95.8989 241.111 96.2004 241.111 96.5734Z" fill="white"/>
<path d="M301.748 72.1685L299.685 73.9067C299.401 74.1467 299.364 74.5722 299.604 74.8565C299.844 75.1419 300.27 75.1782 300.554 74.9382L302.617 73.1999C302.902 72.96 302.938 72.5345 302.699 72.2491C302.458 71.9648 302.032 71.9285 301.748 72.1685ZM296.935 76.2247L294.873 77.962C294.587 78.2029 294.551 78.6274 294.791 78.9128C295.032 79.1971 295.456 79.2334 295.742 78.9934L297.804 77.2552C298.089 77.0152 298.124 76.5897 297.885 76.3054C297.644 76.0201 297.219 75.9848 296.935 76.2247ZM292.122 80.28L290.059 82.0182C289.775 82.2582 289.739 82.6837 289.979 82.969C290.218 83.2533 290.644 83.2896 290.928 83.0497L292.991 81.3114C293.276 81.0715 293.312 80.646 293.072 80.3616C292.832 80.0763 292.406 80.04 292.122 80.28ZM287.309 84.3362L285.247 86.0745C284.961 86.3144 284.926 86.7399 285.165 87.0242C285.406 87.3096 285.832 87.3459 286.116 87.1059L288.178 85.3677C288.463 85.1277 288.499 84.7022 288.259 84.4169C288.018 84.1325 287.594 84.0962 287.309 84.3362ZM282.496 88.3915L280.433 90.1297C280.149 90.3697 280.113 90.7951 280.353 91.0805C280.593 91.3648 281.018 91.4011 281.302 91.1611L283.365 89.4229C283.65 89.1829 283.686 88.7575 283.446 88.4731C283.206 88.1878 282.781 88.1515 282.496 88.3915ZM277.684 92.4477L275.621 94.1859C275.336 94.4259 275.3 94.8514 275.539 95.1357C275.78 95.4211 276.206 95.4574 276.49 95.2174L278.552 93.4792C278.837 93.2392 278.874 92.8137 278.634 92.5294C278.394 92.244 277.968 92.2077 277.684 92.4477ZM272.87 96.5039L270.808 98.2422C270.523 98.4822 270.487 98.9076 270.727 99.192C270.967 99.4773 271.392 99.5136 271.677 99.2736L273.739 97.5354C274.025 97.2954 274.06 96.8699 273.82 96.5846C273.58 96.3003 273.155 96.264 272.87 96.5039ZM268.058 100.559L265.995 102.297C265.711 102.537 265.674 102.963 265.914 103.248C266.154 103.533 266.58 103.569 266.864 103.329L268.926 101.591C269.211 101.351 269.248 100.925 269.008 100.641C268.768 100.356 268.342 100.319 268.058 100.559ZM263.244 104.615L261.183 106.354C260.897 106.594 260.861 107.019 261.101 107.303C261.341 107.589 261.766 107.625 262.052 107.385L264.114 105.647C264.399 105.407 264.434 104.981 264.195 104.696C263.954 104.412 263.529 104.375 263.244 104.615ZM258.432 108.672L258.343 108.746C258.059 108.986 258.023 109.412 258.263 109.696C258.503 109.981 258.928 110.018 259.212 109.778L259.301 109.703C259.585 109.462 259.622 109.037 259.382 108.752C259.142 108.468 258.716 108.432 258.432 108.672Z" fill="white"/>
<path d="M101.655 56.3676C101.655 72.8437 88.2986 86.2001 71.8236 86.2001C55.3466 86.2001 41.9901 72.8437 41.9901 56.3676C41.9901 39.8916 55.3466 26.5352 71.8236 26.5352C88.2986 26.5352 101.655 39.8916 101.655 56.3676Z" fill="white"/>
<path d="M84.8646 44.6853C83.7686 45.9275 81.8731 46.0444 80.6329 44.9495C79.3907 43.8555 79.2708 41.961 80.3678 40.7188C81.4617 39.4766 83.3563 39.3586 84.5974 40.4536C85.8396 41.5486 85.9576 43.4441 84.8646 44.6853ZM86.6573 38.3524C81.7077 33.9876 74.1599 34.4625 69.7961 39.4101C66.5314 43.1124 65.9748 48.2687 67.9712 52.459L66.85 52.826L66.8994 56.0182L52.943 71.8459L53.2253 76.5101L58.4935 76.741L59.1065 74.8424L60.5534 74.6952L61.5515 73.564L61.7361 72.2129L63.5227 71.3307L63.7304 71.0927L63.6467 70.3204L64.5673 70.1439L64.7346 69.9544L65.15 68.5862L66.726 67.5739L67.5749 65.1561L69.776 64.2345L70.7388 63.1456C70.8437 62.6556 71.1744 61.6755 71.1865 61.6634L75.1117 60.025L75.3385 58.7617C79.665 60.0482 84.5359 58.8211 87.716 55.2146C92.0797 50.267 91.6069 42.7161 86.6573 38.3524Z" fill="#F99B2C"/>
<path d="M184.39 29.8325C184.39 46.3095 171.034 59.666 154.558 59.666C138.082 59.666 124.725 46.3095 124.725 29.8325C124.725 13.3565 138.082 0 154.558 0C171.034 0 184.39 13.3565 184.39 29.8325Z" fill="white"/>
<path d="M180.66 29.8783C180.66 29.8783 168.974 41.7587 154.558 41.7587C140.142 41.7587 128.458 29.8783 128.458 29.8783C128.458 29.8783 140.142 17.9072 154.558 17.9072C168.974 17.9072 180.66 29.8783 180.66 29.8783Z" fill="#82B1DE"/>
<path d="M165.294 29.8347C165.294 35.7632 160.488 40.5696 154.56 40.5696C148.629 40.5696 143.825 35.7632 143.825 29.8347C143.825 23.9051 148.629 19.0977 154.56 19.0977C160.488 19.0977 165.294 23.9051 165.294 29.8347Z" fill="#6592CD"/>
<path d="M159.946 29.8347C159.946 32.8101 157.534 35.2208 154.56 35.2208C151.583 35.2208 149.17 32.8101 149.17 29.8347C149.17 26.8593 151.583 24.4465 154.56 24.4465C157.534 24.4465 159.946 26.8593 159.946 29.8347Z" fill="#000011"/>
<path d="M268.991 29.8325C268.991 46.3095 255.636 59.666 239.159 59.666C222.684 59.666 209.328 46.3095 209.328 29.8325C209.328 13.3565 222.684 0 239.159 0C255.636 0 268.991 13.3565 268.991 29.8325Z" fill="white"/>
<path d="M252.999 25.1445H248.518C248.518 10.1204 241.963 10.1204 239.159 10.1204C236.847 10.1204 229.804 10.1204 229.804 25.1445H225.321C225.321 18.5333 226.626 13.5132 229.199 10.2273C231.551 7.22568 234.996 5.63867 239.159 5.63867C243.444 5.63867 246.788 7.08855 249.099 9.94396C251.722 13.1885 252.999 18.1613 252.999 25.1445Z" fill="#061838"/>
<path d="M254.848 24.1516H223.472V48.8944H254.848V24.1516Z" fill="#F99B2C"/>
<path d="M243.336 34.9079C243.336 32.603 241.465 30.7327 239.159 30.7327C236.852 30.7327 234.984 32.603 234.984 34.9079C234.984 36.2358 235.608 37.4164 236.571 38.1817V44.3916H241.749V38.1817C242.713 37.4164 243.336 36.2358 243.336 34.9079Z" fill="#061838"/>
<path d="M348.726 56.3676C348.726 72.8437 335.371 86.2001 318.895 86.2001C302.418 86.2001 289.062 72.8437 289.062 56.3676C289.062 39.8916 302.418 26.5352 318.895 26.5352C335.371 26.5352 348.726 39.8916 348.726 56.3676Z" fill="white"/>
<path d="M318.695 78.9188C304.257 78.9188 298.095 47.2483 298.095 47.2483C298.095 47.2483 302.26 48.1658 305.228 44.6349C308.193 41.1049 308.215 36.96 308.215 36.96H330.769C330.769 36.96 330.503 40.4375 332.698 44.1408C334.957 47.9531 339.695 47.6718 339.695 47.6718C339.695 47.6718 333.664 78.9188 318.695 78.9188Z" fill="#061838"/>
<path d="M318.738 74.1859C307.559 74.1859 302.788 49.6599 302.788 49.6599C302.788 49.6599 306.014 50.3697 308.31 47.6363C310.608 44.9029 310.624 41.6926 310.624 41.6926H328.091C328.091 41.6926 327.885 44.3847 329.583 47.2522C331.332 50.2064 335.003 49.9876 335.003 49.9876C335.003 49.9876 330.332 74.1859 318.738 74.1859Z" fill="#82B1DE"/>
<path d="M198.615 359.421C148.442 359.421 107.77 353.947 107.77 347.194C107.77 345.042 111.902 343.02 119.158 341.263V341.94C119.158 344.846 121.513 347.194 124.421 347.194H272.808C275.715 347.194 278.065 344.846 278.065 341.94V341.262C285.324 343.019 289.458 345.041 289.458 347.194C289.458 353.947 248.786 359.421 198.615 359.421Z" fill="#494491"/>
<path d="M122.858 115.693H115.129V149.542H122.858V115.693Z" fill="#061838"/>
<path d="M122.858 157.006H115.129V173.93H122.858V157.006Z" fill="#061838"/>
<path d="M278.065 341.939C278.065 344.845 275.715 347.193 272.808 347.193H124.421C121.513 347.193 119.158 344.845 119.158 341.939V89.7968C119.158 86.898 121.513 84.5437 124.421 84.5437H272.808C275.715 84.5437 278.065 86.898 278.065 89.7968V341.939Z" fill="#061838"/>
<path d="M278.065 99.3237H119.158V332.422H278.065V99.3237Z" fill="#0FB2D6"/>
<path d="M212.814 92.9174C212.814 93.8692 212.044 94.6436 211.093 94.6436H186.138C185.183 94.6436 184.413 93.8692 184.413 92.9174C184.413 91.9676 185.183 91.1882 186.138 91.1882H211.093C212.044 91.1882 212.814 91.9676 212.814 92.9174Z" fill="white"/>
<path d="M207.194 339.234C207.194 340.291 206.334 341.146 205.27 341.146H191.95C190.888 341.146 190.033 340.291 190.033 339.234C190.033 338.174 190.888 337.317 191.95 337.317H205.27C206.334 337.317 207.194 338.174 207.194 339.234Z" fill="white"/>
<path d="M229.172 290.682C229.172 291.936 228.156 292.953 226.902 292.953H167.316C166.061 292.953 165.046 291.936 165.046 290.682V267.416C165.046 266.162 166.061 265.146 167.316 265.146H226.902C228.156 265.146 229.172 266.162 229.172 267.416V290.682Z" fill="#304265"/>
<path d="M180.56 275.981C180.288 275.981 180.083 275.903 179.947 275.748C179.81 275.593 179.742 275.393 179.742 275.148V271.369C179.742 271.115 179.674 270.911 179.537 270.756C179.401 270.601 179.197 270.523 178.923 270.523C178.642 270.523 178.435 270.601 178.303 270.756C178.171 270.911 178.107 271.115 178.107 271.369C178.107 272.225 178.156 272.996 178.254 273.682C178.353 274.368 178.487 275.003 178.656 275.585C178.826 276.168 179.015 276.719 179.227 277.236C179.439 277.752 179.652 278.267 179.869 278.78C180.085 279.292 180.3 279.816 180.511 280.353C180.721 280.888 180.913 281.471 181.082 282.101C181.252 282.731 181.386 283.422 181.483 284.174C181.582 284.926 181.632 285.772 181.632 286.713C181.632 287.089 181.568 287.425 181.441 287.721C181.314 288.016 181.132 288.27 180.891 288.482C180.652 288.694 180.364 288.855 180.032 288.969C179.698 289.081 179.329 289.138 178.923 289.138C178.068 289.138 177.403 288.922 176.929 288.489C176.454 288.057 176.217 287.464 176.217 286.713V282.396L176.287 282.186C176.334 282.129 176.404 282.101 176.499 282.101H177.288C177.561 282.101 177.765 282.179 177.902 282.333C178.037 282.489 178.107 282.689 178.107 282.933V286.713C178.107 286.966 178.174 287.17 178.31 287.326C178.448 287.481 178.651 287.559 178.923 287.559C179.207 287.559 179.413 287.481 179.546 287.326C179.676 287.17 179.742 286.966 179.742 286.713C179.742 285.509 179.655 284.455 179.481 283.553C179.307 282.65 179.088 281.831 178.826 281.093C178.563 280.355 178.28 279.654 177.98 278.991C177.678 278.329 177.397 277.63 177.133 276.897C176.87 276.164 176.651 275.356 176.477 274.471C176.304 273.588 176.217 272.554 176.217 271.369C176.217 270.993 176.28 270.657 176.407 270.361C176.534 270.065 176.717 269.811 176.956 269.599C177.196 269.388 177.482 269.225 177.81 269.113C178.139 269 178.51 268.944 178.923 268.944C179.779 268.944 180.445 269.16 180.92 269.592C181.395 270.025 181.632 270.617 181.632 271.369V275.684L181.562 275.896C181.515 275.953 181.443 275.981 181.35 275.981H180.56Z" fill="white"/>
<path d="M192.207 281.114C192.207 280.869 192.274 280.669 192.405 280.514C192.536 280.359 192.735 280.277 192.997 280.268H193.816C193.909 280.268 193.98 280.295 194.027 280.353L194.097 280.564V286.713C194.097 287.464 193.86 288.057 193.385 288.489C192.91 288.922 192.245 289.138 191.39 289.138C190.975 289.138 190.604 289.081 190.276 288.969C189.947 288.855 189.663 288.694 189.422 288.482C189.183 288.27 188.999 288.016 188.872 287.721C188.745 287.425 188.682 287.089 188.682 286.713V271.369C188.682 270.617 188.919 270.025 189.394 269.592C189.869 269.16 190.534 268.944 191.39 268.944C191.794 268.944 192.163 269 192.497 269.113C192.829 269.225 193.117 269.388 193.357 269.599C193.597 269.811 193.78 270.065 193.907 270.361C194.034 270.657 194.097 270.993 194.097 271.369V277.687L194.027 277.898C193.98 277.955 193.909 277.983 193.816 277.983H193.026C192.753 277.983 192.548 277.906 192.412 277.75C192.275 277.595 192.207 277.395 192.207 277.151V271.369C192.207 271.115 192.142 270.911 192.011 270.756C191.879 270.601 191.672 270.523 191.39 270.523C191.116 270.523 190.913 270.601 190.776 270.756C190.64 270.911 190.572 271.115 190.572 271.369V286.713C190.572 286.966 190.637 287.17 190.769 287.326C190.901 287.481 191.107 287.559 191.39 287.559C191.662 287.559 191.867 287.481 192.003 287.326C192.14 287.17 192.207 286.966 192.207 286.713V281.114Z" fill="white"/>
<path d="M202.952 283.934H204.194L203.574 273.386L202.952 283.934ZM204.376 269.169L204.575 269.254L204.659 269.451L206.35 288.56L206.274 288.8C206.212 288.874 206.116 288.912 205.984 288.912H205.294C205.058 288.912 204.863 288.844 204.709 288.708C204.553 288.572 204.466 288.405 204.448 288.207L204.291 285.514H202.868L202.712 288.207C202.694 288.405 202.608 288.572 202.451 288.708C202.297 288.844 202.102 288.912 201.867 288.912H201.176C201.044 288.912 200.948 288.874 200.886 288.8L200.809 288.56L202.501 269.451L202.585 269.254L202.783 269.169H204.376Z" fill="white"/>
<path d="M218.196 269.169C218.29 269.169 218.362 269.197 218.408 269.254L218.479 269.465V288.615L218.408 288.827C218.362 288.885 218.29 288.912 218.196 288.912H217.407C217.162 288.912 216.974 288.853 216.843 288.735C216.711 288.618 216.631 288.461 216.602 288.263C216.602 288.15 216.568 287.887 216.497 287.474C216.427 287.06 216.337 286.559 216.229 285.972C216.121 285.384 216.001 284.738 215.87 284.033C215.738 283.328 215.606 282.62 215.475 281.91C215.343 281.201 215.218 280.522 215.101 279.873C214.984 279.223 214.887 278.665 214.812 278.194L214.954 288.08C214.962 288.325 214.896 288.525 214.755 288.679C214.615 288.834 214.408 288.912 214.135 288.912H213.346C213.251 288.912 213.18 288.885 213.134 288.827L213.063 288.615V269.465L213.134 269.254C213.18 269.197 213.251 269.169 213.346 269.169H214.135C214.37 269.169 214.561 269.232 214.707 269.36C214.852 269.487 214.934 269.654 214.954 269.861C214.972 270.011 215.014 270.318 215.081 270.784C215.145 271.249 215.23 271.805 215.334 272.448C215.437 273.092 215.55 273.793 215.673 274.549C215.795 275.306 215.92 276.049 216.047 276.777C216.174 277.506 216.296 278.186 216.413 278.815C216.53 279.445 216.637 279.962 216.729 280.367L216.589 269.889C216.589 269.672 216.664 269.499 216.814 269.367C216.965 269.235 217.162 269.169 217.407 269.169H218.196Z" fill="white"/>
<path d="M164.163 209.528C162.909 212.347 161.459 230.799 162.379 246.856H195.006C204.728 228.328 210.72 204.59 216.863 191.33C219.102 186.499 220.22 179.879 221.058 169.195C221.73 160.602 220.691 152.195 220.149 148.541C217.997 134.138 212.321 126.512 195.6 126.512C188.232 126.512 179.188 131.295 172.62 143.736C164.678 158.774 170.826 162.647 164.059 169.613C157.291 176.578 156.897 181.555 161.871 188.323C166.844 195.091 166.552 204.156 164.163 209.528Z" fill="#061838"/>
<path d="M174.996 246.856H221.31C222.055 241.684 223.047 236.888 224.368 233.076C232.333 210.108 226.395 199.19 226.395 199.19C220.899 195.503 205.699 189.217 205.699 189.217H188.015C188.015 189.217 177.187 196.276 171.25 198.917C171.25 198.917 164.668 211.817 172.129 232.307C173.569 236.263 174.466 241.352 174.996 246.856Z" fill="#F99B2C"/>
<path d="M205.699 189.217C205.699 189.217 202.813 195.426 197.015 195.426C190.817 195.426 188.015 189.217 188.015 189.217V174.416H205.699V189.217Z" fill="#E7877A"/>
<path d="M215.546 164.215C214.023 170.801 204.8 183.26 196.491 183.26C189.351 183.26 177.865 172.896 177.364 166.059C177.364 166.059 175.585 153.854 175.33 149.75C174.575 137.607 185.931 127.73 196.491 127.73C207.057 127.73 218.816 137.614 217.953 149.75C217.66 153.861 216.472 160.203 215.546 164.215Z" fill="#F69582"/>
<path d="M225.097 246.856H240.729C240.624 245.291 240.515 243.747 240.407 242.239C240.407 242.239 238.544 219.997 237.694 216.237C234.404 201.687 223.98 197.731 223.98 197.731C223.98 197.731 224.068 212.24 224.368 233.076C224.434 237.689 224.716 242.394 225.097 246.856Z" fill="#F99B2C"/>
<path d="M171.006 246.856C171.633 240.272 172.133 234.694 172.129 233.713C172.037 212.873 172.129 198.494 172.129 198.494C172.129 198.494 159.759 203.383 156.697 217.984C155.433 224.021 154.309 235.691 153.49 246.856H171.006Z" fill="#F99B2C"/>
<path d="M196.937 168.394C196.845 168.394 196.743 168.389 196.654 168.384C196.491 168.365 196.36 168.223 196.382 168.06C196.395 167.895 196.528 167.757 196.709 167.784C197.313 167.843 197.771 167.668 197.818 167.535C197.845 167.479 197.783 167.271 197.286 166.932C195.786 165.912 195.61 162.356 195.6 162.21C195.596 162.044 195.722 161.905 195.896 161.896C196.063 161.889 196.193 162.017 196.199 162.179C196.244 163.124 196.579 165.732 197.617 166.44C198.28 166.881 198.534 167.319 198.386 167.735C198.216 168.206 197.573 168.394 196.937 168.394Z" fill="#061838"/>
<path d="M186.961 159.854C186.513 159.854 186.106 160.036 185.819 160.36C185.579 160.651 185.457 161.017 185.457 161.411C185.457 162.189 185.976 162.986 186.961 162.986C187.433 162.986 187.836 162.801 188.119 162.471C188.366 162.189 188.497 161.819 188.497 161.411C188.497 160.64 187.974 159.854 186.961 159.854Z" fill="#061838"/>
<path d="M205.795 159.854C206.244 159.854 206.65 160.036 206.939 160.36C207.178 160.651 207.302 161.017 207.302 161.411C207.302 162.189 206.78 162.986 205.795 162.986C205.325 162.986 204.92 162.801 204.638 162.471C204.391 162.189 204.261 161.819 204.261 161.411C204.261 160.64 204.781 159.854 205.795 159.854Z" fill="#061838"/>
<path d="M209.721 155.652C209.681 155.599 208.569 154.264 206.236 154.264C205.53 154.264 204.72 154.386 203.804 154.695C203.582 154.77 203.463 155.011 203.538 155.233C203.614 155.455 203.854 155.574 204.076 155.498C204.912 155.216 205.629 155.111 206.236 155.111C207.234 155.112 207.943 155.393 208.408 155.667C208.639 155.805 208.808 155.941 208.916 156.039L209.034 156.154L209.058 156.182L209.062 156.187L209.171 156.096L209.06 156.185L209.062 156.187L209.171 156.096L209.06 156.185C209.207 156.367 209.475 156.395 209.657 156.248C209.838 156.101 209.868 155.835 209.721 155.652Z" fill="#061838"/>
<path d="M184.11 156.185L183.996 156.092L184.109 156.187L184.11 156.185L183.996 156.092L184.109 156.187C184.128 156.168 185.008 155.111 186.935 155.111C187.541 155.111 188.258 155.216 189.097 155.498C189.318 155.573 189.559 155.454 189.633 155.232C189.708 155.01 189.589 154.77 189.367 154.695C188.451 154.386 187.639 154.264 186.935 154.264C184.601 154.264 183.491 155.599 183.452 155.652C183.304 155.835 183.333 156.101 183.515 156.248C183.697 156.395 183.964 156.366 184.111 156.185H184.11Z" fill="#061838"/>
<path d="M190.817 168.14C190.817 169.479 189.163 170.56 187.112 170.56C185.071 170.56 183.418 169.479 183.418 168.14C183.418 166.806 185.071 165.725 187.112 165.725C189.163 165.725 190.817 166.806 190.817 168.14Z" fill="#F37784"/>
<path d="M209.339 168.649C209.339 169.984 207.68 171.064 205.636 171.064C203.594 171.064 201.939 169.984 201.939 168.649C201.939 167.31 203.594 166.23 205.636 166.23C207.68 166.23 209.339 167.31 209.339 168.649Z" fill="#F37784"/>
<path d="M191.664 172.808C191.749 175.43 194.109 177.54 197.017 177.54C199.922 177.54 202.286 175.43 202.362 172.808H191.664Z" fill="white"/>
<path d="M217.997 155.919C217.725 157.662 217.381 161.079 215.821 162.986C215.821 162.986 213.114 149.271 209.377 143.317C209.377 143.317 204.046 150.838 194.453 151.151C184.856 151.466 179.238 154.828 176.705 161.42C176.705 161.42 172.186 151.603 176.705 141.085C180.771 131.624 191.34 127.018 198.078 127.018C208.709 127.018 221.134 135.875 217.997 155.919Z" fill="#061838"/>
<path d="M231.168 174.092V191.057H231.779V190.446H215.722C215.384 190.446 215.111 190.719 215.111 191.057C215.111 191.394 215.384 191.668 215.722 191.668H231.779C231.94 191.668 232.098 191.602 232.211 191.488C232.325 191.374 232.39 191.217 232.39 191.057V174.092C232.39 173.755 232.117 173.481 231.779 173.481C231.442 173.481 231.168 173.755 231.168 174.092Z" fill="white"/>
<path d="M161.429 137.226V120.092H160.818V120.703H181.13C181.467 120.703 181.741 120.43 181.741 120.092C181.741 119.755 181.467 119.481 181.13 119.481H160.818C160.658 119.481 160.499 119.547 160.386 119.661C160.272 119.774 160.207 119.932 160.207 120.092V137.226C160.207 137.563 160.48 137.838 160.818 137.838C161.156 137.838 161.429 137.563 161.429 137.226Z" fill="white"/>
<path d="M214.818 120.703H231.78V120.092H231.169V136.152C231.169 136.489 231.442 136.763 231.78 136.763C232.117 136.763 232.392 136.489 232.392 136.152C232.391 131.49 232.391 127.475 232.391 124.625V120.092C232.391 119.932 232.325 119.775 232.211 119.661C232.098 119.547 231.94 119.481 231.78 119.481H214.818C214.48 119.481 214.206 119.755 214.206 120.092C214.206 120.43 214.48 120.703 214.818 120.703Z" fill="white"/>
<path d="M177.949 190.446H160.818V191.057H161.429V170.745C161.429 170.407 161.156 170.134 160.818 170.134C160.48 170.134 160.207 170.407 160.207 170.745V191.057C160.207 191.218 160.272 191.376 160.386 191.489C160.499 191.603 160.658 191.668 160.818 191.668H177.949C178.287 191.668 178.56 191.394 178.56 191.057C178.56 190.719 178.287 190.446 177.949 190.446Z" fill="white"/>
<path d="M225.3 170.974V185.084H225.808V184.576H212.453C212.172 184.576 211.945 184.803 211.945 185.084C211.945 185.364 212.172 185.592 212.453 185.592H225.808C225.944 185.592 226.072 185.539 226.167 185.443C226.263 185.347 226.317 185.219 226.317 185.084V170.974C226.317 170.694 226.089 170.466 225.808 170.466C225.528 170.466 225.3 170.694 225.3 170.974Z" fill="white"/>
<path d="M167.298 140.314V126.065H166.79V126.573H183.684C183.965 126.573 184.192 126.345 184.192 126.065C184.192 125.784 183.965 125.557 183.684 125.557H166.79C166.656 125.557 166.525 125.61 166.431 125.705C166.336 125.8 166.282 125.931 166.282 126.065V140.314C166.282 140.595 166.508 140.822 166.79 140.822C167.07 140.822 167.298 140.595 167.298 140.314Z" fill="white"/>
<path d="M211.7 126.573H225.808V126.065H225.3V139.421C225.3 139.702 225.528 139.93 225.808 139.93C226.09 139.93 226.318 139.702 226.318 139.421C226.317 135.545 226.317 132.205 226.317 129.835V126.065C226.317 125.929 226.263 125.801 226.167 125.705C226.072 125.609 225.944 125.557 225.808 125.557H211.7C211.419 125.557 211.192 125.784 211.192 126.065C211.192 126.345 211.419 126.573 211.7 126.573Z" fill="white"/>
<path d="M181.04 184.576H166.79V185.084H167.298V168.19C167.298 167.909 167.07 167.683 166.79 167.683C166.509 167.683 166.282 167.909 166.282 168.19V185.084C166.282 185.218 166.336 185.349 166.431 185.443C166.525 185.538 166.656 185.592 166.79 185.592H181.04C181.32 185.592 181.548 185.365 181.548 185.084C181.548 184.803 181.32 184.576 181.04 184.576Z" fill="white"/>
<path d="M216.048 148.845C216.048 149.701 215.354 150.397 214.496 150.397C213.639 150.397 212.944 149.701 212.944 148.845C212.944 147.987 213.639 147.293 214.496 147.293C215.354 147.293 216.048 147.987 216.048 148.845Z" fill="white"/>
<path d="M179.724 149.859C179.724 150.716 179.029 151.412 178.172 151.412C177.313 151.412 176.618 150.716 176.618 149.859C176.618 149.003 177.313 148.307 178.172 148.307C179.029 148.307 179.724 149.003 179.724 149.859Z" fill="white"/>
<path d="M197.451 154.406C197.451 155.263 196.757 155.957 195.898 155.957C195.042 155.957 194.348 155.263 194.348 154.406C194.348 153.549 195.042 152.854 195.898 152.854C196.757 152.854 197.451 153.549 197.451 154.406Z" fill="white"/>
<path d="M176.994 163.468C176.994 164.326 176.3 165.02 175.442 165.02C174.587 165.02 173.891 164.326 173.891 163.468C173.891 162.611 174.587 161.917 175.442 161.917C176.3 161.917 176.994 162.611 176.994 163.468Z" fill="white"/>
<path d="M198.475 184.435C198.475 185.291 197.779 185.986 196.922 185.986C196.067 185.986 195.37 185.291 195.37 184.435C195.37 183.577 196.067 182.882 196.922 182.882C197.779 182.882 198.475 183.577 198.475 184.435Z" fill="white"/>
<path d="M197.855 168.876C197.855 169.733 197.16 170.429 196.304 170.429C195.448 170.429 194.753 169.733 194.753 168.876C194.753 168.018 195.448 167.323 196.304 167.323C197.16 167.323 197.855 168.018 197.855 168.876Z" fill="white"/>
<path d="M216.484 164.221C216.484 165.078 215.79 165.771 214.932 165.771C214.078 165.771 213.383 165.078 213.383 164.221C213.383 163.363 214.078 162.669 214.932 162.669C215.79 162.669 216.484 163.363 216.484 164.221Z" fill="white"/>
<path d="M183.462 176.637C183.462 177.494 182.767 178.189 181.912 178.189C181.055 178.189 180.359 177.494 180.359 176.637C180.359 175.781 181.055 175.086 181.912 175.086C182.767 175.086 183.462 175.781 183.462 176.637Z" fill="white"/>
<path d="M210.592 177.551C210.592 178.408 209.897 179.103 209.04 179.103C208.184 179.103 207.487 178.408 207.487 177.551C207.487 176.695 208.184 176 209.04 176C209.897 176 210.592 176.695 210.592 177.551Z" fill="white"/>
<path d="M181.912 176.636L181.828 176.799L196.925 184.641L209.181 177.68L215.034 164.469L214.673 148.663H178.143L175.25 163.494L181.774 176.77L181.828 176.799L181.912 176.636L182.075 176.557L175.632 163.443L178.444 149.027H214.316L214.668 164.396L208.898 177.422L196.917 184.227L181.996 176.475L181.912 176.636Z" fill="white"/>
<path d="M181.994 176.8L195.985 169.771L208.945 177.706L209.136 177.396L196.002 169.355L181.83 176.474L181.995 176.8H181.994Z" fill="white"/>
<path d="M196.177 167.886L196.08 154.541L214.547 149.02L214.443 148.67L195.714 154.27L195.812 167.889L196.177 167.886Z" fill="white"/>
<path d="M214.665 163.547L195.901 153.79L175.588 163.173L196.299 169.065L214.538 164.61L214.452 164.255L196.307 168.687L176.633 163.093L195.892 154.196L214.498 163.87L214.666 163.547H214.665Z" fill="white"/>
<path d="M182.599 176.116L196.186 154.286L177.684 149.897L177.601 150.252L195.608 154.524L182.289 175.924L182.599 176.116Z" fill="white"/>
<path d="M209.067 176.736L196.055 154.313L195.739 154.497L208.752 176.92L209.067 176.736Z" fill="white"/>
<path d="M197.104 184.427L196.485 168.868L196.12 168.883L196.739 184.442L197.104 184.427Z" fill="white"/>
<path d="M189.016 332.422H156.127L174.447 292.953H206.721L189.016 332.422ZM219.195 265.146H187.353L195.843 246.856H221.31C222.055 241.683 223.047 236.888 224.368 233.076C224.434 237.689 224.716 242.394 225.097 246.856H227.4L219.195 265.146ZM238.502 222.107C238.198 219.39 237.913 217.203 237.694 216.237C234.404 201.687 223.98 197.731 223.98 197.731C222.699 197.016 221.224 196.257 219.68 195.498L221.459 191.668H231.779C231.94 191.668 232.098 191.602 232.211 191.488C232.325 191.374 232.39 191.217 232.39 191.057V174.092C232.39 173.755 232.117 173.48 231.779 173.48C231.442 173.48 231.168 173.755 231.168 174.092V190.446H222.026L224.278 185.592H225.809C225.944 185.592 226.072 185.538 226.167 185.443C226.263 185.347 226.317 185.219 226.317 185.084V181.2L264.32 99.3237H277.925V134.224L238.502 222.107ZM225.3 184.575H224.75L225.3 183.391V184.575Z" fill="#53BFDF"/>
<path d="M206.721 292.953H174.447L176.658 288.191C176.737 288.298 176.827 288.397 176.929 288.489C177.403 288.922 178.068 289.138 178.923 289.138C179.329 289.138 179.698 289.081 180.031 288.969C180.364 288.855 180.652 288.694 180.89 288.482C181.131 288.271 181.314 288.016 181.441 287.721C181.568 287.425 181.632 287.089 181.632 286.713C181.632 285.772 181.582 284.926 181.483 284.174C181.386 283.422 181.251 282.731 181.082 282.101C180.913 281.471 180.721 280.888 180.511 280.353C180.478 280.269 180.445 280.185 180.412 280.103L187.353 265.146H219.195L217.391 269.169C217.153 269.172 216.961 269.239 216.814 269.367C216.664 269.499 216.589 269.672 216.589 269.889L216.603 270.924L215.488 273.41C215.435 273.076 215.383 272.755 215.334 272.448C215.23 271.805 215.145 271.249 215.081 270.784C215.014 270.318 214.972 270.011 214.954 269.861C214.933 269.654 214.852 269.487 214.707 269.36C214.56 269.233 214.37 269.169 214.135 269.169H213.345C213.251 269.169 213.18 269.197 213.134 269.254L213.063 269.465V278.814L206.721 292.953ZM191.39 268.944C190.533 268.944 189.869 269.16 189.394 269.592C188.919 270.025 188.682 270.617 188.682 271.369V286.713C188.682 287.089 188.745 287.425 188.872 287.721C188.999 288.016 189.182 288.271 189.421 288.482C189.662 288.694 189.947 288.855 190.275 288.969C190.604 289.081 190.975 289.138 191.39 289.138C192.245 289.138 192.91 288.922 193.385 288.489C193.86 288.057 194.097 287.464 194.097 286.713V280.564L194.027 280.353C193.98 280.295 193.909 280.268 193.815 280.268H192.997C192.735 280.277 192.536 280.359 192.405 280.514C192.274 280.669 192.207 280.869 192.207 281.114V286.713C192.207 286.966 192.14 287.171 192.003 287.326C191.866 287.481 191.662 287.559 191.39 287.559C191.107 287.559 190.901 287.481 190.768 287.326C190.636 287.171 190.572 286.966 190.572 286.713V271.369C190.572 271.115 190.639 270.911 190.775 270.756C190.913 270.601 191.116 270.523 191.39 270.523C191.672 270.523 191.879 270.601 192.011 270.756C192.142 270.911 192.207 271.115 192.207 271.369V277.151C192.207 277.395 192.275 277.595 192.412 277.75C192.548 277.906 192.753 277.983 193.026 277.983H193.815C193.909 277.983 193.98 277.955 194.027 277.899L194.097 277.687V271.369C194.097 270.993 194.034 270.657 193.907 270.361C193.78 270.065 193.597 269.811 193.357 269.6C193.117 269.388 192.829 269.225 192.497 269.114C192.163 269 191.794 268.944 191.39 268.944ZM202.868 285.514H204.291L204.448 288.207C204.466 288.405 204.552 288.572 204.709 288.708C204.863 288.844 205.058 288.912 205.293 288.912H205.984C206.116 288.912 206.212 288.874 206.274 288.8L206.35 288.56L204.659 269.451L204.575 269.254L204.376 269.169H202.783L202.585 269.254L202.501 269.451L200.809 288.56L200.886 288.8C200.948 288.874 201.044 288.912 201.176 288.912H201.866C202.102 288.912 202.297 288.844 202.451 288.708C202.607 288.572 202.694 288.405 202.712 288.207L202.868 285.514ZM178.923 287.559C178.651 287.559 178.447 287.481 178.31 287.326C178.174 287.171 178.107 286.966 178.107 286.713V285.069L179.266 282.571C179.344 282.886 179.415 283.214 179.481 283.553C179.655 284.455 179.742 285.509 179.742 286.713C179.742 286.966 179.676 287.171 179.545 287.326C179.413 287.481 179.207 287.559 178.923 287.559ZM204.193 283.934H202.952L203.573 273.386L204.193 283.934Z" fill="#546783"/>
<path d="M178.923 289.138C178.068 289.138 177.403 288.922 176.929 288.49C176.827 288.397 176.737 288.298 176.658 288.191L178.107 285.07V286.713C178.107 286.966 178.174 287.171 178.31 287.326C178.447 287.482 178.651 287.559 178.923 287.559C179.207 287.559 179.413 287.482 179.545 287.326C179.675 287.171 179.742 286.966 179.742 286.713C179.742 285.509 179.655 284.456 179.481 283.553C179.415 283.215 179.344 282.887 179.266 282.571L180.411 280.103C180.445 280.186 180.478 280.269 180.511 280.353C180.721 280.888 180.913 281.471 181.082 282.101C181.251 282.732 181.385 283.422 181.483 284.174C181.582 284.927 181.631 285.772 181.631 286.713C181.631 287.089 181.568 287.425 181.441 287.721C181.314 288.017 181.131 288.271 180.89 288.483C180.651 288.694 180.364 288.856 180.031 288.97C179.698 289.082 179.329 289.138 178.923 289.138Z" fill="#E4F5FD"/>
<path d="M191.39 289.138C190.975 289.138 190.604 289.081 190.276 288.969C189.947 288.855 189.663 288.694 189.422 288.482C189.183 288.27 188.999 288.016 188.872 287.721C188.745 287.425 188.682 287.089 188.682 286.713V271.369C188.682 270.617 188.919 270.025 189.394 269.592C189.869 269.16 190.534 268.944 191.39 268.944C191.794 268.944 192.163 269 192.497 269.113C192.829 269.225 193.117 269.388 193.357 269.599C193.597 269.811 193.78 270.065 193.907 270.361C194.034 270.657 194.097 270.993 194.097 271.369V277.687L194.027 277.898C193.98 277.955 193.909 277.983 193.816 277.983H193.026C192.753 277.983 192.548 277.906 192.412 277.75C192.275 277.595 192.207 277.395 192.207 277.151V271.369C192.207 271.115 192.142 270.911 192.011 270.756C191.879 270.601 191.672 270.523 191.39 270.523C191.116 270.523 190.913 270.601 190.776 270.756C190.64 270.911 190.572 271.115 190.572 271.369V286.713C190.572 286.966 190.637 287.17 190.769 287.326C190.901 287.481 191.107 287.559 191.39 287.559C191.662 287.559 191.867 287.481 192.003 287.326C192.14 287.17 192.207 286.966 192.207 286.713V281.114C192.207 280.869 192.274 280.669 192.405 280.514C192.536 280.359 192.735 280.277 192.997 280.268H193.816C193.909 280.268 193.98 280.295 194.027 280.353L194.097 280.564V286.713C194.097 287.464 193.86 288.057 193.385 288.489C192.91 288.922 192.245 289.138 191.39 289.138Z" fill="#E4F5FD"/>
<path d="M205.984 288.912H205.294C205.058 288.912 204.863 288.844 204.709 288.708C204.553 288.572 204.466 288.405 204.448 288.207L204.291 285.514H202.868L202.712 288.207C202.694 288.405 202.608 288.572 202.451 288.708C202.297 288.844 202.102 288.912 201.867 288.912H201.176C201.044 288.912 200.948 288.874 200.886 288.8L200.809 288.56L202.501 269.451L202.585 269.254L202.783 269.169H204.376L204.575 269.254L204.659 269.451L206.35 288.56L206.274 288.8C206.212 288.874 206.116 288.912 205.984 288.912ZM203.574 273.386L202.952 283.934H204.194L203.574 273.386Z" fill="#E4F5FD"/>
<path d="M213.063 278.814V269.465L213.134 269.254C213.18 269.197 213.251 269.169 213.346 269.169H214.135C214.37 269.169 214.561 269.232 214.707 269.36C214.852 269.487 214.934 269.654 214.954 269.861C214.972 270.011 215.014 270.318 215.081 270.784C215.145 271.249 215.23 271.805 215.334 272.448C215.383 272.755 215.435 273.076 215.488 273.41L213.063 278.814ZM216.603 270.924L216.589 269.889C216.589 269.672 216.664 269.499 216.814 269.367C216.961 269.238 217.153 269.172 217.391 269.169L216.603 270.924Z" fill="#E4F5FD"/>
<path d="M221.31 246.856H195.843L219.681 195.498C221.224 196.257 222.699 197.016 223.98 197.731C223.98 197.834 224.07 212.314 224.368 233.076C223.047 236.888 222.055 241.684 221.31 246.856Z" fill="#E6B06E"/>
<path d="M227.4 246.856H225.097C224.716 242.394 224.434 237.689 224.368 233.076C224.069 212.314 223.98 197.834 223.98 197.731C223.98 197.731 234.404 201.687 237.694 216.237C237.913 217.203 238.198 219.39 238.502 222.107L227.4 246.856Z" fill="#E6B06E"/>
<path d="M231.78 191.668H221.459L222.026 190.446H231.169V174.092C231.169 173.755 231.442 173.481 231.78 173.481C232.117 173.481 232.391 173.755 232.391 174.092V191.057C232.391 191.217 232.325 191.374 232.211 191.488C232.098 191.602 231.94 191.668 231.78 191.668Z" fill="#E4F5FD"/>
<path d="M225.809 185.592H224.278L224.75 184.575H225.3V183.391L226.317 181.2V185.084C226.317 185.219 226.263 185.347 226.167 185.442C226.072 185.538 225.944 185.592 225.809 185.592Z" fill="#E4F5FD"/>
<path d="M119.159 332.423H119.104V320.487C119.106 320.487 119.125 320.454 119.159 320.389V332.423Z" fill="#6F77B9"/>
<path d="M145.682 332.422H119.158V320.389C120.194 318.4 135.944 286.142 155.101 246.856H185.959L177.35 265.146H167.316C166.061 265.146 165.046 266.162 165.046 267.415V290.682C165.046 290.85 165.064 291.015 165.098 291.173L145.682 332.422ZM220.732 172.986C220.846 171.783 220.954 170.519 221.058 169.194C221.73 160.602 220.691 152.195 220.149 148.541C218.927 140.362 216.569 134.369 211.697 130.716C212.389 129.294 213.06 127.918 213.715 126.573H225.3V139.42C225.3 139.702 225.528 139.93 225.809 139.93C226.09 139.93 226.318 139.702 226.318 139.42C226.317 135.545 226.317 132.205 226.317 129.835V126.065C226.317 125.929 226.263 125.801 226.167 125.705C226.072 125.609 225.944 125.557 225.809 125.557H214.21C215.031 123.871 215.819 122.255 216.574 120.703H231.168V136.152C231.168 136.488 231.442 136.763 231.779 136.763C232.117 136.763 232.391 136.488 232.391 136.152C232.39 131.489 232.39 127.474 232.39 124.625V120.092C232.39 119.932 232.325 119.774 232.211 119.66C232.098 119.546 231.94 119.481 231.779 119.481H217.169C223.253 106.992 226.986 99.3237 226.986 99.3237H255.407L220.732 172.986Z" fill="#53BFDF"/>
<path d="M165.098 291.173C165.064 291.015 165.046 290.851 165.046 290.682V267.416C165.046 266.162 166.061 265.146 167.316 265.146H177.35L165.098 291.173Z" fill="#546783"/>
<path d="M174.996 246.856H171.006C171.633 240.272 172.133 234.693 172.129 233.712C172.127 233.235 172.125 232.762 172.123 232.29C172.125 232.295 172.127 232.302 172.129 232.307C173.57 236.263 174.466 241.352 174.996 246.856ZM181.088 193.542C183.333 188.937 185.559 184.369 187.749 179.874L187.969 179.989C187.984 179.999 187.999 180.009 188.015 180.02V189.217C188.015 189.217 184.897 191.25 181.088 193.542ZM211.846 191.862C208.354 190.315 205.699 189.217 205.699 189.217V179.658L207.79 178.471C208.074 178.854 208.528 179.103 209.04 179.103C209.897 179.103 210.592 178.408 210.592 177.551C210.592 176.984 210.286 176.486 209.83 176.216L211.457 172.543C213.089 170.198 214.359 167.807 215.085 165.765C215.871 165.689 216.484 165.026 216.484 164.221C216.484 163.702 216.23 163.243 215.84 162.962C217.384 161.051 217.726 157.655 217.997 155.919C219.817 144.291 216.4 136.427 211.134 131.874C211.32 131.488 211.512 131.096 211.697 130.716C216.569 134.369 218.927 140.362 220.149 148.541C220.691 152.195 221.73 160.602 221.058 169.195C220.954 170.52 220.846 171.783 220.732 172.987L215.277 184.576H212.453C212.172 184.576 211.945 184.803 211.945 185.084C211.945 185.364 212.172 185.592 212.453 185.592H214.799L211.846 191.862ZM205.699 179.239V179.032C206.316 178.499 206.919 177.931 207.503 177.336C207.492 177.407 207.487 177.479 207.487 177.551C207.487 177.765 207.53 177.969 207.609 178.154L205.699 179.239ZM209.498 176.068C209.353 176.024 209.2 176 209.04 176C208.93 176 208.822 176.012 208.717 176.034C209.32 175.354 209.896 174.651 210.442 173.937L209.498 176.068Z" fill="#32445F"/>
<path d="M185.959 246.856H174.996C174.466 241.352 173.569 236.263 172.129 232.307C172.127 232.302 172.125 232.295 172.123 232.29C172.09 224.401 172.084 217.488 172.089 212.008C175.099 205.834 178.109 199.657 181.088 193.542C184.896 191.25 188.015 189.217 188.015 189.217C188.015 189.217 190.817 195.425 197.015 195.425C202.813 195.425 205.699 189.217 205.699 189.217C205.699 189.217 208.354 190.315 211.846 191.862L185.959 246.856Z" fill="#E6B06E"/>
<path d="M197.015 195.426C190.817 195.426 188.015 189.217 188.015 189.217V180.02C189.658 181.123 191.343 182.011 192.949 182.576L195.47 183.886C195.405 184.056 195.37 184.241 195.37 184.435C195.37 185.291 196.067 185.986 196.922 185.986C197.779 185.986 198.475 185.291 198.475 184.435C198.475 184.22 198.431 184.016 198.353 183.831L205.699 179.658V189.217C205.699 189.217 202.813 195.426 197.015 195.426ZM195.638 183.562L194.675 183.062C195.104 183.15 195.524 183.21 195.932 183.239C195.82 183.332 195.72 183.441 195.638 183.562ZM198.172 183.514C198.071 183.377 197.948 183.257 197.808 183.159C198.378 183.073 198.949 182.935 199.519 182.749L198.172 183.514ZM204.909 179.688C205.175 179.476 205.438 179.257 205.699 179.032V179.239L204.909 179.688Z" fill="#DAA29A"/>
<path d="M195.932 183.239C195.524 183.211 195.104 183.15 194.675 183.063L187.908 179.547C189.15 176.999 190.381 174.472 191.597 171.977L195.343 170.094C195.578 170.28 195.866 170.4 196.182 170.424L196.276 172.809H191.664C191.744 175.262 193.815 177.267 196.464 177.514L196.678 182.901C196.397 182.946 196.141 183.066 195.932 183.239ZM197.808 183.159C197.587 183.006 197.326 182.908 197.043 182.886L196.83 177.537C196.891 177.539 196.954 177.54 197.016 177.54C199.617 177.54 201.783 175.851 202.264 173.617L207.63 176.902C207.567 177.037 207.524 177.183 207.502 177.337C206.919 177.932 206.316 178.499 205.699 179.033C205.438 179.257 205.174 179.476 204.909 179.688L199.519 182.749C198.948 182.936 198.378 183.074 197.808 183.159ZM192.949 182.577C191.343 182.011 189.658 181.124 188.015 180.021C187.999 180.01 187.983 180 187.968 179.989L192.949 182.577ZM207.821 176.592L202.33 173.23C202.347 173.091 202.358 172.951 202.362 172.809H201.642L197.24 170.114C197.613 169.83 197.855 169.38 197.855 168.876C197.855 168.812 197.851 168.749 197.843 168.687L202.306 167.597C202.071 167.915 201.939 168.272 201.939 168.65C201.939 169.921 203.44 170.961 205.35 171.057L208.32 176.177C208.126 176.279 207.956 176.42 207.821 176.592ZM208.666 176.046L205.774 171.062C207.753 171.015 209.338 169.954 209.338 168.65C209.338 167.651 208.417 166.796 207.1 166.426L213.52 164.858C213.653 165.154 213.875 165.399 214.152 165.561L210.442 173.937C209.896 174.652 209.319 175.354 208.716 176.034C208.699 176.038 208.682 176.041 208.666 176.046ZM200.945 172.809H196.642L196.547 170.41C196.662 170.392 196.772 170.361 196.877 170.319L200.945 172.809ZM211.457 172.543L214.486 165.707C214.628 165.75 214.777 165.772 214.932 165.772C214.984 165.772 215.034 165.77 215.085 165.765C214.359 167.808 213.088 170.198 211.457 172.543ZM203.289 166.779L198.309 158.199C198.666 157.467 199.024 156.731 199.377 156.008L213.611 163.41C213.466 163.645 213.383 163.923 213.383 164.221C213.383 164.32 213.392 164.417 213.41 164.511L206.238 166.262C206.042 166.241 205.841 166.231 205.636 166.231C204.745 166.231 203.927 166.436 203.289 166.779ZM205.794 159.854C204.781 159.854 204.261 160.641 204.261 161.411C204.261 161.82 204.391 162.19 204.638 162.472C204.92 162.802 205.325 162.986 205.794 162.986C206.78 162.986 207.302 162.19 207.302 161.411C207.302 161.017 207.178 160.651 206.939 160.361C206.649 160.037 206.244 159.854 205.794 159.854ZM213.842 163.118L199.536 155.68C199.953 154.826 200.365 153.979 200.775 153.137L212.249 149.707C213.149 152.272 213.916 154.99 214.506 157.293L214.629 162.699C214.326 162.759 214.054 162.908 213.842 163.118ZM209.062 156.187C209.146 156.289 209.268 156.343 209.39 156.343C209.485 156.343 209.577 156.312 209.657 156.249C209.838 156.102 209.868 155.835 209.721 155.653C209.681 155.6 208.569 154.265 206.236 154.265H206.235C205.53 154.265 204.719 154.387 203.804 154.696C203.582 154.771 203.463 155.012 203.538 155.234C203.598 155.41 203.763 155.521 203.94 155.521C203.985 155.521 204.031 155.514 204.076 155.499C204.912 155.216 205.629 155.112 206.236 155.112C207.234 155.113 207.943 155.394 208.408 155.668C208.639 155.805 208.808 155.941 208.916 156.04L209.034 156.155L209.058 156.182L209.062 156.187ZM215.812 162.942C215.578 162.78 215.296 162.683 214.993 162.671L214.907 158.906C215.436 161.095 215.756 162.663 215.812 162.942ZM200.992 152.693C201.593 151.46 202.19 150.234 202.777 149.028H212.006C212.046 149.14 212.087 149.252 212.127 149.363L200.992 152.693ZM211.871 148.664H203.168C207.216 146.367 209.377 143.317 209.377 143.317C210.277 144.75 211.115 146.631 211.871 148.664Z" fill="#E3ADA2"/>
<path d="M171.005 246.856H155.101C160.574 235.633 166.324 223.838 172.089 212.009C172.084 217.489 172.09 224.401 172.122 232.29C172.124 232.762 172.126 233.235 172.129 233.713C172.133 234.694 171.632 240.272 171.005 246.856Z" fill="#E6B06E"/>
<path d="M205.795 162.986C205.325 162.986 204.92 162.801 204.638 162.471C204.391 162.189 204.261 161.819 204.261 161.411C204.261 160.64 204.781 159.854 205.795 159.854C206.244 159.854 206.65 160.036 206.939 160.36C207.178 160.651 207.302 161.017 207.302 161.411C207.302 162.189 206.78 162.986 205.795 162.986Z" fill="#32445F"/>
<path d="M209.39 156.342C209.268 156.342 209.146 156.289 209.062 156.187L209.058 156.182L209.034 156.154L208.916 156.039C208.808 155.941 208.639 155.805 208.408 155.667C207.943 155.393 207.234 155.112 206.236 155.111C205.629 155.111 204.912 155.216 204.076 155.498C204.031 155.513 203.985 155.52 203.94 155.52C203.763 155.52 203.599 155.409 203.538 155.233C203.463 155.011 203.582 154.77 203.804 154.695C204.719 154.386 205.53 154.264 206.235 154.264H206.236C208.569 154.264 209.681 155.599 209.721 155.652C209.868 155.835 209.838 156.101 209.657 156.248C209.578 156.312 209.485 156.342 209.39 156.342Z" fill="#32445F"/>
<path d="M205.775 171.062L203.583 167.285L207.1 166.426C208.417 166.796 209.339 167.651 209.339 168.649C209.339 169.954 207.754 171.015 205.775 171.062ZM205.35 171.057C203.44 170.961 201.939 169.921 201.939 168.649C201.939 168.272 202.071 167.915 202.306 167.597L203.214 167.376L205.35 171.057ZM203.392 166.956L203.289 166.779C203.927 166.436 204.745 166.23 205.636 166.23C205.841 166.23 206.043 166.241 206.238 166.262L203.392 166.956Z" fill="#E198A2"/>
<path d="M197.017 177.54C196.954 177.54 196.892 177.539 196.83 177.537L196.643 172.808H200.945L202.265 173.617C201.783 175.85 199.617 177.54 197.017 177.54ZM196.464 177.514C193.815 177.267 191.744 175.261 191.664 172.808H196.276L196.464 177.514ZM202.33 173.23L201.642 172.808H202.362C202.358 172.95 202.347 173.09 202.33 173.23Z" fill="#E4F5FD"/>
<path d="M215.84 162.962C215.831 162.955 215.822 162.949 215.812 162.942C215.756 162.663 215.437 161.095 214.907 158.906L214.713 150.382C215.468 150.276 216.048 149.628 216.048 148.845C216.048 147.987 215.354 147.293 214.496 147.293C213.701 147.293 213.044 147.891 212.954 148.664H211.872C211.115 146.631 210.277 144.75 209.377 143.317C209.377 143.317 207.216 146.367 203.168 148.664H202.955C205.871 142.677 208.613 137.046 211.133 131.874C216.4 136.427 219.817 144.291 217.997 155.919C217.725 157.655 217.384 161.051 215.84 162.962ZM214.506 157.293C213.916 154.989 213.149 152.272 212.25 149.707L213.071 149.462C213.291 149.968 213.774 150.335 214.348 150.39L214.506 157.293ZM212.128 149.363C212.087 149.251 212.046 149.14 212.007 149.028H212.954C212.957 149.056 212.961 149.084 212.966 149.112L212.128 149.363Z" fill="#32445F"/>
<path d="M231.78 136.763C231.442 136.763 231.169 136.489 231.169 136.152V120.703H216.574C216.774 120.293 216.974 119.882 217.169 119.481H231.78C231.94 119.481 232.098 119.547 232.211 119.661C232.325 119.775 232.391 119.932 232.391 120.092V124.625C232.391 127.475 232.391 131.49 232.392 136.152C232.392 136.489 232.117 136.763 231.78 136.763Z" fill="#E4F5FD"/>
<path d="M214.798 185.592H212.453C212.172 185.592 211.945 185.364 211.945 185.084C211.945 184.803 212.172 184.576 212.453 184.576H215.276L214.798 185.592Z" fill="#E4F5FD"/>
<path d="M225.809 139.93C225.528 139.93 225.301 139.702 225.301 139.421V126.573H213.716C213.88 126.235 214.048 125.889 214.211 125.557H225.809C225.944 125.557 226.072 125.609 226.168 125.705C226.263 125.801 226.317 125.929 226.317 126.065V129.835C226.317 132.205 226.317 135.545 226.318 139.421C226.318 139.702 226.09 139.93 225.809 139.93Z" fill="#E4F5FD"/>
<path d="M214.348 150.39C213.774 150.335 213.291 149.968 213.071 149.462L214.319 149.089L214.348 150.39ZM214.713 150.382L214.673 148.663H212.954C213.044 147.891 213.7 147.293 214.496 147.293C215.354 147.293 216.048 147.987 216.048 148.845C216.048 149.627 215.468 150.276 214.713 150.382ZM212.966 149.112C212.961 149.084 212.957 149.056 212.954 149.027H213.25L212.966 149.112Z" fill="#E4F5FD"/>
<path d="M196.922 185.987C196.067 185.987 195.37 185.291 195.37 184.435C195.37 184.241 195.406 184.057 195.47 183.886L196.925 184.642L198.353 183.831C198.431 184.016 198.475 184.22 198.475 184.435C198.475 185.291 197.779 185.987 196.922 185.987ZM196.726 184.128L195.638 183.563C195.72 183.442 195.82 183.333 195.932 183.239C196.142 183.066 196.398 182.946 196.678 182.901L196.726 184.128ZM197.092 184.128L197.043 182.886C197.326 182.908 197.587 183.006 197.808 183.159C197.948 183.257 198.071 183.377 198.172 183.514L197.092 184.128Z" fill="#E4F5FD"/>
<path d="M196.182 170.424C195.866 170.4 195.578 170.28 195.343 170.094L195.985 169.771L196.161 169.879L196.182 170.424ZM196.547 170.41L196.535 170.108L196.878 170.319C196.773 170.36 196.662 170.391 196.547 170.41ZM197.241 170.113L196.518 169.671L196.491 169.017L197.844 168.687C197.852 168.749 197.856 168.812 197.856 168.876C197.856 169.38 197.614 169.83 197.241 170.113Z" fill="#E4F5FD"/>
<path d="M214.932 165.772C214.777 165.772 214.628 165.749 214.486 165.707L215.034 164.469L214.993 162.67C215.296 162.682 215.578 162.78 215.812 162.941C215.822 162.948 215.831 162.954 215.84 162.962C216.23 163.243 216.484 163.702 216.484 164.221C216.484 165.026 215.871 165.689 215.085 165.765C215.034 165.77 214.984 165.772 214.932 165.772ZM214.152 165.561C213.875 165.399 213.653 165.154 213.52 164.858L214.538 164.61L214.452 164.255L213.41 164.51C213.392 164.416 213.383 164.32 213.383 164.221C213.383 163.922 213.466 163.645 213.612 163.409L214.498 163.87L214.649 163.579L214.668 164.396L214.152 165.561ZM214.648 163.537L213.842 163.118C214.054 162.908 214.326 162.759 214.629 162.698L214.648 163.537Z" fill="#E4F5FD"/>
<path d="M209.04 179.103C208.528 179.103 208.073 178.854 207.79 178.47L209.181 177.68L209.83 176.216C210.286 176.486 210.592 176.983 210.592 177.551C210.592 178.408 209.897 179.103 209.04 179.103ZM207.609 178.154C207.53 177.968 207.487 177.765 207.487 177.551C207.487 177.478 207.492 177.407 207.503 177.336C207.524 177.183 207.567 177.037 207.631 176.902L208.681 177.545L207.609 178.154ZM208.958 177.287L207.821 176.591C207.956 176.42 208.126 176.279 208.32 176.177L208.752 176.92L209.068 176.736L208.666 176.046C208.682 176.041 208.7 176.038 208.717 176.034C208.822 176.011 208.929 176 209.04 176C209.2 176 209.353 176.023 209.498 176.068L208.958 177.287Z" fill="#E4F5FD"/>
<path d="M196.925 184.641L195.47 183.886L192.949 182.576L187.969 179.989L187.749 179.874C187.802 179.763 187.855 179.657 187.908 179.546L194.676 183.062L195.638 183.562L196.726 184.128L196.739 184.441L197.104 184.427L197.092 184.128L198.172 183.514L199.519 182.748L204.909 179.687L205.699 179.239L207.609 178.154L208.681 177.545L208.945 177.706L209.136 177.396L208.958 177.287L209.498 176.068L210.442 173.936L214.152 165.561L214.668 164.396L214.649 163.578L214.666 163.546H214.665L214.648 163.537L214.629 162.698L214.506 157.293L214.348 150.389L214.319 149.089L214.547 149.02L214.444 148.67L213.25 149.027H202.777C202.836 148.907 202.896 148.783 202.955 148.663H214.673L214.713 150.381L214.907 158.905L214.993 162.67L215.034 164.469L214.486 165.707L211.457 172.543L209.83 176.216L209.181 177.68L207.79 178.47L205.699 179.658L198.353 183.83L196.925 184.641Z" fill="#E4F5FD"/>
<path d="M191.86 171.435C192.382 170.365 192.899 169.304 193.415 168.244L194.772 168.63C194.759 168.71 194.753 168.792 194.753 168.876C194.753 169.231 194.872 169.56 195.074 169.821L191.86 171.435Z" fill="#E3ADA2"/>
<path d="M195.074 169.821C194.872 169.56 194.753 169.231 194.753 168.876C194.753 168.792 194.759 168.71 194.772 168.63L196.126 169.015L196.142 169.441L196.002 169.355L195.074 169.821Z" fill="#E4F5FD"/>
<path d="M197.757 168.333C197.75 168.314 197.743 168.296 197.735 168.278C198.045 168.175 198.29 168 198.386 167.735C198.534 167.319 198.28 166.881 197.616 166.44C196.677 165.799 196.314 163.598 196.22 162.488C196.859 161.175 197.488 159.883 198.116 158.594L202.976 166.967C202.912 167.012 202.85 167.057 202.791 167.103L197.757 168.333ZM194.871 168.279L193.577 167.911C194.304 166.419 195.024 164.942 195.739 163.475C195.752 163.558 195.766 163.644 195.781 163.732L195.807 167.404C195.384 167.547 195.042 167.869 194.871 168.279ZM197.376 167.754C197.097 167.488 196.719 167.323 196.304 167.323C196.259 167.323 196.216 167.325 196.172 167.328L196.157 165.211C196.406 165.924 196.767 166.579 197.286 166.932C197.783 167.271 197.845 167.479 197.818 167.535C197.79 167.612 197.626 167.702 197.376 167.754Z" fill="#E3ADA2"/>
<path d="M197.736 168.278C197.653 168.078 197.53 167.901 197.377 167.754C197.627 167.702 197.79 167.612 197.818 167.535C197.845 167.478 197.783 167.271 197.286 166.932C196.768 166.579 196.407 165.924 196.158 165.211L196.138 162.654C196.166 162.598 196.193 162.543 196.22 162.488C196.314 163.598 196.677 165.799 197.617 166.44C198.28 166.881 198.534 167.319 198.386 167.735C198.29 168 198.045 168.175 197.736 168.278ZM195.781 163.732C195.766 163.644 195.752 163.558 195.739 163.475C195.753 163.444 195.764 163.423 195.779 163.392L195.781 163.732Z" fill="#32445F"/>
<path d="M202.791 167.103C202.85 167.057 202.912 167.011 202.976 166.967L203.023 167.047L202.791 167.103Z" fill="#E198A2"/>
<path d="M196.307 168.686L194.871 168.279C195.043 167.869 195.384 167.547 195.808 167.404L195.812 167.889L196.177 167.886L196.173 167.328C196.216 167.325 196.26 167.323 196.304 167.323C196.719 167.323 197.097 167.488 197.377 167.754C197.53 167.901 197.653 168.078 197.736 168.278C197.744 168.296 197.751 168.314 197.758 168.333L196.307 168.686Z" fill="#E4F5FD"/>
<path d="M208.946 177.706L208.681 177.545L207.631 176.902L202.265 173.617L200.945 172.808L196.878 170.319L196.535 170.108L196.518 169.671L197.241 170.113L201.643 172.808L202.33 173.23L207.821 176.591L208.958 177.287L209.136 177.396L208.946 177.706ZM191.597 171.976C191.684 171.797 191.774 171.613 191.861 171.435L195.074 169.821L196.003 169.355L196.143 169.441L196.161 169.879L195.985 169.771L195.343 170.094L191.597 171.976Z" fill="#E4F5FD"/>
<path d="M195.812 167.889L195.808 167.404L195.782 163.732L195.78 163.392C195.897 163.151 196.022 162.895 196.139 162.654L196.158 165.211L196.173 167.328L196.177 167.886L195.812 167.889ZM200.776 153.137C200.85 152.985 200.918 152.845 200.992 152.692L212.128 149.363L212.967 149.112L213.25 149.027L214.444 148.67L214.547 149.02L214.319 149.089L213.071 149.462L212.25 149.707L200.776 153.137Z" fill="#E4F5FD"/>
<path d="M196.491 169.017L196.485 168.868L196.12 168.883L196.126 169.015L194.772 168.63L193.415 168.244C193.467 168.137 193.525 168.018 193.577 167.911L194.871 168.279L196.307 168.687L197.758 168.333L202.791 167.104L203.023 167.047L203.213 167.376L202.306 167.597L197.843 168.687L196.491 169.017ZM203.582 167.285L203.392 166.956L206.238 166.262L213.41 164.51L214.452 164.255L214.538 164.61L213.52 164.858L207.1 166.426L203.582 167.285ZM214.498 163.87L213.611 163.409L199.377 156.008C199.429 155.9 199.484 155.787 199.536 155.68L213.842 163.118L214.648 163.537L214.665 163.546H214.666L214.649 163.579L214.498 163.87Z" fill="#E4F5FD"/>
<path d="M208.752 176.92L208.32 176.177L205.35 171.057L203.213 167.376L203.023 167.047L202.977 166.968L198.117 158.594C198.182 158.461 198.245 158.332 198.309 158.199L203.289 166.779L203.392 166.957L203.582 167.285L205.774 171.062L208.666 176.046L209.067 176.737L208.752 176.92Z" fill="#E4F5FD"/>
<path d="M196.739 184.442L196.726 184.128L196.678 182.901L196.464 177.514L196.277 172.808L196.182 170.424L196.161 169.879L196.143 169.441L196.126 169.015L196.12 168.883L196.485 168.868L196.491 169.017L196.518 169.671L196.535 170.108L196.547 170.41L196.643 172.808L196.83 177.537L197.043 182.886L197.092 184.128L197.104 184.427L196.739 184.442Z" fill="#E4F5FD"/>
<path d="M300.411 140.77H299.062C298.689 140.77 298.387 141.071 298.387 141.444C298.387 141.816 298.689 142.118 299.062 142.118H300.411C300.783 142.118 301.085 141.816 301.085 141.444C301.085 141.071 300.783 140.77 300.411 140.77Z" fill="white"/>
<path d="M295.346 140.77H292.558C292.186 140.77 291.883 141.071 291.883 141.444C291.883 141.816 292.186 142.118 292.558 142.118H295.346C295.718 142.118 296.02 141.816 296.02 141.444C296.02 141.071 295.718 140.77 295.346 140.77ZM288.841 140.77H286.054C285.682 140.77 285.38 141.071 285.38 141.444C285.38 141.816 285.682 142.118 286.054 142.118H288.841C289.214 142.118 289.516 141.816 289.516 141.444C289.516 141.071 289.214 140.77 288.841 140.77ZM282.338 140.77H279.551C279.178 140.77 278.877 141.071 278.877 141.444C278.877 141.816 279.178 142.118 279.551 142.118H282.338C282.71 142.118 283.012 141.816 283.012 141.444C283.012 141.071 282.71 140.77 282.338 140.77ZM275.835 140.77H273.048C272.675 140.77 272.373 141.071 272.373 141.444C272.373 141.816 272.675 142.118 273.048 142.118H275.835C276.207 142.118 276.508 141.816 276.508 141.444C276.508 141.071 276.207 140.77 275.835 140.77ZM269.331 140.77H266.545C266.171 140.77 265.87 141.071 265.87 141.444C265.87 141.816 266.171 142.118 266.545 142.118H269.331C269.703 142.118 270.005 141.816 270.005 141.444C270.005 141.071 269.703 140.77 269.331 140.77ZM262.828 140.77H260.04C259.668 140.77 259.367 141.071 259.367 141.444C259.367 141.816 259.668 142.118 260.04 142.118H262.828C263.2 142.118 263.502 141.816 263.502 141.444C263.502 141.071 263.2 140.77 262.828 140.77Z" fill="white"/>
<path d="M256.325 140.77H254.976C254.771 140.77 254.578 140.862 254.45 141.022L253.606 142.072C253.372 142.363 253.418 142.787 253.708 143.021C253.999 143.254 254.423 143.208 254.657 142.917L255.298 142.118H256.325C256.697 142.118 256.998 141.816 256.998 141.444C256.998 141.071 256.697 140.77 256.325 140.77Z" fill="white"/>
<path d="M251.037 145.266L249.111 147.66C248.878 147.951 248.924 148.375 249.213 148.608C249.504 148.842 249.928 148.796 250.162 148.505L252.088 146.111C252.322 145.82 252.276 145.396 251.985 145.163C251.695 144.929 251.27 144.975 251.037 145.266Z" fill="white"/>
<path d="M246.544 150.854L245.698 151.904C245.464 152.195 245.51 152.619 245.8 152.853C246.091 153.086 246.514 153.04 246.748 152.75L247.594 151.698C247.828 151.409 247.782 150.985 247.491 150.751C247.202 150.517 246.777 150.563 246.544 150.854Z" fill="white"/>
<path d="M303.752 141.444C303.752 143.027 302.472 144.309 300.887 144.309C299.304 144.309 298.021 143.027 298.021 141.444C298.021 139.862 299.304 138.577 300.887 138.577C302.472 138.577 303.752 139.862 303.752 141.444Z" fill="white"/>
<path d="M249.089 152.327C249.089 153.909 247.806 155.193 246.223 155.193C244.639 155.193 243.355 153.909 243.355 152.327C243.355 150.744 244.639 149.461 246.223 149.461C247.806 149.461 249.089 150.744 249.089 152.327Z" fill="white"/>
<path d="M384 115.977H310.194V164.075H384V115.977Z" fill="white"/>
<path d="M326.072 129.743C326.072 129.929 319.397 123.672 319.397 123.672C321.048 121.86 323.428 120.721 326.072 120.721V129.743Z" fill="#82B1DE"/>
<path d="M335.092 129.743H326.072V120.721C331.054 120.721 335.092 124.761 335.092 129.743Z" fill="#F99B2C"/>
<path d="M317.048 129.751H326.072V138.774C321.087 138.774 317.048 134.734 317.048 129.751Z" fill="#118C96"/>
<path d="M326.072 129.744H317.048C317.048 127.406 317.94 125.276 319.397 123.673L326.072 129.744Z" fill="#061838"/>
<path d="M326.072 129.753C326.072 129.567 332.745 135.824 332.745 135.824C331.093 137.637 328.716 138.776 326.072 138.776V129.753Z" fill="#F495BF"/>
<path d="M326.072 129.753H335.092C335.092 132.092 334.204 134.222 332.745 135.824L326.072 129.753Z" fill="#EB507E"/>
<path d="M326.074 150.297C326.074 150.484 319.399 144.227 319.399 144.227C321.05 142.414 323.43 141.276 326.074 141.276V150.297Z" fill="#82B1DE"/>
<path d="M335.093 150.297H326.074V141.276C331.054 141.276 335.093 145.315 335.093 150.297Z" fill="#F99B2C"/>
<path d="M317.052 150.306H326.074V159.328C321.09 159.328 317.052 155.289 317.052 150.306Z" fill="#118C96"/>
<path d="M326.074 150.297H317.052C317.052 147.959 317.942 145.829 319.398 144.227L326.074 150.297Z" fill="#061838"/>
<path d="M326.074 150.308C326.074 150.121 332.745 156.377 332.745 156.377C331.095 158.191 328.716 159.329 326.074 159.329V150.308Z" fill="#F495BF"/>
<path d="M326.074 150.308H335.093C335.093 152.645 334.204 154.775 332.745 156.377L326.074 150.308Z" fill="#EB507E"/>
<path d="M377.144 123.236H340.739V125.057H377.144V123.236Z" fill="#061838"/>
<path d="M377.144 128.838H340.739V130.659H377.144V128.838Z" fill="#061838"/>
<path d="M377.144 134.441H340.739V136.263H377.144V134.441Z" fill="#061838"/>
<path d="M376.609 143.789H340.205V145.61H376.609V143.789Z" fill="#061838"/>
<path d="M376.609 149.392H340.205V151.214H376.609V149.392Z" fill="#061838"/>
<path d="M376.609 154.995H340.205V156.816H376.609V154.995Z" fill="#061838"/>
<path d="M300.411 260.685H299.062C298.689 260.685 298.387 260.986 298.387 261.359C298.387 261.731 298.689 262.034 299.062 262.034H300.411C300.783 262.034 301.085 261.731 301.085 261.359C301.085 260.986 300.783 260.685 300.411 260.685Z" fill="white"/>
<path d="M295.346 260.685H292.558C292.186 260.685 291.883 260.986 291.883 261.359C291.883 261.731 292.186 262.034 292.558 262.034H295.346C295.718 262.034 296.02 261.731 296.02 261.359C296.02 260.986 295.718 260.685 295.346 260.685ZM288.841 260.685H286.054C285.682 260.685 285.38 260.986 285.38 261.359C285.38 261.731 285.682 262.034 286.054 262.034H288.841C289.214 262.034 289.516 261.731 289.516 261.359C289.516 260.986 289.214 260.685 288.841 260.685ZM282.338 260.685H279.551C279.178 260.685 278.877 260.986 278.877 261.359C278.877 261.731 279.178 262.034 279.551 262.034H282.338C282.71 262.034 283.012 261.731 283.012 261.359C283.012 260.986 282.71 260.685 282.338 260.685ZM275.835 260.685H273.048C272.675 260.685 272.373 260.986 272.373 261.359C272.373 261.731 272.675 262.034 273.048 262.034H275.835C276.207 262.034 276.508 261.731 276.508 261.359C276.508 260.986 276.207 260.685 275.835 260.685ZM269.331 260.685H266.545C266.171 260.685 265.87 260.986 265.87 261.359C265.87 261.731 266.171 262.034 266.545 262.034H269.331C269.703 262.034 270.005 261.731 270.005 261.359C270.005 260.986 269.703 260.685 269.331 260.685ZM262.828 260.685H260.04C259.668 260.685 259.367 260.986 259.367 261.359C259.367 261.731 259.668 262.034 260.04 262.034H262.828C263.2 262.034 263.502 261.731 263.502 261.359C263.502 260.986 263.2 260.685 262.828 260.685Z" fill="white"/>
<path d="M256.325 260.685H255.298L254.656 259.885C254.423 259.595 253.999 259.55 253.708 259.783C253.418 260.016 253.372 260.44 253.605 260.73L254.45 261.782C254.577 261.941 254.771 262.034 254.976 262.034H256.325C256.697 262.034 256.998 261.731 256.998 261.359C256.998 260.986 256.697 260.685 256.325 260.685Z" fill="white"/>
<path d="M252.088 256.692L250.162 254.298C249.929 254.007 249.505 253.961 249.215 254.194C248.924 254.428 248.878 254.852 249.112 255.143L251.037 257.537C251.27 257.828 251.695 257.873 251.985 257.64C252.276 257.406 252.322 256.982 252.088 256.692Z" fill="white"/>
<path d="M247.594 251.105L246.748 250.053C246.514 249.764 246.091 249.718 245.8 249.951C245.51 250.184 245.464 250.609 245.698 250.899L246.544 251.951C246.777 252.24 247.202 252.287 247.491 252.053C247.782 251.82 247.828 251.395 247.594 251.105Z" fill="white"/>
<path d="M303.752 261.359C303.752 259.775 302.472 258.492 300.887 258.492C299.304 258.492 298.021 259.775 298.021 261.359C298.021 262.941 299.304 264.224 300.887 264.224C302.472 264.224 303.752 262.941 303.752 261.359Z" fill="white"/>
<path d="M249.089 250.476C249.089 248.893 247.808 247.609 246.224 247.609C244.639 247.609 243.357 248.893 243.357 250.476C243.357 252.058 244.639 253.342 246.224 253.342C247.808 253.342 249.089 252.058 249.089 250.476Z" fill="white"/>
<path d="M384 233.854H310.194V281.953H384V233.854Z" fill="white"/>
<path d="M326.072 249.46C326.072 249.647 319.399 243.39 319.399 243.39C321.048 241.577 323.428 240.438 326.072 240.438V249.46Z" fill="#82B1DE"/>
<path d="M335.093 249.46H326.072V240.438C331.054 240.438 335.093 244.48 335.093 249.46Z" fill="#F99B2C"/>
<path d="M317.05 249.469H326.072V258.49C321.087 258.49 317.05 254.451 317.05 249.469Z" fill="#118C96"/>
<path d="M326.072 249.46H317.05C317.05 247.123 317.94 244.992 319.399 243.39L326.072 249.46Z" fill="#061838"/>
<path d="M326.072 249.471C326.072 249.285 332.745 255.542 332.745 255.542C331.095 257.354 328.716 258.492 326.072 258.492V249.471Z" fill="#F495BF"/>
<path d="M326.072 249.471H335.093C335.093 251.81 334.204 253.939 332.745 255.542L326.072 249.471Z" fill="#EB507E"/>
<path d="M377.144 242.952H340.739V244.774H377.144V242.952Z" fill="#061838"/>
<path d="M377.144 248.554H340.739V250.376H377.144V248.554Z" fill="#061838"/>
<path d="M377.144 254.158H340.739V255.979H377.144V254.158Z" fill="#061838"/>
<path d="M331.412 264.557H320.889V275.079H331.412V264.557Z" fill="#82B1DE"/>
<path d="M345.377 264.557H334.854V275.079H345.377V264.557Z" fill="#F99B2C"/>
<path d="M359.341 264.557H348.819V275.079H359.341V264.557Z" fill="#118C96"/>
<path d="M373.306 264.557H362.783V275.079H373.306V264.557Z" fill="#EB507E"/>
<path d="M83.5902 142.118H84.9382C85.3113 142.118 85.6127 141.816 85.6127 141.444C85.6127 141.071 85.3113 140.77 84.9382 140.77H83.5902C83.2171 140.77 82.9156 141.071 82.9156 141.444C82.9156 141.816 83.2171 142.118 83.5902 142.118Z" fill="white"/>
<path d="M88.6544 142.118H91.4412C91.8133 142.118 92.1158 141.816 92.1158 141.444C92.1158 141.071 91.8133 140.77 91.4412 140.77H88.6544C88.2813 140.77 87.9799 141.071 87.9799 141.444C87.9799 141.816 88.2813 142.118 88.6544 142.118ZM95.1577 142.118H97.9445C98.3176 142.118 98.6191 141.816 98.6191 141.444C98.6191 141.071 98.3176 140.77 97.9445 140.77H95.1577C94.7846 140.77 94.4832 141.071 94.4832 141.444C94.4832 141.816 94.7846 142.118 95.1577 142.118ZM101.661 142.118H104.448C104.82 142.118 105.122 141.816 105.122 141.444C105.122 141.071 104.82 140.77 104.448 140.77H101.661C101.288 140.77 100.986 141.071 100.986 141.444C100.986 141.816 101.288 142.118 101.661 142.118ZM108.164 142.118H110.951C111.323 142.118 111.626 141.816 111.626 141.444C111.626 141.071 111.323 140.77 110.951 140.77H108.164C107.791 140.77 107.49 141.071 107.49 141.444C107.49 141.816 107.791 142.118 108.164 142.118ZM114.668 142.118H117.454C117.827 142.118 118.129 141.816 118.129 141.444C118.129 141.071 117.827 140.77 117.454 140.77H114.668C114.296 140.77 113.993 141.071 113.993 141.444C113.993 141.816 114.296 142.118 114.668 142.118ZM121.171 142.118H123.959C124.331 142.118 124.632 141.816 124.632 141.444C124.632 141.071 124.331 140.77 123.959 140.77H121.171C120.798 140.77 120.496 141.071 120.496 141.444C120.496 141.816 120.798 142.118 121.171 142.118Z" fill="white"/>
<path d="M127.674 142.118H128.7L129.343 142.917C129.575 143.208 130 143.254 130.291 143.021C130.581 142.787 130.626 142.363 130.394 142.072L129.549 141.022C129.421 140.862 129.228 140.77 129.023 140.77H127.674C127.302 140.77 127 141.071 127 141.444C127 141.816 127.302 142.118 127.674 142.118Z" fill="white"/>
<path d="M131.91 146.111L133.837 148.505C134.07 148.796 134.494 148.842 134.785 148.608C135.075 148.375 135.12 147.951 134.888 147.66L132.962 145.266C132.728 144.975 132.304 144.929 132.013 145.163C131.724 145.396 131.677 145.82 131.91 146.111Z" fill="white"/>
<path d="M136.404 151.698L137.25 152.75C137.484 153.04 137.908 153.086 138.199 152.853C138.489 152.619 138.534 152.195 138.302 151.904L137.456 150.854C137.222 150.563 136.797 150.517 136.507 150.751C136.216 150.985 136.171 151.409 136.404 151.698Z" fill="white"/>
<path d="M80.2468 141.444C80.2468 143.027 81.5293 144.309 83.1123 144.309C84.6953 144.309 85.9798 143.027 85.9798 141.444C85.9798 139.862 84.6953 138.577 83.1123 138.577C81.5293 138.577 80.2468 139.862 80.2468 141.444Z" fill="white"/>
<path d="M134.912 152.327C134.912 153.909 136.193 155.193 137.776 155.193C139.362 155.193 140.644 153.909 140.644 152.327C140.644 150.744 139.362 149.461 137.776 149.461C136.193 149.461 134.912 150.744 134.912 152.327Z" fill="white"/>
<path d="M73.8049 115.977H0V164.075H73.8049V115.977Z" fill="white"/>
<path d="M17.4832 149.047C17.4832 149.234 24.1589 142.977 24.1589 142.977C22.5073 141.164 20.1288 140.025 17.4832 140.025V149.047Z" fill="#82B1DE"/>
<path d="M8.46228 149.047H17.4832V140.025C12.4994 140.025 8.46228 144.066 8.46228 149.047Z" fill="#F99B2C"/>
<path d="M26.5061 149.055H17.4832V158.077C22.466 158.077 26.5061 154.038 26.5061 149.055Z" fill="#118C96"/>
<path d="M17.4832 149.048H26.5061C26.5061 146.71 25.6148 144.579 24.1589 142.977L17.4832 149.048Z" fill="#061838"/>
<path d="M17.4831 149.058C17.4831 148.871 10.8104 155.129 10.8104 155.129C12.461 156.941 14.8394 158.08 17.4831 158.08V149.058Z" fill="#F495BF"/>
<path d="M17.4832 149.058H8.46228C8.46228 151.396 9.35056 153.525 10.8105 155.128L17.4832 149.058Z" fill="#EB507E"/>
<path d="M66.8477 122.324H6.85706V124.145H66.8477V122.324Z" fill="#061838"/>
<path d="M66.8477 127.927H6.85706V129.747H66.8477V127.927Z" fill="#061838"/>
<path d="M66.8477 133.529H6.85706V135.351H66.8477V133.529Z" fill="#061838"/>
<path d="M65.6743 145.233H31.2784V152.327H65.6743V145.233Z" fill="#82B1DE"/>
<path d="M65.674 145.233H47.739V152.327H65.674V145.233Z" fill="#061838"/>
<path d="M83.5902 262.034H84.9382C85.3113 262.034 85.6127 261.731 85.6127 261.359C85.6127 260.986 85.3113 260.685 84.9382 260.685H83.5902C83.2171 260.685 82.9156 260.986 82.9156 261.359C82.9156 261.731 83.2171 262.034 83.5902 262.034Z" fill="white"/>
<path d="M88.6544 262.034H91.4412C91.8133 262.034 92.1158 261.731 92.1158 261.359C92.1158 260.986 91.8133 260.685 91.4412 260.685H88.6544C88.2813 260.685 87.9799 260.986 87.9799 261.359C87.9799 261.731 88.2813 262.034 88.6544 262.034ZM95.1577 262.034H97.9445C98.3176 262.034 98.6191 261.731 98.6191 261.359C98.6191 260.986 98.3176 260.685 97.9445 260.685H95.1577C94.7846 260.685 94.4832 260.986 94.4832 261.359C94.4832 261.731 94.7846 262.034 95.1577 262.034ZM101.661 262.034H104.448C104.82 262.034 105.122 261.731 105.122 261.359C105.122 260.986 104.82 260.685 104.448 260.685H101.661C101.288 260.685 100.986 260.986 100.986 261.359C100.986 261.731 101.288 262.034 101.661 262.034ZM108.164 262.034H110.951C111.323 262.034 111.626 261.731 111.626 261.359C111.626 260.986 111.323 260.685 110.951 260.685H108.164C107.791 260.685 107.49 260.986 107.49 261.359C107.49 261.731 107.791 262.034 108.164 262.034ZM114.668 262.034H117.454C117.827 262.034 118.129 261.731 118.129 261.359C118.129 260.986 117.827 260.685 117.454 260.685H114.668C114.296 260.685 113.993 260.986 113.993 261.359C113.993 261.731 114.296 262.034 114.668 262.034ZM121.171 262.034H123.959C124.331 262.034 124.632 261.731 124.632 261.359C124.632 260.986 124.331 260.685 123.959 260.685H121.171C120.798 260.685 120.496 260.986 120.496 261.359C120.496 261.731 120.798 262.034 121.171 262.034Z" fill="white"/>
<path d="M127.674 262.034H129.023C129.228 262.034 129.421 261.941 129.549 261.782L130.394 260.73C130.626 260.44 130.581 260.016 130.291 259.782C130 259.549 129.576 259.596 129.343 259.885L128.7 260.685H127.674C127.302 260.685 127 260.986 127 261.359C127 261.731 127.302 262.034 127.674 262.034Z" fill="white"/>
<path d="M132.962 257.537L134.888 255.143C135.12 254.852 135.074 254.428 134.784 254.194C134.493 253.961 134.069 254.007 133.836 254.298L131.91 256.692C131.677 256.982 131.724 257.406 132.013 257.64C132.304 257.873 132.728 257.828 132.962 257.537Z" fill="white"/>
<path d="M137.456 251.951L138.302 250.899C138.534 250.609 138.489 250.184 138.199 249.951C137.908 249.718 137.484 249.764 137.25 250.053L136.404 251.105C136.171 251.395 136.216 251.82 136.507 252.053C136.797 252.287 137.222 252.24 137.456 251.951Z" fill="white"/>
<path d="M80.2468 261.359C80.2468 259.775 81.5293 258.492 83.1123 258.492C84.6953 258.492 85.9798 259.775 85.9798 261.359C85.9798 262.941 84.6953 264.224 83.1123 264.224C81.5293 264.224 80.2468 262.941 80.2468 261.359Z" fill="white"/>
<path d="M134.91 250.476C134.91 248.893 136.193 247.609 137.776 247.609C139.36 247.609 140.644 248.893 140.644 250.476C140.644 252.058 139.36 253.342 137.776 253.342C136.193 253.342 134.91 252.058 134.91 250.476Z" fill="white"/>
<path d="M73.8049 233.854H0V281.953H73.8049V233.854Z" fill="white"/>
<path d="M20.4254 248.866C20.4254 249.053 27.1021 242.796 27.1021 242.796C25.4486 240.984 23.0711 239.845 20.4254 239.845V248.866Z" fill="#82B1DE"/>
<path d="M11.4043 248.866H20.4252V239.845C15.4434 239.845 11.4043 243.884 11.4043 248.866Z" fill="#F99B2C"/>
<path d="M29.4494 248.875H20.4254V257.897C25.4083 257.897 29.4494 253.856 29.4494 248.875Z" fill="#118C96"/>
<path d="M20.4254 248.866H29.4494C29.4494 246.528 28.5571 244.397 27.1021 242.796L20.4254 248.866Z" fill="#061838"/>
<path d="M20.4254 248.876C20.4254 248.689 13.7517 254.947 13.7517 254.947C15.4022 256.761 17.7817 257.899 20.4254 257.899V248.876Z" fill="#F495BF"/>
<path d="M20.4252 248.876H11.4043C11.4043 251.214 12.2926 253.343 13.7515 254.946L20.4252 248.876Z" fill="#EB507E"/>
<path d="M52.5809 248.866C52.5809 249.053 59.2566 242.796 59.2566 242.796C57.6061 240.984 55.2256 239.845 52.5809 239.845V248.866Z" fill="#82B1DE"/>
<path d="M43.5591 248.866H52.581V239.845C47.6002 239.845 43.5591 243.884 43.5591 248.866Z" fill="#F99B2C"/>
<path d="M61.6039 248.875H52.5809V257.897C57.5638 257.897 61.6039 253.856 61.6039 248.875Z" fill="#118C96"/>
<path d="M52.5809 248.866H61.6039C61.6039 246.528 60.7136 244.397 59.2566 242.796L52.5809 248.866Z" fill="#061838"/>
<path d="M52.581 248.876C52.581 248.689 45.9062 254.947 45.9062 254.947C47.5578 256.761 49.9383 257.899 52.581 257.899V248.876Z" fill="#F495BF"/>
<path d="M52.581 248.876H43.5591C43.5591 251.214 44.4504 253.343 45.9063 254.946L52.581 248.876Z" fill="#EB507E"/>
<path d="M67.9829 265.029H7.88843V272.668H67.9829V265.029Z" fill="#82B1DE"/>
<path d="M67.983 265.029H25.9949V272.668H67.983V265.029Z" fill="#061838"/>
</svg>
