<svg width="22" height="22" viewBox="0 0 22 22" fill="none" xmlns="http://www.w3.org/2000/svg">
<g clip-path="url(#clip0_3813_15771)">
<path d="M21.5187 22H0.55C0.20625 22 0 21.7937 0 21.5187V9.4875C0 9.14375 0.20625 8.9375 0.55 8.9375H21.5187C21.7937 8.9375 22.0687 9.14375 22.0687 9.4875V21.5187C22 21.7937 21.7937 22 21.5187 22ZM1.03125 20.9688H20.9688V9.96875H1.03125V20.9688Z" fill="#8B8D91"/>
<path d="M13.1996 3.23135C13.0621 3.23135 12.9246 3.1626 12.8559 3.09385L10.9996 1.2376L9.14336 3.09385C8.93711 3.3001 8.59336 3.3001 8.38711 3.09385C8.18086 2.8876 8.18086 2.54385 8.38711 2.3376L10.5871 0.137598C10.7934 -0.0686523 11.1371 -0.0686523 11.3434 0.137598L13.5434 2.3376C13.7496 2.54385 13.7496 2.8876 13.5434 3.09385C13.4746 3.1626 13.3371 3.23135 13.1996 3.23135Z" fill="#8B8D91"/>
<path d="M11.0002 7.76875C10.7252 7.76875 10.4502 7.5625 10.4502 7.21875V0.55C10.5189 0.20625 10.7252 0 11.0002 0C11.2752 0 11.5502 0.20625 11.5502 0.55V7.2875C11.5502 7.5625 11.2752 7.76875 11.0002 7.76875Z" fill="#8B8D91"/>
<path d="M10.9996 18.4938C9.34961 18.4938 7.97461 17.1188 7.97461 15.4688C7.97461 13.8188 9.34961 12.4438 10.9996 12.4438C12.6496 12.4438 14.0246 13.8188 14.0246 15.4688C14.0246 17.1188 12.6496 18.4938 10.9996 18.4938ZM10.9996 13.4751C9.89961 13.4751 9.00586 14.3688 9.00586 15.4688C9.00586 16.5688 9.89961 17.4626 10.9996 17.4626C12.0996 17.4626 12.9934 16.5688 12.9934 15.4688C12.9934 14.3688 12.0996 13.4751 10.9996 13.4751Z" fill="#8B8D91"/>
<path d="M6.0502 16.0189H3.4377C3.1627 16.0189 2.8877 15.8127 2.8877 15.4689C2.8877 15.1252 3.09395 14.9189 3.4377 14.9189H6.0502C6.3252 14.9189 6.6002 15.1252 6.6002 15.4689C6.6002 15.8127 6.3252 16.0189 6.0502 16.0189Z" fill="#8B8D91"/>
<path d="M18.5629 16.0189H15.9504C15.6754 16.0189 15.4004 15.8127 15.4004 15.4689C15.4004 15.1252 15.6066 14.9189 15.9504 14.9189H18.5629C18.8379 14.9189 19.1129 15.1252 19.1129 15.4689C19.1129 15.8127 18.8379 16.0189 18.5629 16.0189Z" fill="#8B8D91"/>
</g>
<defs>
<clipPath id="clip0_3813_15771">
<rect width="22" height="22" fill="#8B8D91"/>
</clipPath>
</defs>
</svg>
