<svg width="28" height="28" viewBox="0 0 28 28" fill="none" xmlns="http://www.w3.org/2000/svg">
<g clip-path="url(#clip0_3896_1178)">
<mask id="mask0_3896_1178" style="mask-type:luminance" maskUnits="userSpaceOnUse" x="0" y="0" width="28" height="28">
<path d="M0 3.8147e-06H28V28H0V3.8147e-06Z" fill="white"/>
</mask>
<g mask="url(#mask0_3896_1178)">
<path d="M2.79831 19.7605C2.8116 20.4957 2.80613 21.3186 2.78174 21.5676C2.77666 21.6252 2.77441 21.6854 2.77441 21.7452C2.77441 22.3106 3.25468 22.9861 4.20148 23.7528C4.23621 24.0435 4.23331 24.3376 4.19235 24.6276C4.19235 25.1531 4.61804 25.5791 5.14315 25.5791C5.66831 25.5791 6.094 25.1531 6.094 24.6276C6.05309 24.3376 6.0502 24.0436 6.08487 23.753C7.032 22.986 7.51205 22.3106 7.51205 21.7453C7.51205 21.6854 7.5098 21.6253 7.50472 21.5661C7.48038 21.3177 7.47491 19.5798 7.48815 18.8449" stroke="white" stroke-width="0.820312" stroke-miterlimit="10" stroke-linejoin="round"/>
<path d="M1.55878 26.7783C1.16513 26.5907 0.788502 26.3731 0.431885 26.1285C0.644783 25.2671 1.42238 24.6278 2.34961 24.6278H4.19263" stroke="white" stroke-width="0.820312" stroke-miterlimit="10" stroke-linecap="round" stroke-linejoin="round"/>
<path d="M6.09402 24.6274H7.93704C8.86427 24.6274 9.64187 25.2668 9.85477 26.1281C8.51432 27.0474 6.89152 27.5854 5.14316 27.5854C4.56277 27.5854 3.9962 27.5261 3.44922 27.4133" stroke="white" stroke-width="0.820312" stroke-miterlimit="10" stroke-linecap="round" stroke-linejoin="round"/>
<path d="M6.31916 17.676H2.04102V18.9492C2.04102 19.3974 2.40436 19.7607 2.85252 19.7607H6.57275C7.07839 19.7607 7.48833 19.3508 7.48833 18.8452C7.48833 18.1995 6.96486 17.676 6.31916 17.676Z" stroke="white" stroke-width="0.820312" stroke-miterlimit="10" stroke-linejoin="round"/>
<path d="M20.5547 19.7605C20.5679 20.4957 20.5625 21.3186 20.5381 21.5676C20.533 21.6252 20.5308 21.6854 20.5308 21.7452C20.5308 22.3106 21.011 22.9861 21.9578 23.7528C21.9926 24.0435 21.9897 24.3376 21.9488 24.6276C21.9487 25.1531 22.3744 25.5791 22.8995 25.5791C23.4247 25.5791 23.8504 25.1531 23.8504 24.6276C23.8094 24.3376 23.8065 24.0436 23.8412 23.753C24.7883 22.986 25.2684 22.3106 25.2684 21.7453C25.2684 21.6854 25.2662 21.6253 25.2611 21.5661C25.2367 21.3177 25.2313 19.5798 25.2445 18.8449" stroke="white" stroke-width="0.820312" stroke-miterlimit="10" stroke-linejoin="round"/>
<path d="M26.4843 26.7783C26.8779 26.5907 27.2545 26.3731 27.6111 26.1285C27.3982 25.2671 26.6206 24.6278 25.6934 24.6278H23.8503" stroke="white" stroke-width="0.820312" stroke-miterlimit="10" stroke-linecap="round" stroke-linejoin="round"/>
<path d="M21.949 24.6274H20.106C19.1787 24.6274 18.4011 25.2668 18.1882 26.1281C19.5287 27.0474 21.1515 27.5854 22.8998 27.5854C23.4802 27.5854 24.0468 27.5261 24.5938 27.4133" stroke="white" stroke-width="0.820312" stroke-miterlimit="10" stroke-linecap="round" stroke-linejoin="round"/>
<path d="M24.0755 17.676H19.7974V18.9492C19.7974 19.3974 20.1607 19.7607 20.6089 19.7607H24.3291C24.8347 19.7607 25.2447 19.3508 25.2447 18.8452C25.2447 18.1995 24.7212 17.676 24.0755 17.676Z" stroke="white" stroke-width="0.820312" stroke-miterlimit="10" stroke-linejoin="round"/>
<path d="M7.29733 8.41975C6.0364 9.93186 5.27783 11.8773 5.27783 13.9998C5.27783 14.6936 5.35888 15.3686 5.51206 16.0156" stroke="white" stroke-width="0.820312" stroke-miterlimit="10" stroke-linecap="round" stroke-linejoin="round"/>
<path d="M20.7031 8.4261C21.9641 9.93821 22.7226 11.8836 22.7226 14.0061C22.7226 14.7 22.6416 15.3749 22.4884 16.022" stroke="white" stroke-width="0.820312" stroke-miterlimit="10" stroke-linecap="round" stroke-linejoin="round"/>
<path d="M9.28845 21.3398C10.6473 22.2134 12.2645 22.7202 14.0001 22.7202C15.7357 22.7202 17.3529 22.2134 18.7118 21.3398" stroke="white" stroke-width="0.820312" stroke-miterlimit="10" stroke-linecap="round" stroke-linejoin="round"/>
<path d="M11.655 2.49142C11.6683 3.22669 11.6628 4.04957 11.6384 4.29851C11.6334 4.35615 11.6311 4.41625 11.6311 4.47619C11.6311 5.04155 12.1114 5.71711 13.0582 6.48366C13.0929 6.77438 13.0901 7.06854 13.0491 7.35861C13.049 7.8841 13.4747 8.31006 13.9999 8.31006C14.525 8.31006 14.9507 7.8841 14.9507 7.35861C14.9098 7.0686 14.9069 6.7746 14.9416 6.48399C15.8887 5.71694 16.3688 5.04155 16.3688 4.47625C16.3688 4.41631 16.3665 4.35615 16.3615 4.29709C16.3371 4.04864 16.3316 2.31073 16.3449 1.57584" stroke="white" stroke-width="0.820312" stroke-miterlimit="10" stroke-linejoin="round"/>
<path d="M10.4153 9.50781C10.0217 9.32018 9.64507 9.10258 9.28845 8.85802C9.5013 7.99663 10.279 7.35728 11.2062 7.35728H13.0492" stroke="white" stroke-width="0.820312" stroke-miterlimit="10" stroke-linecap="round" stroke-linejoin="round"/>
<path d="M14.9509 7.35836H16.794C17.7212 7.35836 18.4988 7.99771 18.7117 8.85909C17.3713 9.77834 15.7485 10.3164 14.0001 10.3164C13.4197 10.3164 12.8531 10.2571 12.3062 10.1443" stroke="white" stroke-width="0.820312" stroke-miterlimit="10" stroke-linecap="round" stroke-linejoin="round"/>
<path d="M15.1759 0.405981H10.8977V1.67916C10.8977 2.12738 11.261 2.49072 11.7093 2.49072H15.4295C15.9351 2.49072 16.3451 2.08079 16.3451 1.57514C16.3451 0.929449 15.8216 0.405981 15.1759 0.405981Z" stroke="white" stroke-width="0.820312" stroke-miterlimit="10" stroke-linejoin="round"/>
</g>
</g>
<defs>
<clipPath id="clip0_3896_1178">
<rect width="28" height="28" fill="white"/>
</clipPath>
</defs>
</svg>
