<svg width="22" height="22" viewBox="0 0 22 22" fill="none" xmlns="http://www.w3.org/2000/svg">
<g clip-path="url(#clip0_4112_2899)">
<path d="M15.8113 11C13.1575 11 11.0001 13.1574 11.0001 15.8111C11.0001 18.4649 13.1575 20.6248 15.8113 20.6248C18.4651 20.6248 20.625 18.4649 20.625 15.8111C20.625 13.1574 18.4651 11 15.8113 11ZM15.8113 11.6877C18.0935 11.6877 19.9373 13.5289 19.9373 15.8111C19.9373 18.0934 18.0935 19.9372 15.8113 19.9372C13.529 19.9372 11.6878 18.0934 11.6878 15.8111C11.6878 13.5289 13.529 11.6877 15.8113 11.6877Z" fill="#8B8D91"/>
<path d="M15.8113 13.063C15.0092 13.063 14.5143 13.5152 14.3015 13.941C14.0886 14.3667 14.0934 14.7809 14.0934 14.7809C14.0934 15.2392 14.3713 15.5971 14.6948 15.7858C15.0182 15.9744 15.3863 16.0601 15.7301 16.1461C16.0738 16.232 16.3931 16.3182 16.5852 16.4303C16.7774 16.5424 16.8441 16.6147 16.8441 16.8439C16.8441 16.8439 16.838 17.115 16.707 17.3768C16.5762 17.6385 16.3842 17.8741 15.8113 17.8741C15.2384 17.8741 15.0464 17.6385 14.9156 17.3768C14.7847 17.115 14.7811 16.8439 14.7811 16.8439C14.7812 16.7987 14.7725 16.754 14.7554 16.7122C14.7383 16.6704 14.7131 16.6324 14.6813 16.6004C14.6495 16.5683 14.6116 16.5429 14.57 16.5254C14.5283 16.508 14.4837 16.499 14.4385 16.4988C14.3931 16.4986 14.3482 16.5074 14.3062 16.5247C14.2643 16.542 14.2262 16.5674 14.1941 16.5995C14.162 16.6316 14.1366 16.6697 14.1193 16.7116C14.102 16.7536 14.0932 16.7985 14.0934 16.8439C14.0934 16.8439 14.0886 17.2581 14.3015 17.6838C14.5143 18.1096 15.0092 18.5618 15.8113 18.5618C16.6134 18.5618 17.1108 18.1096 17.3237 17.6838C17.5365 17.2581 17.5317 16.8439 17.5317 16.8439C17.5317 16.3856 17.2538 16.0252 16.9303 15.8365C16.6069 15.6478 16.2388 15.5646 15.895 15.4787C15.5513 15.3928 15.2321 15.3041 15.0399 15.192C14.8477 15.0799 14.7811 15.0101 14.7811 14.7809C14.7811 14.7809 14.7847 14.5098 14.9156 14.248C15.0464 13.9862 15.2384 13.7507 15.8113 13.7507C16.3842 13.7507 16.5762 13.9862 16.707 14.248C16.8379 14.5098 16.8441 14.7809 16.8441 14.7809C16.8439 14.826 16.8526 14.8708 16.8697 14.9126C16.8869 14.9544 16.912 14.9924 16.9439 15.0244C16.9757 15.0565 17.0135 15.0819 17.0551 15.0994C17.0968 15.1168 17.1415 15.1258 17.1866 15.126C17.232 15.1262 17.277 15.1174 17.3189 15.1001C17.3609 15.0828 17.399 15.0574 17.4311 15.0253C17.4631 14.9932 17.4886 14.9551 17.5058 14.9132C17.5231 14.8712 17.5319 14.8263 17.5317 14.7809C17.5317 14.7809 17.5365 14.3667 17.3237 13.941C17.1108 13.5152 16.6134 13.063 15.8113 13.063Z" fill="#8B8D91"/>
<path d="M15.8113 12.0303C15.6214 12.0309 15.468 12.1855 15.4688 12.3754V13.4056H16.1564V12.3754C16.1572 12.1845 16.0022 12.0295 15.8113 12.0303Z" fill="#8B8D91"/>
<path d="M15.4688 18.2192V19.2495C15.468 19.4394 15.6214 19.5939 15.8113 19.5946C16.0022 19.5953 16.1572 19.4404 16.1564 19.2495V18.2192H15.4688Z" fill="#8B8D91"/>
<path d="M15.8114 9.625C12.3982 9.625 9.62488 12.3983 9.62488 15.8115C9.62488 19.2247 12.3982 22.0005 15.8114 22.0005C19.2246 22.0005 22.0004 19.2247 22.0004 15.8115C22.0004 12.3983 19.2246 9.625 15.8114 9.625ZM15.8114 10.3127C18.853 10.3127 21.3127 12.7699 21.3127 15.8115C21.3127 18.8531 18.853 21.3128 15.8114 21.3128C12.7697 21.3128 10.3125 18.8531 10.3125 15.8115C10.3125 12.7699 12.7697 10.3127 15.8114 10.3127Z" fill="#8B8D91"/>
<path d="M6.18651 1.37549C3.53272 1.37549 1.37537 3.53284 1.37537 6.18664C1.37537 8.84043 3.53272 11.0003 6.18651 11.0003C8.84031 11.0003 11.0002 8.84043 11.0002 6.18664C11.0002 3.53284 8.84031 1.37549 6.18651 1.37549ZM6.18651 2.06316C8.46876 2.06316 10.3125 3.90439 10.3125 6.18664C10.3125 8.46888 8.46876 10.3127 6.18651 10.3127C3.90427 10.3127 2.06304 8.46888 2.06304 6.18664C2.06304 3.90439 3.90427 2.06316 6.18651 2.06316Z" fill="#8B8D91"/>
<path d="M6.87416 2.75049C6.07208 2.75049 5.57721 3.20273 5.36434 3.62847C5.15147 4.05421 5.15626 4.46839 5.15626 4.46839V8.93697C5.15609 8.98213 5.16481 9.02687 5.18193 9.06866C5.19906 9.11044 5.22424 9.14844 5.25605 9.18049C5.28786 9.21253 5.32568 9.238 5.36733 9.25543C5.40899 9.27286 5.45367 9.28192 5.49882 9.28208H8.2495C8.29487 9.28226 8.33983 9.27345 8.38178 9.25617C8.42373 9.23889 8.46184 9.21348 8.49393 9.1814C8.52601 9.14932 8.55142 9.1112 8.5687 9.06925C8.58598 9.0273 8.59478 8.98234 8.5946 8.93697C8.59445 8.89182 8.5854 8.84713 8.56797 8.80548C8.55054 8.76382 8.52507 8.726 8.49303 8.69419C8.46098 8.66238 8.42298 8.63719 8.38119 8.62007C8.33941 8.60295 8.29466 8.59423 8.2495 8.59441H5.84393V4.46839C5.84393 4.46839 5.84754 4.19727 5.97842 3.93551C6.1093 3.67375 6.30125 3.43816 6.87416 3.43816C7.44708 3.43816 7.63903 3.67375 7.76991 3.93551C7.90079 4.19727 7.90694 4.46839 7.90694 4.46839C7.90676 4.51355 7.91548 4.5583 7.9326 4.60008C7.94972 4.64187 7.97491 4.67987 8.00672 4.71192C8.03853 4.74397 8.07635 4.76943 8.118 4.78686C8.15966 4.80429 8.20435 4.81334 8.2495 4.8135C8.29487 4.81367 8.33983 4.80487 8.38178 4.78759C8.42373 4.77031 8.46184 4.7449 8.49393 4.71282C8.52601 4.68073 8.55142 4.64262 8.5687 4.60067C8.58598 4.55872 8.59478 4.51376 8.5946 4.46839C8.5946 4.46839 8.5994 4.05421 8.38653 3.62847C8.17366 3.20273 7.67625 2.75049 6.87416 2.75049Z" fill="#8B8D91"/>
<path d="M4.46855 5.84375C4.37779 5.84406 4.29084 5.88026 4.22666 5.94443C4.16248 6.00861 4.12629 6.09556 4.12598 6.18632C4.1258 6.23147 4.13452 6.27622 4.15164 6.31801C4.16876 6.35979 4.19395 6.39779 4.22576 6.42984C4.25758 6.46189 4.29539 6.48736 4.33705 6.50479C4.37871 6.52222 4.42339 6.53127 4.46855 6.53142H6.87412C6.91949 6.5316 6.96444 6.5228 7.00639 6.50552C7.04835 6.48824 7.08646 6.46282 7.11854 6.43074C7.15062 6.39866 7.17604 6.36055 7.19332 6.31859C7.2106 6.27664 7.2194 6.23169 7.21922 6.18632C7.21907 6.14116 7.21002 6.09648 7.19259 6.05482C7.17516 6.01316 7.14969 5.97535 7.11764 5.94354C7.0856 5.91172 7.04759 5.88654 7.00581 5.86942C6.96402 5.8523 6.91927 5.84357 6.87412 5.84375H4.46855Z" fill="#8B8D91"/>
<path d="M4.46855 8.59473C4.27962 8.59538 4.12663 8.74837 4.12598 8.93729C4.12523 9.12721 4.27863 9.28174 4.46855 9.2824H5.49878V8.59473H4.46855Z" fill="#8B8D91"/>
<path d="M6.18649 0C2.7733 -7.79528e-08 -3.50787e-07 2.7733 0 6.18649C-4.54724e-07 9.59967 2.7733 12.3755 6.18649 12.3755C9.59967 12.3755 12.3755 9.59967 12.3755 6.18649C12.3755 2.7733 9.59967 1.55906e-07 6.18649 0ZM6.18649 0.687669C9.22812 0.687669 11.6878 3.14485 11.6878 6.18649C11.6878 9.22812 9.22812 11.6878 6.18649 11.6878C3.14485 11.6878 0.687669 9.22812 0.687669 6.18649C0.687669 3.14485 3.14485 0.687669 6.18649 0.687669Z" fill="#8B8D91"/>
<path d="M14.205 3.13129C14.1198 3.16445 14.0513 3.2302 14.0147 3.31399C13.939 3.48708 14.0172 3.6888 14.1898 3.76567C15.0844 4.1603 15.8989 4.7186 16.5903 5.40999C17.3089 6.12859 17.8836 6.97887 18.2803 7.91452L18.9121 7.64555C18.481 6.62854 17.8586 5.70387 17.0775 4.92278C16.326 4.17128 15.4413 3.5653 14.4689 3.13636C14.3851 3.09962 14.2902 3.0978 14.205 3.13129Z" fill="#8B8D91"/>
<path d="M19.0619 6.03908C19.0183 6.02737 18.9727 6.02439 18.9279 6.0303C18.8831 6.03621 18.8399 6.0509 18.8008 6.07352C18.7616 6.09615 18.7274 6.12627 18.6999 6.16216C18.6724 6.19805 18.6523 6.239 18.6407 6.28268L18.3514 7.35859L17.2755 7.06931C17.2318 7.0576 17.1863 7.05462 17.1415 7.06053C17.0967 7.06644 17.0535 7.08113 17.0144 7.10376C16.9752 7.12638 16.941 7.1565 16.9135 7.19239C16.886 7.22828 16.8659 7.26924 16.8543 7.31291C16.8426 7.35657 16.8396 7.4021 16.8455 7.44691C16.8514 7.49172 16.8661 7.53492 16.8887 7.57405C16.9113 7.61317 16.9415 7.64745 16.9773 7.67492C17.0132 7.70239 17.0542 7.72252 17.0979 7.73414L18.5062 8.11223C18.5498 8.12394 18.5954 8.12692 18.6402 8.121C18.685 8.11509 18.7282 8.1004 18.7673 8.07778C18.8064 8.05515 18.8407 8.02503 18.8682 7.98914C18.8957 7.95326 18.9158 7.91231 18.9274 7.86863L19.3055 6.46031C19.3172 6.41665 19.3202 6.37112 19.3143 6.32631C19.3084 6.2815 19.2937 6.2383 19.2711 6.19917C19.2484 6.16005 19.2183 6.12577 19.1824 6.0983C19.1465 6.07083 19.1056 6.0507 19.0619 6.03908Z" fill="#8B8D91"/>
<path d="M3.08813 14.355C3.51928 15.372 4.14168 16.2967 4.92277 17.0777C5.67426 17.8292 6.55897 18.4352 7.53134 18.8642C7.70582 18.9412 7.90967 18.8614 7.98556 18.6865C8.0609 18.5127 7.98147 18.3107 7.80793 18.2348C6.91334 17.8402 6.10135 17.2819 5.40997 16.5905C4.69136 15.8719 4.11664 15.0216 3.71998 14.0859L3.08813 14.355Z" fill="#8B8D91"/>
<path d="M3.49416 13.8877C3.4505 13.876 3.40497 13.873 3.36016 13.8789C3.31536 13.8848 3.27216 13.8995 3.23303 13.9222C3.19391 13.9448 3.15963 13.9749 3.13216 14.0108C3.10468 14.0467 3.08456 14.0876 3.07293 14.1313L2.69484 15.5396C2.68313 15.5833 2.68015 15.6288 2.68606 15.6736C2.69197 15.7184 2.70666 15.7616 2.72928 15.8008C2.75191 15.8399 2.78203 15.8742 2.81792 15.9016C2.85381 15.9291 2.89476 15.9492 2.93844 15.9609C2.98209 15.9726 3.02763 15.9756 3.07244 15.9696C3.11725 15.9637 3.16045 15.949 3.19957 15.9264C3.2387 15.9038 3.27298 15.8737 3.30045 15.8378C3.32792 15.8019 3.34804 15.7609 3.35967 15.7173L3.64641 14.6413L4.72486 14.9306C4.76851 14.9423 4.81405 14.9453 4.85885 14.9394C4.90366 14.9335 4.94687 14.9188 4.98599 14.8962C5.02512 14.8736 5.0594 14.8434 5.08687 14.8075C5.11434 14.7717 5.13446 14.7307 5.14609 14.687C5.15779 14.6434 5.16078 14.5978 5.15487 14.553C5.14896 14.5082 5.13427 14.465 5.11164 14.4259C5.08902 14.3868 5.0589 14.3525 5.02301 14.325C4.98712 14.2975 4.94616 14.2774 4.90248 14.2658L3.49416 13.8877Z" fill="#8B8D91"/>
</g>
<defs>
<clipPath id="clip0_4112_2899">
<rect width="22" height="22" fill="white"/>
</clipPath>
</defs>
</svg>
