<svg width="20" height="20" viewBox="0 0 20 20" fill="none" xmlns="http://www.w3.org/2000/svg">
<g clip-path="url(#clip0_3338_657)">
<path d="M15.9042 0C15.9042 0.363438 15.6085 0.659102 15.2451 0.659102C14.8817 0.659102 14.586 0.363438 14.586 0H13.2816C13.2816 0.363438 12.986 0.659102 12.6226 0.659102C12.2592 0.659102 11.9635 0.363438 11.9635 0H10.6591C10.6591 0.363438 10.3634 0.659102 10 0.659102C9.63664 0.659102 9.34094 0.363438 9.34094 0H8.0366C8.0366 0.363438 7.7409 0.659102 7.3775 0.659102C7.0141 0.659102 6.71844 0.363438 6.71844 0H5.4141C5.4141 0.363438 5.1184 0.659102 4.755 0.659102C4.3916 0.659102 4.0959 0.363438 4.0959 0H2.79156V20H4.0959C4.0959 19.6366 4.3916 19.3409 4.755 19.3409C5.1184 19.3409 5.4141 19.6366 5.4141 20H6.71844C6.71844 19.6366 7.0141 19.3409 7.3775 19.3409C7.7409 19.3409 8.0366 19.6366 8.0366 20H9.34094C9.34094 19.6366 9.63664 19.3409 10 19.3409C10.3634 19.3409 10.6591 19.6366 10.6591 20H11.9635C11.9635 19.6366 12.2592 19.3409 12.6226 19.3409C12.986 19.3409 13.2816 19.6366 13.2816 20H14.586C14.586 19.6366 14.8817 19.3409 15.2451 19.3409C15.6085 19.3409 15.9042 19.6366 15.9042 20H17.2085V0H15.9042ZM15.9042 18.1504C15.6981 18.0767 15.4761 18.0366 15.2451 18.0366C14.7415 18.0366 14.2817 18.2273 13.9338 18.5401C13.5859 18.2273 13.1262 18.0366 12.6226 18.0366C12.119 18.0366 11.6593 18.2273 11.3114 18.5401C10.9634 18.2273 10.5037 18.0366 10.0001 18.0366C9.49656 18.0366 9.03676 18.2273 8.68887 18.5401C8.34094 18.2273 7.88117 18.0366 7.37762 18.0366C6.87407 18.0366 6.4143 18.2273 6.06641 18.5401C5.71848 18.2273 5.25871 18.0366 4.75516 18.0366C4.5241 18.0366 4.30215 18.0767 4.09606 18.1504V1.84965C4.30215 1.92328 4.5241 1.96344 4.75516 1.96344C5.25875 1.96344 5.71852 1.7727 6.06641 1.45988C6.41434 1.7727 6.87407 1.96344 7.37762 1.96344C7.88121 1.96344 8.34098 1.7727 8.68887 1.45988C9.0368 1.7727 9.49656 1.96344 10.0001 1.96344C10.5037 1.96344 10.9635 1.7727 11.3114 1.45988C11.6593 1.7727 12.1191 1.96344 12.6226 1.96344C13.1262 1.96344 13.5859 1.7727 13.9338 1.45988C14.2818 1.7727 14.7415 1.96344 15.2451 1.96344C15.4761 1.96344 15.6981 1.92332 15.9042 1.84965V18.1504Z" fill="#C3922E"/>
<path d="M11.1005 3.99902H5.85529V5.30336H11.1005V3.99902Z" fill="#C3922E"/>
<path d="M14.1447 3.99902H12.4117V5.30336H14.1447V3.99902Z" fill="#C3922E"/>
<path d="M11.1005 6.90564H5.85529V8.20998H11.1005V6.90564Z" fill="#C3922E"/>
<path d="M14.1447 6.90564H12.4117V8.20998H14.1447V6.90564Z" fill="#C3922E"/>
<path d="M11.1005 9.81311H5.85529V11.1174H11.1005V9.81311Z" fill="#C3922E"/>
<path d="M14.1447 9.81311H12.4117V11.1174H14.1447V9.81311Z" fill="#C3922E"/>
<path d="M14.1449 14.5305H8.68878V15.8349H14.1449V14.5305Z" fill="#C3922E"/>
</g>
<defs>
<clipPath id="clip0_3338_657">
<rect width="20" height="20" fill="white"/>
</clipPath>
</defs>
</svg>
