<svg width="23" height="23" viewBox="0 0 23 23" fill="none" xmlns="http://www.w3.org/2000/svg">
<path d="M14.3227 1.19775C13.0121 1.19774 11.9557 1.19772 11.1249 1.30942C10.2623 1.4254 9.53596 1.6735 8.95913 2.25034C8.45606 2.7534 8.20188 3.3716 8.06845 4.09801C7.93879 4.80388 7.91399 5.66771 7.90821 6.70417C7.90601 7.10112 8.22601 7.4247 8.62296 7.42691C9.01991 7.42913 9.34349 7.10912 9.3457 6.71218C9.35153 5.66424 9.37875 4.92145 9.4823 4.35771C9.58207 3.81452 9.74231 3.50011 9.97557 3.26681C10.2408 3.00158 10.6132 2.82865 11.3164 2.73411C12.0403 2.63678 12.9997 2.63525 14.3753 2.63525H15.3336C16.7092 2.63525 17.6686 2.63678 18.3925 2.73411C19.0957 2.82865 19.4681 3.00158 19.7333 3.26681C19.9986 3.53203 20.1715 3.90442 20.2661 4.60762C20.3633 5.3315 20.3649 6.2909 20.3649 7.6665V15.3332C20.3649 16.7088 20.3633 17.6681 20.2661 18.3921C20.1715 19.0953 19.9986 19.4676 19.7333 19.7329C19.4681 19.9981 19.0957 20.171 18.3925 20.2656C17.6686 20.3629 16.7092 20.3644 15.3336 20.3644H14.3753C12.9997 20.3644 12.0403 20.3629 11.3164 20.2656C10.6132 20.171 10.2408 19.9981 9.97557 19.7329C9.74231 19.4995 9.58207 19.1852 9.4823 18.642C9.37875 18.0782 9.35153 17.3354 9.3457 16.2875C9.34349 15.8905 9.01991 15.5706 8.62296 15.5728C8.22601 15.575 7.90601 15.8986 7.90821 16.2955C7.91399 17.332 7.93879 18.1958 8.06845 18.9016C8.20188 19.628 8.45606 20.2463 8.95913 20.7494C9.53596 21.3262 10.2623 21.5743 11.1249 21.6903C11.9557 21.8019 13.0121 21.8019 14.3227 21.8019H15.3862C16.6968 21.8019 17.7532 21.8019 18.5841 21.6903C19.4467 21.5743 20.1729 21.3262 20.7498 20.7494C21.3266 20.1725 21.5748 19.4462 21.6907 18.5836C21.8025 17.7528 21.8024 16.6964 21.8024 15.3858V7.61392C21.8024 6.30331 21.8025 5.24692 21.6907 4.41608C21.5748 3.55347 21.3266 2.82718 20.7498 2.25034C20.1729 1.6735 19.4467 1.4254 18.5841 1.30942C17.7532 1.19772 16.6968 1.19774 15.3862 1.19775H14.3227Z" fill="#8B8D91"/>
<path d="M14.3751 10.7813C14.772 10.7813 15.0938 11.1031 15.0938 11.5C15.0938 11.897 14.772 12.2188 14.3751 12.2188H3.85971L5.73867 13.8293C6.04006 14.0876 6.07497 14.5414 5.81663 14.8428C5.5583 15.1442 5.10455 15.1791 4.80316 14.9207L1.449 12.0457C1.28968 11.9092 1.198 11.7098 1.198 11.5C1.198 11.2902 1.28968 11.0908 1.449 10.9543L4.80316 8.0793C5.10455 7.82096 5.5583 7.85586 5.81663 8.15726C6.07497 8.45865 6.04006 8.9124 5.73867 9.17073L3.85971 10.7813H14.3751Z" fill="#8B8D91"/>
</svg>
