<svg width="17" height="17" viewBox="0 0 17 17" fill="none" xmlns="http://www.w3.org/2000/svg">
<path d="M6.62512 9.81268C6.62512 10.5402 7.18762 11.1252 7.87762 11.1252H9.28762C9.88762 11.1252 10.3751 10.6152 10.3751 9.97768C10.3751 9.29518 10.0751 9.04768 9.63262 8.89018L7.37512 8.10268C6.93262 7.94518 6.63263 7.70518 6.63263 7.01518C6.63263 6.38518 7.12012 5.86768 7.72012 5.86768H9.13012C9.82012 5.86768 10.3826 6.45268 10.3826 7.18018" stroke="white" stroke-opacity="0.5" stroke-width="1.2057" stroke-linecap="round" stroke-linejoin="round"/>
<path d="M8.50024 5.125V11.875" stroke="white" stroke-opacity="0.5" stroke-width="1.2057" stroke-linecap="round" stroke-linejoin="round"/>
<path d="M16 8.5C16 12.64 12.64 16 8.5 16C4.36 16 1 12.64 1 8.5C1 4.36 4.36 1 8.5 1" stroke="white" stroke-opacity="0.5" stroke-width="1.2057" stroke-linecap="round" stroke-linejoin="round"/>
<path d="M16.0004 4V1H13.0004" stroke="white" stroke-opacity="0.5" stroke-width="1.2057" stroke-linecap="round" stroke-linejoin="round"/>
<path d="M12.2507 4.75L16.0007 1" stroke="white" stroke-opacity="0.5" stroke-width="1.2057" stroke-linecap="round" stroke-linejoin="round"/>
</svg>
