<svg id="Layer_1" enable-background="new 0 0 512 512" height="512" viewBox="0 0 512 512" width="512" xmlns="http://www.w3.org/2000/svg"><g clip-rule="evenodd" fill-rule="evenodd"><ellipse cx="256" cy="256" fill="#46cc6b" rx="240" ry="240" transform="matrix(.707 -.707 .707 .707 -106.039 256)"/><path d="m495.593 269.836c-6.91 121.528-104.23 218.849-225.76 225.758l-147.859-147.859c-3.259-2.693-5.344-6.763-5.344-11.294v-130.992c0-8.061 6.591-14.652 14.65-14.652h30.711l-13.937-13.937v-1.301c0-8.054 6.594-14.651 14.653-14.651h218.015c4.53 0 8.599 2.087 11.292 5.347z" fill="#179c5f"/><path d="m310.401 221.465h-140.226c-2.645 11.388-11.489 20.232-22.877 22.874v53.206c11.388 2.642 20.231 11.487 22.877 22.874h140.226c2.643-11.388 11.487-20.232 22.875-22.874v-53.206c-11.388-2.642-20.232-11.487-22.875-22.874zm-141.676-13.938h143.128c5.887 0 10.854 4.187 11.898 9.983 1.227 6.771 6.708 12.252 13.48 13.477 5.79 1.046 9.984 6.011 9.984 11.899v56.109c0 5.894-4.189 10.859-9.984 11.904-6.771 1.22-12.252 6.701-13.48 13.478-1.044 5.789-6.01 9.977-11.898 9.977h-143.128c-5.896 0-10.859-4.188-11.904-9.977-1.222-6.777-6.706-12.259-13.48-13.478-5.79-1.045-9.981-6.01-9.981-11.904v-56.109c0-5.888 4.189-10.853 9.981-11.899 6.774-1.225 12.258-6.707 13.48-13.477 1.044-5.795 6.007-9.983 11.904-9.983zm94.93 43.345c1.025 3.252-.78 6.725-4.036 7.753-3.253 1.028-6.725-.779-7.75-4.036-.562-1.771-1.931-3.368-3.82-4.558-2.089-1.307-4.778-2.091-7.761-2.091-3.523 0-6.651 1.11-8.863 2.898-1.846 1.492-2.989 3.449-2.989 5.51 0 2.068 1.143 4.018 2.989 5.517 2.212 1.788 5.34 2.892 8.863 2.892 6.436 0 12.324 2.16 16.64 5.65 4.68 3.792 7.576 9.129 7.576 15.127 0 5.993-2.896 11.335-7.576 15.122-2.885 2.334-6.474 4.077-10.458 4.97v3.241c0 3.415-2.768 6.185-6.182 6.185s-6.185-2.77-6.185-6.185v-3.241c-2.563-.581-4.963-1.504-7.115-2.718-4.118-2.317-7.366-5.702-9.214-9.738-1.415-3.089-.052-6.748 3.043-8.16 3.095-1.417 6.749-.052 8.162 3.043.736 1.603 2.163 3.026 4.047 4.082 2.021 1.139 4.524 1.806 7.262 1.806 3.521 0 6.651-1.109 8.863-2.897 1.846-1.492 2.989-3.451 2.989-5.512s-1.143-4.018-2.989-5.51c-2.211-1.789-5.342-2.899-8.863-2.899-6.438 0-12.326-2.16-16.64-5.65-4.682-3.786-7.576-9.129-7.576-15.127 0-5.993 2.893-11.335 7.576-15.122 2.885-2.334 6.471-4.07 10.455-4.97v-3.241c0-3.414 2.771-6.179 6.185-6.179s6.182 2.765 6.182 6.179v3.246c2.975.675 5.735 1.824 8.148 3.339 4.346 2.732 7.586 6.669 9.037 11.274zm-100.949-89.964h218.015c8.053 0 14.649 6.597 14.649 14.651v130.992c0 8.061-6.597 14.652-14.649 14.652h-2.842v-115.754c0-15.726-12.861-28.589-28.587-28.589h-201.239v-1.301c0-8.054 6.594-14.651 14.653-14.651zm-31.426 29.89h218.012c8.061 0 14.65 6.591 14.65 14.652v130.992c0 8.055-6.589 14.651-14.65 14.651h-218.012c-8.059 0-14.65-6.597-14.65-14.651v-130.993c0-8.061 6.591-14.651 14.65-14.651z" fill="#fff"/></g></svg>