<svg width="42" height="42" viewBox="0 0 42 42" fill="none" xmlns="http://www.w3.org/2000/svg">
<rect x="1" y="1" width="40" height="40" rx="20" fill="black"/>
<rect x="1" y="1" width="40" height="40" rx="20" stroke="#614698"/>
<g clip-path="url(#clip0_3402_1321)">
<path d="M23.5747 14.8816C23.791 15.0979 23.8107 15.4365 23.6337 15.675L23.5747 15.7434L18.3184 21L23.5747 26.2566C23.791 26.473 23.8107 26.8115 23.6337 27.05L23.5747 27.1184C23.3584 27.3347 23.0198 27.3544 22.7813 27.1774L22.7129 27.1184L17.0254 21.4309C16.8091 21.2146 16.7894 20.876 16.9664 20.6375L17.0254 20.5691L22.7129 14.8816C22.9509 14.6436 23.3367 14.6436 23.5747 14.8816Z" fill="#E2D8FD"/>
</g>
<defs>
<clipPath id="clip0_3402_1321">
<rect width="13" height="7.8" fill="white" transform="translate(24.2 14.5) rotate(90)"/>
</clipPath>
</defs>
</svg>
