<svg width="18" height="18" viewBox="0 0 18 18" fill="none" xmlns="http://www.w3.org/2000/svg">
<path fill-rule="evenodd" clip-rule="evenodd" d="M0.25 9C0.25 4.16751 4.16751 0.25 9 0.25C13.8325 0.25 17.75 4.16751 17.75 9C17.75 13.8325 13.8325 17.75 9 17.75C4.16751 17.75 0.25 13.8325 0.25 9ZM9 1.75C4.99594 1.75 1.75 4.99594 1.75 9C1.75 13.0041 4.99594 16.25 9 16.25C13.0041 16.25 16.25 13.0041 16.25 9C16.25 4.99594 13.0041 1.75 9 1.75ZM12.844 6.79644C13.1369 7.08933 13.1369 7.5642 12.844 7.8571L8.43357 12.2675C8.14068 12.5604 7.66581 12.5604 7.37291 12.2675L5.15602 10.0506C4.86313 9.75771 4.86313 9.28284 5.15602 8.98995C5.44892 8.69705 5.92379 8.69705 6.21669 8.98995L7.90324 10.6765L11.7833 6.79644C12.0762 6.50354 12.5511 6.50354 12.844 6.79644Z" fill="#1a561a" fill-opacity="0.65"/>
</svg>
