<svg width="21" height="21" viewBox="0 0 21 21" fill="none" xmlns="http://www.w3.org/2000/svg">
<path d="M9.91418 21.0005H6.20247C1.91446 21.0005 0 19.086 0 14.798V11.0863C0 6.79828 1.91446 4.88382 6.20247 4.88382H9.13277C9.53325 4.88382 9.86535 5.21592 9.86535 5.61639C9.86535 6.01687 9.53325 6.34897 9.13277 6.34897H6.20247C2.70564 6.34897 1.46515 7.58946 1.46515 11.0863V14.798C1.46515 18.2948 2.70564 19.5353 6.20247 19.5353H9.91418C13.411 19.5353 14.6515 18.2948 14.6515 14.798V11.8677C14.6515 11.4672 14.9836 11.1351 15.3841 11.1351C15.7846 11.1351 16.1167 11.4672 16.1167 11.8677V14.798C16.1167 19.086 14.2022 21.0005 9.91418 21.0005Z" fill="#292D32"/>
<path d="M15.3837 12.6003H12.258C9.51328 12.6003 8.39978 11.4868 8.39978 8.74205V5.61639C8.39978 5.32336 8.57559 5.04986 8.84908 4.94242C9.12258 4.82521 9.43514 4.89358 9.65003 5.0987L15.9013 11.35C16.1065 11.5551 16.1748 11.8775 16.0576 12.151C15.9502 12.4245 15.6767 12.6003 15.3837 12.6003ZM9.86492 7.38434V8.74205C9.86492 10.6858 10.3142 11.1351 12.258 11.1351H13.6157L9.86492 7.38434Z" fill="#292D32"/>
<path d="M14.0162 1.46513H10.1092C9.70869 1.46513 9.37659 1.13303 9.37659 0.73256C9.37659 0.332085 9.70869 -1.52588e-05 10.1092 -1.52588e-05H14.0162C14.4167 -1.52588e-05 14.7488 0.332085 14.7488 0.73256C14.7488 1.13303 14.4167 1.46513 14.0162 1.46513Z" fill="#292D32"/>
<path d="M5.61643 4.39544C5.21595 4.39544 4.88385 4.06333 4.88385 3.66286C4.88385 1.64095 6.52482 -1.52588e-05 8.54673 -1.52588e-05H11.1059C11.5063 -1.52588e-05 11.8384 0.332085 11.8384 0.73256C11.8384 1.13303 11.5063 1.46514 11.1059 1.46514H8.54673C7.33554 1.46514 6.349 2.45167 6.349 3.66286C6.349 4.06333 6.0169 4.39544 5.61643 4.39544Z" fill="#292D32"/>
<path d="M17.5227 16.1166C17.1223 16.1166 16.7902 15.7845 16.7902 15.3841C16.7902 14.9836 17.1223 14.6515 17.5227 14.6515C18.6363 14.6515 19.5349 13.7431 19.5349 12.6394V6.59317C19.5349 6.1927 19.867 5.8606 20.2675 5.8606C20.6679 5.8606 21 6.1927 21 6.59317V12.6394C21 14.5538 19.4372 16.1166 17.5227 16.1166Z" fill="#292D32"/>
<path d="M20.2679 7.32573H17.3376C14.7394 7.32573 13.6747 6.26105 13.6747 3.66285V0.732552C13.6747 0.439522 13.8506 0.166028 14.1241 0.0585832C14.3976 -0.0586288 14.7101 0.00974487 14.925 0.214866L20.7856 6.07547C20.9907 6.28059 21.0591 6.60292 20.9419 6.87642C20.8344 7.14991 20.561 7.32573 20.2679 7.32573ZM15.1399 2.5005V3.66285C15.1399 5.45034 15.5501 5.86058 17.3376 5.86058H18.5L15.1399 2.5005Z" fill="#292D32"/>
</svg>
