<svg width="19" height="22" viewBox="0 0 19 22" fill="none" xmlns="http://www.w3.org/2000/svg">
<g clip-path="url(#clip0_3906_2512)">
<path fill-rule="evenodd" clip-rule="evenodd" d="M0.908045 3.08475C0.637695 3.57516 0.637695 4.21683 0.637695 5.50016V16.5002C0.637695 17.7835 0.637695 18.4252 0.908045 18.9156C1.14648 19.3467 1.52677 19.6971 1.99441 19.9166C2.52617 20.1668 3.22192 20.1668 4.61343 20.1668H10.577C11.9685 20.1668 12.6643 20.1668 13.196 19.9166C13.6633 19.6969 14.0432 19.3465 14.2814 18.9156C14.5528 18.4252 14.5528 17.7835 14.5528 16.5002V9.15583C14.5528 8.483 14.5528 8.1475 14.4703 7.83033C14.397 7.54974 14.2762 7.28154 14.1125 7.03558C13.9286 6.75783 13.6711 6.52041 13.1553 6.04558L9.98664 3.12141C9.47078 2.64658 9.21335 2.40916 8.91219 2.23866C8.6455 2.08765 8.35469 1.97629 8.05045 1.90866C7.70655 1.8335 7.34178 1.8335 6.61322 1.8335H4.61343C3.22192 1.8335 2.52617 1.8335 1.99441 2.08283C1.52662 2.30258 1.14632 2.65332 0.908045 3.08475ZM6.6013 8.25016V4.4185C6.60131 4.27231 6.64749 4.12929 6.73419 4.00691C6.8209 3.88453 6.94437 3.78809 7.08953 3.72937C7.23469 3.67064 7.39525 3.65218 7.5516 3.67624C7.70795 3.7003 7.85332 3.76583 7.96994 3.86483L12.3293 7.88533C12.4432 7.99038 12.5207 8.12421 12.5521 8.2699C12.5834 8.41559 12.5672 8.56658 12.5055 8.70377C12.4438 8.84096 12.3393 8.95819 12.2054 9.04062C12.0714 9.12304 11.9139 9.16697 11.7529 9.16683H7.59523C7.33162 9.16683 7.07881 9.07025 6.89241 8.89834C6.70601 8.72644 6.6013 8.49328 6.6013 8.25016Z" fill="#C2912E"/>
</g>
<defs>
<clipPath id="clip0_3906_2512">
<rect width="17.2465" height="22" fill="white" transform="translate(0.77002)"/>
</clipPath>
</defs>
</svg>
