<svg width="18" height="19" viewBox="0 0 18 19" fill="none" xmlns="http://www.w3.org/2000/svg">
<mask id="mask0_3940_18215" style="mask-type:alpha" maskUnits="userSpaceOnUse" x="0" y="0" width="18" height="19">
<rect y="0.775879" width="17.4478" height="17.4478" fill="#D9D9D9"/>
</mask>
<g mask="url(#mask0_3940_18215)">
<path d="M8.72414 12.408L5.08918 8.77303L6.10697 7.71889L7.99715 9.60907V3.68408H9.45113V9.60907L11.3413 7.71889L12.3591 8.77303L8.72414 12.408ZM4.36219 15.316C3.96234 15.316 3.62005 15.1736 3.33531 14.8889C3.05057 14.6041 2.9082 14.2618 2.9082 13.862V11.681H4.36219V13.862H13.0861V11.681H14.5401V13.862C14.5401 14.2618 14.3977 14.6041 14.113 14.8889C13.8282 15.1736 13.4859 15.316 13.0861 15.316H4.36219Z" fill="#217EFD"/>
</g>
</svg>
