<svg width="21" height="21" viewBox="0 0 21 21" fill="none" xmlns="http://www.w3.org/2000/svg">
<path fill-rule="evenodd" clip-rule="evenodd" d="M2.53662 12.0488C2.88685 12.0488 3.17078 12.3328 3.17078 12.683C3.17078 13.8967 3.17212 14.7431 3.25799 15.3819C3.34141 16.0023 3.49398 16.3308 3.728 16.5649C3.96201 16.7989 4.29057 16.9514 4.911 17.0349C5.54968 17.1207 6.39617 17.1221 7.60986 17.1221H12.6831C13.8968 17.1221 14.7433 17.1207 15.382 17.0349C16.0024 16.9514 16.3309 16.7989 16.565 16.5649C16.799 16.3308 16.9516 16.0023 17.035 15.3819C17.1208 14.7431 17.1222 13.8967 17.1222 12.683C17.1222 12.3328 17.4061 12.0488 17.7563 12.0488C18.1066 12.0488 18.3905 12.3328 18.3905 12.683V12.7294C18.3905 13.8858 18.3905 14.8178 18.292 15.5509C18.1897 16.312 17.9708 16.9527 17.4618 17.4616C16.9528 17.9707 16.3121 18.1896 15.551 18.2919C14.8179 18.3904 13.8859 18.3904 12.7295 18.3904H7.56347C6.40712 18.3904 5.47506 18.3904 4.742 18.2919C3.98092 18.1896 3.34011 17.9707 2.83117 17.4617C2.32222 16.9527 2.10332 16.312 2.00099 15.5509C1.90243 14.8178 1.90245 13.8858 1.90247 12.7294C1.90247 12.7139 1.90247 12.6985 1.90247 12.683C1.90247 12.3328 2.18639 12.0488 2.53662 12.0488Z" fill="#217EFD"/>
<path fill-rule="evenodd" clip-rule="evenodd" d="M10.1464 14.1627C10.3245 14.1627 10.4943 14.0878 10.6145 13.9565L13.9966 10.2572C14.2329 9.99873 14.215 9.59761 13.9565 9.36128C13.6981 9.12495 13.2969 9.14288 13.0606 9.40136L10.7806 11.8951V2.5365C10.7806 2.18627 10.4967 1.90234 10.1464 1.90234C9.79622 1.90234 9.51229 2.18627 9.51229 2.5365V11.8951L7.23231 9.40136C6.99599 9.14288 6.59486 9.12495 6.33638 9.36128C6.0779 9.59761 6.05993 9.99873 6.29626 10.2572L9.67844 13.9565C9.79859 14.0878 9.96837 14.1627 10.1464 14.1627Z" fill="#217EFD"/>
</svg>
