<svg width="17" height="17" viewBox="0 0 17 17" fill="none" xmlns="http://www.w3.org/2000/svg">
<g clip-path="url(#clip0_4107_1860)">
<path d="M3.86152 5.67856C3.7619 5.57894 3.70593 5.44381 3.70593 5.30292C3.70593 5.16203 3.7619 5.02691 3.86152 4.92728L5.3129 3.47594C5.41283 3.37779 5.54747 3.32307 5.68754 3.3237C5.82761 3.32433 5.96176 3.38024 6.0608 3.47929C6.15985 3.57833 6.21577 3.71248 6.2164 3.85254C6.21704 3.99261 6.16233 4.12726 6.06419 4.22719L5.51965 4.77172H11.2064C11.7598 4.77234 12.2905 4.99249 12.6819 5.38387C13.0732 5.77524 13.2934 6.30588 13.294 6.85937V8.7623C13.294 8.9032 13.238 9.03833 13.1384 9.13796C13.0388 9.23758 12.9036 9.29355 12.7627 9.29355C12.6219 9.29355 12.4867 9.23758 12.3871 9.13796C12.2875 9.03833 12.2315 8.9032 12.2315 8.7623V6.85933C12.2312 6.58755 12.1231 6.32698 11.9309 6.1348C11.7387 5.94261 11.4781 5.8345 11.2064 5.83419H5.51982L6.06435 6.37872C6.11417 6.42794 6.15377 6.48653 6.18087 6.55111C6.20796 6.61569 6.22202 6.68499 6.22224 6.75503C6.22245 6.82507 6.20881 6.89445 6.18211 6.9592C6.1554 7.02394 6.11616 7.08277 6.06664 7.13229C6.01712 7.18182 5.95829 7.22106 5.89354 7.24776C5.8288 7.27447 5.75941 7.2881 5.68938 7.28789C5.61934 7.28768 5.55004 7.27362 5.48546 7.24652C5.42087 7.21943 5.36229 7.17983 5.31306 7.13001L3.86152 5.67856ZM11.687 9.87006C11.5872 9.77143 11.4524 9.71631 11.312 9.71674C11.1717 9.71716 11.0372 9.7731 10.938 9.87233C10.8388 9.97157 10.7828 10.106 10.7824 10.2464C10.782 10.3867 10.8371 10.5215 10.9357 10.6213L11.4802 11.1659H5.79365C5.52186 11.1656 5.26129 11.0575 5.06911 10.8653C4.87692 10.6731 4.76882 10.4126 4.7685 10.1408V8.2377C4.7685 8.0968 4.71253 7.96167 4.6129 7.86204C4.51327 7.76242 4.37815 7.70645 4.23725 7.70645C4.09635 7.70645 3.96123 7.76242 3.8616 7.86204C3.76197 7.96167 3.706 8.0968 3.706 8.2377V10.1407C3.70663 10.6942 3.92678 11.2248 4.31816 11.6162C4.70953 12.0075 5.24017 12.2277 5.79365 12.2283H11.4802L10.9356 12.7728C10.8856 12.822 10.8458 12.8806 10.8185 12.9453C10.7912 13.0099 10.777 13.0793 10.7767 13.1495C10.7764 13.2196 10.7899 13.2892 10.8166 13.3541C10.8434 13.4189 10.8827 13.4779 10.9323 13.5275C10.9819 13.5771 11.0408 13.6164 11.1057 13.6431C11.1706 13.6698 11.2401 13.6834 11.3103 13.6831C11.3805 13.6828 11.4499 13.6686 11.5145 13.6413C11.5792 13.614 11.6378 13.5742 11.6869 13.5241L13.1385 12.0727C13.2381 11.973 13.2941 11.8379 13.2941 11.697C13.2941 11.5561 13.2381 11.421 13.1385 11.3214L11.687 9.87006ZM0 8.5C0 3.81308 3.81308 0 8.5 0C13.1869 0 17 3.81308 17 8.5C17 13.1869 13.1869 17 8.5 17C3.81308 17 0 13.1869 0 8.5ZM1.0625 8.5C1.0625 12.6011 4.39895 15.9375 8.5 15.9375C12.6011 15.9375 15.9375 12.6011 15.9375 8.5C15.9375 4.39895 12.6011 1.0625 8.5 1.0625C4.39895 1.0625 1.0625 4.39895 1.0625 8.5Z" fill="black"/>
</g>
<defs>
<clipPath id="clip0_4107_1860">
<rect width="17" height="17" fill="white"/>
</clipPath>
</defs>
</svg>
