<svg width="37" height="37" viewBox="0 0 37 37" fill="none" xmlns="http://www.w3.org/2000/svg">
<path d="M18.5 2.3125C9.57359 2.3125 2.3125 9.57359 2.3125 18.5C2.3125 27.4264 9.57359 34.6875 18.5 34.6875C27.4264 34.6875 34.6875 27.4264 34.6875 18.5C34.6875 9.57359 27.4264 2.3125 18.5 2.3125ZM16.454 10.6931L24.3829 17.6306C24.9082 18.0912 24.9082 18.9088 24.3829 19.3694L16.454 26.3069C15.9733 26.7283 15.2419 26.6798 14.8212 26.1985C14.4014 25.7182 14.4499 24.9886 14.9296 24.5681L21.8649 18.5L14.9296 12.4319C14.4499 12.0114 14.4014 11.2818 14.8212 10.8015C15.2798 10.2489 15.9584 10.3122 16.454 10.6931Z" fill="url(#paint0_linear_4132_1005)"/>
<defs>
<linearGradient id="paint0_linear_4132_1005" x1="2.37031" y1="2.37031" x2="34.6875" y2="34.6875" gradientUnits="userSpaceOnUse">
<stop stop-color="#FFFF00"/>
<stop offset="1" stop-color="#FF0000"/>
</linearGradient>
</defs>
</svg>
