<svg width="30" height="30" viewBox="0 0 30 30" fill="none" xmlns="http://www.w3.org/2000/svg">
<path d="M15 29.5C23.0081 29.5 29.5 23.0081 29.5 15C29.5 6.99187 23.0081 0.5 15 0.5C6.99187 0.5 0.5 6.99187 0.5 15C0.5 23.0081 6.99187 29.5 15 29.5Z" stroke="#C3922E"/>
<path d="M14.36 7.66016H16.24L15.92 17.2602H14.68L14.36 7.66016ZM14.2 20.1002C14.2 19.7935 14.3067 19.5335 14.52 19.3202C14.7467 19.1069 15.0067 19.0002 15.3 19.0002C15.6067 19.0002 15.8667 19.1069 16.08 19.3202C16.2933 19.5335 16.4 19.7935 16.4 20.1002C16.4 20.3935 16.2867 20.6535 16.06 20.8802C15.8467 21.0935 15.5933 21.2002 15.3 21.2002C15.0067 21.2002 14.7467 21.0935 14.52 20.8802C14.3067 20.6535 14.2 20.3935 14.2 20.1002Z" fill="#C3922E"/>
</svg>
