<svg width="44" height="32" viewBox="0 0 44 32" fill="none" xmlns="http://www.w3.org/2000/svg">
<rect width="44" height="32" rx="4" fill="#C3922E"/>
<path d="M24 24.5H20C19.8019 24.4974 19.6127 24.4176 19.4726 24.2775C19.3325 24.1374 19.2526 23.9481 19.25 23.75V16L13.9 8.69C13.8155 8.58007 13.764 8.44832 13.7516 8.31018C13.7392 8.17204 13.7664 8.03323 13.83 7.91C13.8938 7.78712 13.9899 7.68399 14.108 7.61173C14.226 7.53947 14.3616 7.50084 14.5 7.5H29.5C29.6384 7.50084 29.774 7.53947 29.8921 7.61173C30.0101 7.68399 30.1062 7.78712 30.17 7.91C30.2336 8.03323 30.2608 8.17204 30.2484 8.31018C30.236 8.44832 30.1846 8.58007 30.1 8.69L24.75 16V23.75C24.7474 23.9481 24.6676 24.1374 24.5275 24.2775C24.3874 24.4176 24.1981 24.4974 24 24.5ZM20.75 23H23.25V15.75C23.2492 15.5907 23.302 15.4357 23.4 15.31L28 9H16L20.62 15.31C20.718 15.4357 20.7708 15.5907 20.77 15.75L20.75 23Z" fill="white"/>
</svg>
