<svg width="26" height="26" viewBox="0 0 26 26" fill="none" xmlns="http://www.w3.org/2000/svg">
<g clip-path="url(#clip0_4107_1838)">
<path d="M13 26C5.83158 26 0 20.1684 0 13C0 5.83158 5.83158 0 13 0C20.1684 0 26 5.83158 26 13C26 20.1684 20.1684 26 13 26ZM13 1.08333C6.42958 1.08333 1.08333 6.42958 1.08333 13C1.08333 19.5704 6.42958 24.9167 13 24.9167C19.5704 24.9167 24.9167 19.5704 24.9167 13C24.9167 6.42958 19.5704 1.08333 13 1.08333ZM17.0408 14.183C17.693 13.5308 17.693 12.4713 17.0408 11.8192L11.7585 6.53575L10.9926 7.30167L16.2749 12.5851C16.5035 12.8147 16.5035 13.1874 16.2749 13.4171L10.9958 18.6951L11.7618 19.461L17.0408 14.183Z" fill="#C3922E"/>
</g>
<defs>
<clipPath id="clip0_4107_1838">
<rect width="26" height="26" fill="white"/>
</clipPath>
</defs>
</svg>
