<svg width="17" height="17" viewBox="0 0 17 17" fill="none" xmlns="http://www.w3.org/2000/svg">
<circle cx="8.5" cy="8.5" r="8" stroke="#217EFD"/>
<path d="M7.91555 10.4396C7.87762 10.3342 7.8439 10.1973 7.8144 10.0287C7.7849 9.86009 7.77015 9.69362 7.77015 9.52925C7.77015 9.27215 7.82072 9.04035 7.92187 8.83383C8.02724 8.6231 8.15579 8.42712 8.30751 8.24589C8.46346 8.06466 8.62993 7.88975 8.80695 7.72117C8.98818 7.55258 9.15466 7.38821 9.30638 7.22805C9.46233 7.0679 9.59087 6.89931 9.69202 6.7223C9.79739 6.54528 9.85007 6.35141 9.85007 6.14068C9.85007 5.95102 9.81214 5.78665 9.73628 5.64756C9.66041 5.50427 9.55505 5.38626 9.42018 5.29353C9.28952 5.1966 9.1378 5.12495 8.965 5.07859C8.79641 5.03223 8.61518 5.00905 8.42131 5.00905C7.79333 5.00905 7.19485 5.28932 6.62587 5.84987V4.38949C7.31707 3.98489 8.03356 3.78259 8.77534 3.78259C9.11672 3.78259 9.43914 3.82684 9.7426 3.91535C10.0461 4.00386 10.3116 4.13451 10.5392 4.30731C10.7668 4.48011 10.9459 4.69506 11.0765 4.95215C11.2072 5.20924 11.2725 5.50848 11.2725 5.84987C11.2725 6.17439 11.2177 6.4631 11.1081 6.71597C10.9986 6.96885 10.8595 7.20277 10.6909 7.41771C10.5265 7.62844 10.3474 7.816 10.1535 7.98037C9.96387 8.14474 9.78474 8.30911 9.61616 8.47348C9.45179 8.63785 9.31481 8.80854 9.20523 8.98556C9.09565 9.16257 9.04086 9.35855 9.04086 9.5735C9.04086 9.75473 9.06404 9.9191 9.1104 10.0666C9.15676 10.2141 9.20312 10.3385 9.24949 10.4396H7.91555ZM8.63626 13.1138C8.39602 13.1138 8.18318 13.0316 7.99774 12.8672C7.82072 12.7071 7.73222 12.509 7.73222 12.273C7.73222 12.0327 7.82072 11.8347 7.99774 11.6787C8.17897 11.5101 8.39181 11.4258 8.63626 11.4258C8.87649 11.4258 9.08722 11.5101 9.26845 11.6787C9.44547 11.8347 9.53397 12.0327 9.53397 12.273C9.53397 12.509 9.44547 12.7071 9.26845 12.8672C9.08301 13.0316 8.87228 13.1138 8.63626 13.1138Z" fill="#217EFD"/>
</svg>
