<svg width="34" height="34" viewBox="0 0 34 34" fill="none" xmlns="http://www.w3.org/2000/svg">
<rect x="0.5" y="0.5" width="33" height="33" rx="3.5" stroke="#217EFD"/>
<path d="M16.9996 19.4V9M16.9996 9L19.3996 11.8M16.9996 9L14.5996 11.8" stroke="#217EFD" stroke-width="1.2" stroke-linecap="round" stroke-linejoin="round"/>
<path d="M13.8 24.9997H20.2C22.4627 24.9997 23.5941 24.9997 24.297 24.2967C25 23.5938 25 22.4624 25 20.1997V19.3997C25 17.137 25 16.0056 24.297 15.3026C23.6823 14.6879 22.74 14.6108 21 14.6011M13 14.6011C11.26 14.6108 10.3176 14.6879 9.70294 15.3026C9 16.0056 9 17.137 9 19.3997V20.1997C9 22.4624 9 23.5938 9.70294 24.2967C9.94278 24.5366 10.2325 24.6946 10.6 24.7987" stroke="#217EFD" stroke-width="1.2" stroke-linecap="round"/>
</svg>
