<svg width="88" height="88" viewBox="0 0 88 88" fill="none" xmlns="http://www.w3.org/2000/svg">
<path d="M44 0C19.7003 0 0 19.6986 0 44C0 68.3014 19.7003 88 44 88C68.2997 88 88 68.2997 88 44C88 19.7003 68.2997 0 44 0ZM42.5047 40.3356H53.8072V49.9073H42.9103L43.0942 54.0444C43.0942 56.8511 42.3706 59.0563 40.9217 60.6564H63.305V70.5959H23.9491V60.6564H27.7406C29.1397 60.2869 29.8753 59.0184 29.9492 56.8511L29.9853 54.8934L29.8014 49.9056H23.8373V40.3339H29.5075L29.2858 32.3452C29.2858 27.3144 30.788 23.3802 33.7958 20.5459C36.8019 17.7117 40.8702 16.2938 46.0006 16.2938C51.4989 16.2938 55.7872 17.7048 58.8672 20.527C61.9472 23.3492 63.4872 27.1786 63.4872 32.0134H51.3373C51.3373 28.16 49.6684 26.2333 46.3306 26.2333C45.0794 26.2333 44.0722 26.73 43.3125 27.7252C42.5511 28.7186 42.1712 30.2603 42.1712 32.3452L42.503 40.3339L42.5047 40.3356Z" fill="url(#paint0_linear_3914_2726)"/>
<defs>
<linearGradient id="paint0_linear_3914_2726" x1="12.8872" y1="12.8872" x2="75.1128" y2="75.1128" gradientUnits="userSpaceOnUse">
<stop stop-color="#FDE560"/>
<stop offset="1" stop-color="#FF6F00"/>
</linearGradient>
</defs>
</svg>
