<svg width="65" height="65" viewBox="0 0 65 65" fill="none" xmlns="http://www.w3.org/2000/svg">
<path d="M32.2925 0C14.4585 0 0 14.4572 0 32.2925C0 50.1278 14.4585 64.585 32.2925 64.585C50.1265 64.585 64.585 50.1265 64.585 32.2925C64.585 14.4585 50.1265 0 32.2925 0ZM38.6917 25.9917V30.2603H30.3688V33.4883H38.6917V37.757H30.3688C30.4571 40.0957 31.0929 41.8225 32.2761 42.9389C33.458 44.0553 35.4107 44.6128 38.1316 44.6128C39.8926 44.6128 41.4567 44.3467 42.8266 43.8131L43.9733 51.0133C41.6081 51.5481 39.2694 51.8168 36.9572 51.8168C32.155 51.8168 28.3278 50.5718 25.4732 48.0817C22.6186 45.5917 21.12 42.1505 20.9788 37.7582H16.5776V33.4896H20.9788V30.2616H16.5776V25.9929H21.0595C21.3976 21.583 23.0513 18.1418 26.0207 15.6694C28.9901 13.1983 32.9118 11.9608 37.7847 11.9608C39.6693 11.9608 41.733 12.2371 43.9733 12.7883L42.8266 19.9911C41.4391 19.4398 39.9544 19.1636 38.3713 19.1636C35.9166 19.1636 34.0408 19.7199 32.7428 20.8312C31.4448 21.9425 30.6791 23.6631 30.4483 25.9929H38.6917V25.9917Z" fill="url(#paint0_linear_3914_2735)"/>
<defs>
<linearGradient id="paint0_linear_3914_2735" x1="9.45816" y1="9.45816" x2="55.1268" y2="55.1268" gradientUnits="userSpaceOnUse">
<stop stop-color="#FDE560"/>
<stop offset="1" stop-color="#FF6F00"/>
</linearGradient>
</defs>
</svg>
