<svg width="64" height="64" viewBox="0 0 64 64" fill="none" xmlns="http://www.w3.org/2000/svg">
<path d="M32 64C49.6731 64 64 49.6731 64 32C64 14.3269 49.6731 0 32 0C14.3269 0 0 14.3269 0 32C0 49.6731 14.3269 64 32 64Z" fill="url(#paint0_linear_3914_2729)"/>
<path d="M38.0639 43.7587C33.8626 46.2649 34.6526 43.2337 34.5826 48.5337C34.5826 49.2637 34.3489 49.4987 33.6214 49.4987C32.4147 49.4987 31.2064 49.4987 29.9964 49.4987C29.3589 49.4987 29.1214 49.2587 29.1214 48.6237C29.1214 47.6074 29.1214 46.5887 29.1214 45.6137C27.9964 45.3987 26.8801 45.2599 25.8151 44.9637C24.7501 44.6674 23.6901 44.2274 22.6539 43.8087C22.1339 43.5987 22.0389 43.3199 22.1789 42.7712C22.5614 41.2795 22.9455 39.7879 23.3314 38.2962C23.4989 37.6512 23.8789 37.4549 24.4676 37.7562C26.8901 38.9762 29.7001 39.8099 32.4151 39.2449C33.8364 38.9599 34.8526 37.6537 33.7001 36.4024C32.9814 35.6524 32.0289 35.3099 31.0951 34.9324C29.7076 34.3712 28.2876 33.8712 26.9376 33.2249C21.9576 31.1324 20.7614 24.4749 24.7864 20.8299C25.9526 19.7892 27.3567 19.0509 28.8751 18.6799C29.2176 18.5912 29.3439 18.4524 29.3301 18.0849C29.2976 17.1999 29.3164 16.3149 29.3214 15.4299C29.3214 14.7499 29.5714 14.5037 30.2401 14.5024C31.4326 14.5024 32.6264 14.5024 33.8214 14.5024C34.5214 14.5024 34.7476 14.7412 34.7464 15.4562C34.7464 16.2337 34.7551 17.0112 34.7389 17.7874C34.7326 18.0737 34.8051 18.1849 35.1139 18.2049C36.8559 18.3225 38.563 18.7496 40.1551 19.4662C40.7126 19.7162 40.8414 19.9562 40.6876 20.5412C40.3176 21.952 39.9426 23.3629 39.5626 24.7737C39.3664 25.5074 39.0051 25.6812 38.3126 25.3412C36.0901 24.2924 33.4751 23.6687 31.0751 24.4062C29.8364 24.8612 29.6714 26.0962 30.7776 26.7974C31.7104 27.367 32.6918 27.8531 33.7101 28.2499C35.2226 28.8749 36.7501 29.4287 38.1689 30.2687C43.2714 33.2949 42.9889 40.7862 38.0639 43.7587Z" fill="white"/>
<defs>
<linearGradient id="paint0_linear_3914_2729" x1="32" y1="0" x2="32" y2="63.5263" gradientUnits="userSpaceOnUse">
<stop stop-color="#FDAE3E"/>
<stop offset="1" stop-color="#FF0749"/>
</linearGradient>
</defs>
</svg>
